<?xml version="1.0" standalone="no"?>
<!DOCTYPE svg PUBLIC "-//W3C//DTD SVG 1.1//EN" "http://www.w3.org/Graphics/SVG/1.1/DTD/svg11.dtd" >
<svg>
<metadata>
Created by FontForge 20090914 at Tue Mar 18 09:03:02 2014
 By www-data
Copyright (c) 2005 Dalton Maag Ltd. All rights reserved. This font is for exclusive use by Vodafone only. This font may not be altered in any way without prior consent of Dalton Maag Ltd. DaMa is a trademark of Dalton Maag Ltd
</metadata>
<defs>
<font id="VodafoneBd-Bold" horiz-adv-x="513" >
  <font-face 
    font-family="Vodafone Bd"
    font-weight="400"
    font-stretch="normal"
    units-per-em="1000"
    panose-1="2 11 8 3 8 2 2 2 2 4"
    ascent="800"
    descent="-200"
    x-height="482"
    cap-height="667"
    bbox="-239 -220 1040 912.001"
    underline-thickness="70"
    underline-position="-115"
    unicode-range="U+000D-U+FB02"
  />
<missing-glyph horiz-adv-x="190" 
 />
    <glyph glyph-name=".notdef" horiz-adv-x="190" 
 />
    <glyph glyph-name=".null" horiz-adv-x="201" 
 />
    <glyph glyph-name=".null" horiz-adv-x="201" 
 />
    <glyph glyph-name="nonmarkingreturn" unicode="&#xd;" horiz-adv-x="190" 
 />
    <glyph glyph-name="space" unicode=" " horiz-adv-x="190" 
 />
    <glyph glyph-name="exclam" unicode="!" horiz-adv-x="229" 
d="M115 -11c-23.333 0 -42.166 8.16699 -56.499 24.5s-21.5 35.166 -21.5 56.499s7.16699 40.166 21.5 56.499s33.166 24.5 56.499 24.5c22.667 0 41.167 -8.16699 55.5 -24.5s21.5 -35.166 21.5 -56.499s-7.16699 -40.166 -21.5 -56.499s-32.833 -24.5 -55.5 -24.5zM53 211
v456h126v-456h-126z" />
    <glyph glyph-name="quotedbl" unicode="&#x22;" horiz-adv-x="430" 
d="M60 371v296h118v-296h-118zM251 371v296h119v-296h-119z" />
    <glyph glyph-name="numbersign" unicode="#" horiz-adv-x="547" 
d="M132 74v132h-132v119h132v91h-132v118h132v133h113v-133h86v133h112v-133h133v-118h-133v-91h133v-119h-133v-132h-112v132h-86v-132h-113zM245 325h86v91h-86v-91z" />
    <glyph glyph-name="dollar" unicode="$" 
d="M211 -139l0.00195312 128.001c-42 5.33301 -79.833 16.666 -113.5 33.999s-60.834 39.333 -81.501 66l80 97c21.333 -26 44.666 -46.167 69.999 -60.5s52.333 -21.5 81 -21.5c30 0 54 6.5 72 19.5s27 31.5 27 55.5c0 24.667 -8 43.834 -24 57.501s-39 26.834 -69 39.501
l-80 32c-26 10.667 -49.333 23.834 -70 39.501s-37.334 35 -50.001 58s-19 52.167 -19 87.5c0 40.667 10.333 74.334 31 101.001c20.667 28 44.334 47.833 71.001 59.5s51.667 19.167 75 22.5v147h87v-144c34.667 -4.66699 67.334 -15.667 98.001 -33s54.667 -40 72 -68
l-80 -82c-22.667 25.333 -44.5 43.333 -65.5 54s-43.167 16 -66.5 16c-28.667 0 -51.334 -6 -68.001 -18s-25 -28.667 -25 -50c0 -11.333 2.83301 -21.333 8.5 -30s12.667 -16.334 21 -23.001s17.5 -12.334 27.5 -17.001s19 -8.66699 27 -12l80.5 -34
c27 -11.333 51.5 -25.333 73.5 -42s40 -37.334 54 -62.001s21 -56 21 -94c0 -39.333 -10 -74 -30 -104c-18 -28 -40.167 -48.833 -66.5 -62.5s-53.5 -22.834 -81.5 -27.501v-129h-87z" />
    <glyph glyph-name="percent" unicode="%" horiz-adv-x="703" 
d="M541 -8c-26.667 0 -50.001 4.49805 -70.001 13.498s-36.667 20.833 -50 35.5s-23.333 31.334 -30 50.001s-10 37.667 -10 57c0 24 4.33301 45.833 13 65.5s20.5 36.334 35.5 50.001s32.333 24 52 31s39.834 10.5 60.501 10.5c38.667 0 71.334 -10.667 98.001 -32
c20 -18.667 35 -39.167 45 -61.5s15 -43.166 15 -62.499c0 -20 -3.33301 -39.333 -10 -58s-16.667 -35.334 -30 -50.001s-29.833 -26.5 -49.5 -35.5s-42.834 -13.5 -69.501 -13.5zM75.999 -6.00195l-66 72l624 609l66 -69zM539.999 77.998c19.333 0 33.666 7.5 42.999 22.5
s14 31.167 14 48.5s-4.66699 33.5 -14 48.5s-23.666 22.5 -42.999 22.5s-33.666 -7.5 -42.999 -22.5s-14 -31.167 -14 -48.5s4.66699 -33.5 14 -48.5s23.666 -22.5 42.999 -22.5zM162.999 361.998c-26.667 0 -49.833 4.49707 -69.5 13.4971s-36.167 20.833 -49.5 35.5
s-23.333 31.334 -30 50.001s-10 37.667 -10 57c0 24.667 4.33301 46.834 13 66.501s20.5 36.334 35.5 50.001s32.167 23.834 51.5 30.501s39 10 59 10c39.333 0 72.333 -10.667 99 -32c27.333 -21.333 44.333 -44 51 -68c6.66699 -28 10 -46.667 10 -56
c0 -20 -3.33301 -39.333 -10 -58s-16.667 -35.334 -30 -50.001s-30 -26.5 -50 -35.5s-43.333 -13.5 -70 -13.5zM162 447.995c14.667 0 25.999 4.50293 33.999 13.5029s13.833 19.167 17.5 30.5s5.5 20.666 5.5 27.999c0 20.667 -5.66699 37.667 -17 51
s-24.666 20 -39.999 20c-18 0 -32 -7.16699 -42 -21.5s-15 -30.833 -15 -49.5c0 -8.66699 1.16699 -17.334 3.5 -26.001s5.83301 -16.334 10.5 -23.001s10.5 -12.167 17.5 -16.5s15.5 -6.5 25.5 -6.5z" />
    <glyph glyph-name="ampersand" unicode="&#x26;" horiz-adv-x="624" 
d="M218 -11c-36 0 -66.998 5.33398 -92.998 16.001s-47.333 25 -64 43s-28.834 38.5 -36.501 61.5s-11.5 47.167 -11.5 72.5c0 40 10.667 77.833 32 113.5s55 67.5 101 95.5l27 16c-12.667 16.667 -24 34.5 -34 53.5s-15 40.5 -15 64.5c0 24.667 5.16699 46.167 15.5 64.5
s23.666 33.333 39.999 45s34.5 20 54.5 25s38.667 7.5 56 7.5c40.667 0 74.167 -7.5 100.5 -22.5s51.833 -38.833 76.5 -71.5l-80 -72c-15.333 21.333 -30.5 38.166 -45.5 50.499s-31.5 18.5 -49.5 18.5c-15.333 0 -27.333 -3.66699 -36 -11s-13 -17.333 -13 -30
c0 -17.333 9.33301 -37.333 28 -60l133 -183l102 149l85 -77l-116 -168l139 -190h-145l-62 86c-24.667 -30 -48.167 -52.167 -70.5 -66.5s-43.833 -23 -64.5 -26s-38.667 -4.5 -54 -4.5zM222.002 96.001c22.667 0 43.667 7.83301 63 23.5s37 35.5 53 59.5l-104 142l-21 -12
c-24 -14 -42.833 -31.333 -56.5 -52s-20.5 -43.667 -20.5 -69c0 -28 7.33301 -50.333 22 -67s36 -25 64 -25z" />
    <glyph glyph-name="quotesingle" unicode="'" horiz-adv-x="238" 
d="M60 371v296h118v-296h-118z" />
    <glyph glyph-name="parenleft" unicode="(" horiz-adv-x="315" 
d="M250 -65c-32 18 -61.001 40.3311 -87.001 66.998s-48.167 56.834 -66.5 90.501s-32.666 70.834 -42.999 111.501s-15.5 84 -15.5 130c0 70 11.333 132.667 34 188c22.667 56.667 50 101.5 82 134.5s64 58.5 96 76.5l55 -71c-46 -34 -81.167 -78 -105.5 -132
s-36.5 -119.333 -36.5 -196s12.167 -142 36.5 -196s59.5 -98 105.5 -132z" />
    <glyph glyph-name="parenright" unicode=")" horiz-adv-x="315" 
d="M65 -65l-55.002 70.999c46 34 81.167 78 105.5 132s36.5 119.333 36.5 196s-12.167 142 -36.5 196s-59.5 98 -105.5 132l55 71c26.667 -14.667 50.834 -32 72.501 -52s40.834 -43.333 57.501 -70c30.667 -48.667 52 -96.167 64 -142.5s18 -91.166 18 -134.499
c0 -70 -11.333 -133 -34 -189s-50 -100.5 -82 -133.5s-64 -58.5 -96 -76.5z" />
    <glyph glyph-name="asterisk" unicode="*" horiz-adv-x="432" 
d="M167 339v105l-91 -61l-48 86l103 66l-105 68l54 81l87 -59v100h94v-100l91 59l55 -81l-105 -67l102 -67l-49 -86l-94 61v-105h-94z" />
    <glyph glyph-name="plus" unicode="+" 
d="M204 77v198h-182v110h182v201h104v-201h182v-110h-182v-198h-104z" />
    <glyph glyph-name="comma" unicode="," horiz-adv-x="204" 
d="M71 -120l-33 45c11.333 9.33301 22 20.5 32 33.5s15.667 25.167 17 36.5c-16 1.33301 -30.167 8.83301 -42.5 22.5s-18.5 30.5 -18.5 50.5c0 18.667 6 35.167 18 49.5s29.333 21.5 52 21.5c23.333 0 41.333 -8.33301 54 -25s19 -38 19 -64
c0 -24.667 -7.33301 -52.167 -22 -82.5s-40 -59.5 -76 -87.5z" />
    <glyph glyph-name="hyphen" unicode="-" horiz-adv-x="314" 
d="M36 201v119h241v-119h-241z" />
    <glyph glyph-name="period" unicode="." horiz-adv-x="211" 
d="M106 -11c-23.333 0 -40.833 7.5 -52.5 22.5s-17.5 31.5 -17.5 49.5c0 18.667 5.83301 35.5 17.5 50.5s29.167 22.5 52.5 22.5s40.666 -7.5 51.999 -22.5s17 -31.833 17 -50.5c0 -18 -5.66699 -34.5 -17 -49.5s-28.666 -22.5 -51.999 -22.5z" />
    <glyph glyph-name="slash" unicode="/" horiz-adv-x="516" 
d="M96 -32l-96 57l422 741l94 -53z" />
    <glyph glyph-name="zero" unicode="0" 
d="M257 -14c-45.333 0 -83.168 10.5 -113.501 31.5s-54.833 48 -73.5 81s-32 69.833 -40 110.5s-12 81 -12 121c0 66 9.66699 127 29 183c20 54.667 48.833 95.167 86.5 121.5s78.834 39.5 123.501 39.5c61.333 0 111 -21.333 149 -64c38.667 -40.667 63 -88 73 -142
c10.667 -49.333 16 -95.333 16 -138c0 -40 -4 -80.333 -12 -121s-21.333 -77.5 -40 -110.5s-43.167 -60 -73.5 -81s-67.833 -31.5 -112.5 -31.5zM256.998 101c21.333 -0.666992 39.168 6.66602 53.501 21.999s25.666 34.666 33.999 57.999s14 48.5 17 75.5
s4.16699 51.833 3.5 74.5c0 40 -3 74.333 -9 103s-14 52.167 -24 70.5s-21.5 32 -34.5 41s-26.5 13.5 -40.5 13.5c-30 0.666992 -54.333 -14.333 -73 -45s-29.334 -63 -32.001 -97c-1.33301 -17.333 -2.5 -33.166 -3.5 -47.499s-1.16699 -27.166 -0.5 -38.499
c0 -32 2.16699 -61.833 6.5 -89.5s10.833 -52 19.5 -73s19.834 -37.5 33.501 -49.5s30.167 -18 49.5 -18z" />
    <glyph glyph-name="one" unicode="1" 
d="M241 0v508l-119 -76l-59 97l209 133h99v-662h-130z" />
    <glyph glyph-name="two" unicode="2" 
d="M41 0l-0.000976562 78.999c-1.33301 32 4.83398 63 18.501 93s33.167 53.333 58.5 70l139 107c26.667 18.667 45 36.667 55 54s15 38.666 15 63.999c0 28 -8.33301 49.833 -25 65.5s-40 23.5 -70 23.5c-18.667 0 -35.834 -3.16699 -51.501 -9.5
s-29.667 -13.666 -42 -21.999s-22.666 -16.666 -30.999 -24.999l-18.5 -18.5l-61 96c15.333 17.333 37.833 34.5 67.5 51.5s58.167 28.833 85.5 35.5s50.666 10 69.999 10c47.333 0 87.333 -10.333 120 -31c34 -20.667 57.5 -46.167 70.5 -76.5s19.5 -60.5 19.5 -90.5
c0 -43.333 -8.16699 -79.833 -24.5 -109.5s-42.166 -57.5 -77.499 -83.5l-100 -74c-34.667 -26 -57.5 -44.5 -68.5 -55.5s-16.5 -23.5 -16.5 -37.5h295v-116h-428z" />
    <glyph glyph-name="three" unicode="3" 
d="M236 -14c-48 0 -90.3291 7.17188 -126.996 21.5049s-68 32.833 -94 55.5l56 105c23.333 -20.667 48.333 -37.334 75 -50.001s56 -19 88 -19c40.667 0 70.167 10.333 88.5 31s27.5 46 27.5 76c0 40 -12.833 68.5 -38.5 85.5s-59.834 25.5 -102.501 25.5
c-19.333 0 -38.333 -1.33301 -57 -4v82c13.333 23.333 24.666 40.666 33.999 51.999c13.333 17.333 29.333 36 48 56l33.5 32.5c9 8.33301 15.167 14.166 18.5 17.499h-255v114h417v-111c-26 -18 -50 -36.333 -72 -55c-28 -22.667 -48.5 -41.5 -61.5 -56.5
s-22.167 -26.833 -27.5 -35.5c45.333 1.33301 83.666 -9.33398 114.999 -32.001c27.333 -20 47 -44.333 59 -73s18 -59.334 18 -92.001c0 -38 -6.5 -71 -19.5 -99s-30.5 -51.5 -52.5 -70.5s-47.833 -33.167 -77.5 -42.5s-60.834 -14 -93.501 -14z" />
    <glyph glyph-name="four" unicode="4" 
d="M303 0v130h-277v99l299 438h103v-422h65v-115h-65v-130h-125zM162 245h141v214z" />
    <glyph glyph-name="five" unicode="5" 
d="M223 -14c-36.667 0 -70.001 4.16602 -100.001 12.499s-53 17 -69 26s-28.333 17.833 -37 26.5l52 111c23.333 -18 47.5 -32.5 72.5 -43.5s52.5 -16.5 82.5 -16.5c20.667 -0.666992 38.834 1.83301 54.501 7.5s28.667 13.834 39 24.501s18 23 23 37s7.16699 29 6.5 45
c0 40.667 -12.667 70.334 -38 89.001s-62 28 -110 28c-29.333 0 -70.333 -5.66699 -123 -17v351h370v-114h-257v-111c5.33301 1.33301 15 2 29 2c80.667 0 142.834 -18.167 186.501 -54.5s65.5 -92.833 65.5 -169.5c0 -60.667 -14 -109.334 -42 -146.001
c-27.333 -37.333 -60 -61.333 -98 -72c-34.667 -10.667 -70.334 -16 -107.001 -16z" />
    <glyph glyph-name="six" unicode="6" 
d="M262 -14c-42.667 0 -82.6689 11.665 -120.002 34.998c-36 23.333 -61.667 55 -77 95s-23 82.667 -23 128c0 44.667 5.16699 88 15.5 130s27.166 83 50.499 123c12.667 22.667 27.334 42.834 44.001 60.501s35.334 33.167 56.001 46.5c42 26.667 82.5 43.834 121.5 51.501
s73.833 11.5 104.5 11.5l29 -100h-7c-61.333 0 -111.666 -10.667 -150.999 -32c-38.667 -20.667 -65 -43.667 -79 -69c-13.333 -25.333 -22.333 -45.333 -27 -60c12.667 8 26.5 14.333 41.5 19s31.833 7 50.5 7c32.667 0.666992 61.167 -6.16602 85.5 -20.499
s44.333 -32.833 60 -55.5s26.667 -47.334 33 -74.001s9.5 -52 9.5 -76c0 -27.333 -4.5 -54.166 -13.5 -80.499s-22.5 -49.833 -40.5 -70.5s-40.667 -37.334 -68 -50.001s-59 -19 -95 -19zM263.998 100.998c25.333 0 45.666 9.33301 60.999 28s23 44 23 76
c0 36 -8.16699 64.167 -24.5 84.5s-37.5 30.5 -63.5 30.5c-15.333 0 -30.166 -2.5 -44.499 -7.5s-25.833 -10.167 -34.5 -15.5c-4 -12 -6 -33.667 -6 -65c0 -34 5 -62 15 -84c10 -21.333 22 -34.5 36 -39.5s26.667 -7.5 38 -7.5z" />
    <glyph glyph-name="seven" unicode="7" 
d="M101 0c13.333 93.333 40.167 185.666 80.5 276.999s92.833 183.333 157.5 276h-298v114h441v-109c-67.333 -94 -121.333 -186.167 -162 -276.5s-69 -184.166 -85 -281.499h-134z" />
    <glyph glyph-name="eight" unicode="8" 
d="M257 -14c-34.667 0 -65.499 5.66797 -92.499 17.001s-49.833 26.5 -68.5 45.5s-32.834 40.5 -42.501 64.5s-14.5 48.667 -14.5 74c0 22 4.66699 45 14 69c10 24 21.167 42.667 33.5 56s23.833 23.333 34.5 30c-25.333 19.333 -43.666 41.833 -54.999 67.5
s-17 50.5 -17 74.5c0 37.333 11 71.666 33 102.999c22 32 48.5 54.5 79.5 67.5s62.833 19.5 95.5 19.5c45.333 0 84.666 -11 117.999 -33c24.667 -16 44 -35.5 58 -58.5s22.833 -42.5 26.5 -58.5s5.5 -28.667 5.5 -38c0 -24 -6 -49.5 -18 -76.5s-30 -49.167 -54 -66.5
c18.667 -11.333 34.5 -26.333 47.5 -45s21.833 -38.167 26.5 -58.5s7 -37.5 7 -51.5c0 -25.333 -4.83301 -50 -14.5 -74s-23.667 -45.5 -42 -64.5s-41 -34.333 -68 -46s-57.833 -17.5 -92.5 -17.5zM257.001 99.001c30 0 52.834 9.33301 68.501 28s23.5 40.667 23.5 66
s-8 47.333 -24 66s-39 28 -69 28c-28.667 0 -51 -9.16699 -67 -27.5s-24 -39.833 -24 -64.5c-0.666992 -14.667 1.66602 -28.167 6.99902 -40.5s12.5 -22.833 21.5 -31.5s19 -15.167 30 -19.5s22.167 -5.83301 33.5 -4.5zM257.002 391.001c20 0 36.834 7.33301 50.501 22
s22.334 28.667 26.001 42s5.16699 22.333 4.5 27c0 18.667 -5.5 35 -16.5 49s-22.833 23.333 -35.5 28s-22.334 7 -29.001 7c-16.667 0 -32.667 -5.66699 -48 -17c-14 -10.667 -23 -22.167 -27 -34.5s-6 -23.5 -6 -33.5c-0.666992 -12.667 1.16602 -24.667 5.49902 -36
s10.333 -21.333 18 -30s16.5 -15.167 26.5 -19.5s20.333 -5.83301 31 -4.5z" />
    <glyph glyph-name="nine" unicode="9" 
d="M116 -11c-16 0 -28.001 0.667969 -36.001 2.00098l13 107c6 -1.33301 13 -2 21 -2c56.667 0 101.334 14.667 134.001 44s55.334 71 68.001 125c-11.333 -8 -25.333 -14.333 -42 -19s-33.334 -7 -50.001 -7c-30.667 0 -57.667 5.33301 -81 16s-43 25.667 -59 45
s-28 42 -36 68s-12 54.667 -12 86c0 46 10.667 86.667 32 122c21.333 36 48.5 61.333 81.5 76s67.5 22 103.5 22c50 0 92.667 -14.833 128 -44.5s59 -65.167 71 -106.5c6.66699 -20.667 11.167 -40.334 13.5 -59.001s3.5 -36.667 3.5 -54
c0 -59.333 -7.66699 -114.5 -23 -165.5s-37.833 -95.5 -67.5 -133.5s-66.5 -67.833 -110.5 -89.5s-94.667 -32.5 -152 -32.5zM254.999 351.001c14.667 0 28.498 1.5 41.498 4.5s25.5 8.16699 37.5 15.5c4 20 6 38.333 6 55c0 38 -6.66699 67.167 -20 87.5
s-26.666 33 -39.999 38s-22.666 7.5 -27.999 7.5c-22.667 0 -41 -7.66699 -55 -23s-22.333 -30.5 -25 -45.5s-4 -26.833 -4 -35.5c0 -30 7.5 -54.833 22.5 -74.5s36.5 -29.5 64.5 -29.5z" />
    <glyph glyph-name="colon" unicode=":" horiz-adv-x="211" 
d="M106 344c-23.333 0 -40.833 7.5 -52.5 22.5s-17.5 31.5 -17.5 49.5c0 18.667 5.83301 35.5 17.5 50.5s29.167 22.5 52.5 22.5s40.666 -7.5 51.999 -22.5s17 -31.833 17 -50.5c0 -18 -5.66699 -34.5 -17 -49.5s-28.666 -22.5 -51.999 -22.5zM106 -11
c-23.333 0 -40.833 7.5 -52.5 22.5s-17.5 31.5 -17.5 49.5c0 18.667 5.83301 35.5 17.5 50.5s29.167 22.5 52.5 22.5s40.666 -7.5 51.999 -22.5s17 -31.833 17 -50.5c0 -18 -5.66699 -34.5 -17 -49.5s-28.666 -22.5 -51.999 -22.5z" />
    <glyph glyph-name="semicolon" unicode=";" horiz-adv-x="207" 
d="M71 -120l-33 45c11.333 9.33301 22 20.5 32 33.5s15.667 25.167 17 36.5c-16 1.33301 -30.167 8.83301 -42.5 22.5s-18.5 30.5 -18.5 50.5c0 18.667 6 35.167 18 49.5s29.333 21.5 52 21.5c23.333 0 41.333 -8.33301 54 -25s19 -38 19 -64
c0 -24.667 -7.33301 -52.167 -22 -82.5s-40 -59.5 -76 -87.5zM106 344c-23.333 0 -40.833 7.5 -52.5 22.5s-17.5 31.5 -17.5 49.5c0 18.667 5.83301 35.5 17.5 50.5s29.167 22.5 52.5 22.5s40.666 -7.5 51.999 -22.5s17 -31.833 17 -50.5c0 -18 -5.66699 -34.5 -17 -49.5
s-28.666 -22.5 -51.999 -22.5z" />
    <glyph glyph-name="less" unicode="&#x3c;" 
d="M466 129l-444 162v83l431 153l37 -108l-250 -85l260 -94z" />
    <glyph glyph-name="equal" unicode="=" 
d="M22 155v110h468v-110h-468zM22 370v110h468v-110h-468z" />
    <glyph glyph-name="greater" unicode="&#x3e;" 
d="M47 129l-34 111l260 94l-250 85l38 108l430 -153v-83z" />
    <glyph glyph-name="question" unicode="?" horiz-adv-x="401" 
d="M190 -11c-22.667 0 -41.167 8.16699 -55.5 24.5s-21.5 35.166 -21.5 56.499s7.16699 40.166 21.5 56.499s32.833 24.5 55.5 24.5c23.333 0 42.166 -8.16699 56.499 -24.5s21.5 -35.166 21.5 -56.499s-7.16699 -40.166 -21.5 -56.499s-33.166 -24.5 -56.499 -24.5z
M130 211l-0.000976562 42.002c0 27.333 6.5 51.666 19.5 72.999s32.833 45.333 59.5 72c16 16 30.167 32.167 42.5 48.5s18.5 36.166 18.5 59.499c0 20.667 -6.66699 37 -20 49s-32.333 18 -57 18c-18 0 -37.333 -6.16699 -58 -18.5s-42 -32.5 -64 -60.5l-76 78
c18.667 25.333 41 46 67 62c28 18 53.833 30.333 77.5 37s45.5 10 65.5 10c48 0 87.333 -10.667 118 -32c22 -17.333 38.333 -34.833 49 -52.5s17.334 -34.5 20.001 -50.5s4 -28.333 4 -37c0 -32 -7 -60.667 -21 -86s-34 -52 -60 -80c-42.667 -44.667 -64 -80.667 -64 -108
v-24h-121z" />
    <glyph glyph-name="at" unicode="@" horiz-adv-x="721" 
d="M432 -157c-81.333 0 -148.502 14.332 -201.502 42.999s-93.167 65.667 -120.5 111c-26.667 46 -43.667 88.833 -51 128.5s-11 75.834 -11 108.501c0 86.667 17 163.667 51 231c35.333 68.667 79.666 116.334 132.999 143.001c54.667 28.667 111.334 43 170.001 43
c68.667 0 123 -14 163 -42c40.667 -26.667 66.334 -58 77.001 -94c11.333 -37.333 17 -68 17 -92v-389h-114v24c-13.333 -11.333 -29.166 -19.833 -47.499 -25.5s-35.5 -8.5 -51.5 -8.5c-56.667 0 -101 18.833 -133 56.5s-48 89.834 -48 156.501
c0 47.333 9.66699 87.666 29 120.999c14.667 24 31.834 42.333 51.501 55s38.334 21 56.001 25s31.167 6 40.5 6c23.333 0 43.333 -3.66699 60 -11s30.667 -14.333 42 -21c0 40 -11.333 72.5 -34 97.5s-60.334 37.5 -113.001 37.5c-40 0 -74.667 -8.83301 -104 -26.5
s-53.5 -41 -72.5 -70s-33.167 -62.333 -42.5 -100s-14 -76.5 -14 -116.5c0 -17.333 1.33301 -36.333 4 -57s7.66699 -41.334 15 -62.001s17.5 -40.834 30.5 -60.501s29.833 -37 50.5 -52s45.667 -27 75 -36s63.666 -13.5 102.999 -13.5c50 0 94.167 3.16699 132.5 9.5
s71.833 14.833 100.5 25.5l26 -109c-26 -9.33301 -63 -17.666 -111 -24.999s-100.667 -11 -158 -11zM458.998 126.999c18.667 0 34.668 2.50098 48.001 7.50098s25.666 13.5 36.999 25.5v152c-33.333 19.333 -62 29 -86 29c-52.667 0 -79 -33.333 -79 -100
c0 -38.667 7.5 -67.334 22.5 -86.001s34.167 -28 57.5 -28z" />
    <glyph glyph-name="A" unicode="A" horiz-adv-x="608" 
d="M0 0l240 667h127l241 -667h-131l-46 134h-255l-45 -134h-131zM215 247h178l-89 263z" />
    <glyph glyph-name="B" unicode="B" horiz-adv-x="568" 
d="M73 0v667.001h226c48.667 0 90.667 -11 126 -33c34 -21.333 56.667 -46.333 68 -75c10 -27.333 15 -51.333 15 -72c0 -30 -6.66699 -56 -20 -78s-32.333 -40.667 -57 -56c34 -12.667 61.333 -32.834 82 -60.501s31 -62.5 31 -104.5c0 -35.333 -9.5 -69 -28.5 -101
s-47.833 -55.667 -86.5 -71c-14 -5.33301 -29.5 -9.33301 -46.5 -12s-33.5 -4 -49.5 -4h-260zM200 114.001h90.999c22 0 39.333 1 52 3s23 5.33301 31 10c14 8 24.167 17.833 30.5 29.5s9.5 23.834 9.5 36.501c0 14.667 -4 29 -12 43s-19.667 25.333 -35 34
c-10 5.33301 -21.667 9.16602 -35 11.499s-27.666 3.5 -42.999 3.5h-89v-171zM199.999 394.001l62 -0.000976562c36 0 59.667 3 71 9c16 8 27.667 18.167 35 30.5s11 25.166 11 38.499c0 16 -5 30.833 -15 44.5s-24.667 23.834 -44 30.501c-1.33301 0 -4.5 0.333008 -9.5 1
s-10.833 1.33398 -17.5 2.00098l-21 2c-7.33301 0.666992 -14 1 -20 1h-52v-159z" />
    <glyph glyph-name="C" unicode="C" horiz-adv-x="571" 
d="M330 -14c-42 0 -80.5039 7.33398 -115.504 22.001s-65.333 36.5 -91 65.5s-45.5 65 -59.5 108s-21 92.833 -21 149.5c0 60 8.16699 111.833 24.5 155.5s37.833 80 64.5 109s57.167 50.5 91.5 64.5s69.5 21 105.5 21c45.333 0 85 -8.33301 119 -25
s58.667 -34.334 74 -53.001s25 -32 29 -40l-94 -79c-3.33301 6 -8.16602 13.5 -14.499 22.5s-14.666 17.667 -24.999 26s-22.666 15.5 -36.999 21.5s-30.833 9 -49.5 9c-21.333 0 -41.5 -4.5 -60.5 -13.5s-35.833 -23 -50.5 -42s-26.167 -43 -34.5 -72
s-12.5 -63.833 -12.5 -104.5c0 -72.667 15.667 -128.5 47 -167.5s73 -58.5 125 -58.5c38 0 70.667 6.5 98 19.5s47 25.5 59 37.5l41 -111c-15.333 -18 -46.166 -33.333 -92.499 -46s-86.5 -19 -120.5 -19z" />
    <glyph glyph-name="D" unicode="D" horiz-adv-x="628" 
d="M73 0l-0.000976562 667.001h188c24 0 50.667 -2 80 -6s57.333 -12 84 -24c42 -20.667 76 -51.334 102 -92.001c26.667 -40 43.334 -79 50.001 -117c6.66699 -44.667 10 -75 10 -91c0 -58 -11.5 -111.833 -34.5 -161.5s-46.667 -84.5 -71 -104.5s-43.5 -32.333 -57.5 -37
c-45.333 -22.667 -98 -34 -158 -34h-193zM200.999 120.001l52 -0.000976562c46.667 0 84.667 8.33301 114 25c30.667 16.667 53.334 42.167 68.001 76.5s22 70.833 22 109.5c0 38 -6.66699 73.833 -20 107.5s-34 59.834 -62 78.501c-14.667 10 -32.834 17.5 -54.501 22.5
s-43.167 7.5 -64.5 7.5h-55v-427z" />
    <glyph glyph-name="E" unicode="E" horiz-adv-x="557" 
d="M73 0v667h435v-121h-307v-152h254v-121h-254v-152h329v-121h-457z" />
    <glyph glyph-name="F" unicode="F" horiz-adv-x="509" 
d="M73 0v667h431v-121h-303v-158h242v-119h-242v-269h-128z" />
    <glyph glyph-name="G" unicode="G" horiz-adv-x="608" 
d="M338 -14c-43.333 0 -83.166 7.66309 -119.499 22.9961s-67.5 37.833 -93.5 67.5s-46.167 65.834 -60.5 108.501s-21.5 91.334 -21.5 146.001c0 60 7.66699 111.833 23 155.5s36 80 62 109s55.833 50.5 89.5 64.5s69.167 21 106.5 21c58.667 0 106 -10.833 142 -32.5
s63.333 -49.5 82 -83.5l-88 -81c-12.667 22 -30.667 40.667 -54 56s-50.333 23 -81 23c-35.333 0.666992 -65.333 -12.333 -90 -39c-25.333 -26 -42.333 -57.333 -51 -94c-4.66699 -18.667 -7.83398 -36.167 -9.50098 -52.5s-2.16699 -31.833 -1.5 -46.5
c0 -50.667 9 -95 27 -133c10 -21.333 21.5 -38.166 34.5 -50.499s26.333 -21.666 40 -27.999s26.667 -10.333 39 -12s22.833 -2.5 31.5 -2.5c26.667 0 48.167 1.5 64.5 4.5s25.833 5.16699 28.5 6.5v120h-104v115h224v-321c-16.667 -10.667 -44 -20.667 -82 -30
s-84 -14 -138 -14z" />
    <glyph glyph-name="H" unicode="H" horiz-adv-x="655" 
d="M73 0v667h128v-264h252v264h128v-667h-128v282h-252v-282h-128z" />
    <glyph glyph-name="I" unicode="I" horiz-adv-x="275" 
d="M73 0v667h128v-667h-128z" />
    <glyph glyph-name="J" unicode="J" horiz-adv-x="425" 
d="M171 -14c-35.333 0 -66.332 4.83203 -92.999 14.499s-46 18.167 -58 25.5l37 107c6 -7.33301 16.833 -14 32.5 -20s28.667 -9.66699 39 -11s19.5 -2 27.5 -2c23.333 0 41.833 5.83301 55.5 17.5s20.5 33.834 20.5 66.501v483h128v-484
c0 -66.667 -15.833 -116.167 -47.5 -148.5s-78.834 -48.5 -141.501 -48.5z" />
    <glyph glyph-name="K" unicode="K" horiz-adv-x="589" 
d="M73 0l0.000976562 667h128v-269h67c12.667 0 23.667 3.16699 33 9.5s19 21.166 29 44.499l95 215h135l-105 -233c-9.33301 -20 -18.333 -35.333 -27 -46s-19.334 -19.667 -32.001 -27c15.333 -8 27.833 -18 37.5 -30s18.167 -27.667 25.5 -47l113 -284h-139l-82 208
c-10.667 26.667 -21 46.334 -31 59.001s-24.667 19 -44 19h-75v-286h-128z" />
    <glyph glyph-name="L" unicode="L" horiz-adv-x="531" 
d="M73 0v667h128v-546h310v-121h-438z" />
    <glyph glyph-name="M" unicode="M" horiz-adv-x="750" 
d="M340 -4l-138 401l-18 -397h-127l32 667h131l163 -474l146 474h132l32 -667h-127l-18 393l-123 -397h-85z" />
    <glyph glyph-name="N" unicode="N" horiz-adv-x="660" 
d="M73 0v667h131l257 -416v416h126v-667h-112l-275 441v-441h-127z" />
    <glyph glyph-name="O" unicode="O" horiz-adv-x="672" 
d="M334 -14c-48.667 0 -91.168 10.1641 -127.501 30.4971s-66.666 46.833 -90.999 79.5s-42.5 69.834 -54.5 111.501s-18 83.834 -18 126.501s6 84.834 18 126.501s30.167 78.834 54.5 111.501s54.666 59 90.999 79s78.833 30 127.5 30c68 0 125.667 -20 173 -60
s79.333 -87.333 96 -142c17.333 -57.333 26 -105.666 26 -144.999c0 -42.667 -6.16699 -84.834 -18.5 -126.501s-30.666 -78.834 -54.999 -111.501s-55 -59.167 -92 -79.5s-80.167 -30.5 -129.5 -30.5zM333.999 104.997c26.667 0 51.334 7.16602 74.001 21.499
s39.667 31.333 51 51s19.666 38.834 24.999 57.501c10 36.667 15 69.667 15 99c0 44 -8 85 -24 123c-15.333 38 -36 65.167 -62 81.5s-52.333 24.5 -79 24.5c-26 0 -49.167 -6.33301 -69.5 -19s-37.333 -29.667 -51 -51s-24 -45.833 -31 -73.5s-10.5 -56.167 -10.5 -85.5
s3.5 -57.833 10.5 -85.5s17.333 -52.167 31 -73.5s30.667 -38.333 51 -51s43.5 -19 69.5 -19z" />
    <glyph glyph-name="P" unicode="P" horiz-adv-x="549" 
d="M73 0l0.00292969 666.999h200c32 0 61.667 -2.16699 89 -6.5s53.666 -12.833 78.999 -25.5c32 -16 55.667 -39.833 71 -71.5s23 -65.5 23 -101.5c0 -35.333 -7.66699 -69.166 -23 -101.499s-31.833 -55.833 -49.5 -70.5s-30.834 -23 -39.501 -25
c-22.667 -9.33301 -45.334 -15.833 -68.001 -19.5s-45.667 -5.5 -69 -5.5h-87v-240h-126zM199.003 354.999l71 0.000976562c18 0 34.5 1 49.5 3s27.833 5.66699 38.5 11c18 8.66699 31 20.667 39 36s12 31.666 12 48.999c0 18.667 -4.5 36 -13.5 52s-22.5 27.333 -40.5 34
c-23.333 8 -50 12 -80 12h-76v-197z" />
    <glyph glyph-name="Q" unicode="Q" horiz-adv-x="682" 
d="M629 -30c-3.33301 6 -13.333 18.1621 -30 36.4951s-38 39.833 -64 64.5c-24 -26 -52.5 -46.667 -85.5 -62s-71.5 -23 -115.5 -23c-48.667 0 -91.167 10.167 -127.5 30.5s-66.666 46.833 -90.999 79.5s-42.5 69.834 -54.5 111.501s-18 83.834 -18 126.501
s6 84.834 18 126.501s30.167 78.834 54.5 111.501s54.666 59 90.999 79s78.833 30 127.5 30c68 0 125.667 -20 173 -60s79.333 -87.333 96 -142c17.333 -57.333 26 -105.666 26 -144.999c0 -30 -3 -59.667 -9 -89s-15 -57.333 -27 -84c32 -28 57.167 -52.667 75.5 -74
s29.5 -35.333 33.5 -42zM334 104.995c39.333 0 73 14 101 42c-23.333 15.333 -58 33 -104 53l40 94c21.333 -7.33301 41.833 -16 61.5 -26s37.167 -20.333 52.5 -31c9.33301 32 14 64.333 14 97c0 44 -8 85 -24 123c-15.333 38 -36 65.167 -62 81.5s-52.333 24.5 -79 24.5
c-26 0 -49.167 -6.33301 -69.5 -19s-37.333 -29.667 -51 -51s-24 -45.833 -31 -73.5s-10.5 -56.167 -10.5 -85.5s3.5 -57.833 10.5 -85.5s17.333 -52.167 31 -73.5s30.667 -38.333 51 -51s43.5 -19 69.5 -19z" />
    <glyph glyph-name="R" unicode="R" horiz-adv-x="588" 
d="M73 0l0.00292969 667h233c49.333 0 93 -10.333 131 -31s63.333 -46.334 76 -77.001c11.333 -29.333 17 -59.333 17 -90c0 -34 -7.66699 -65.333 -23 -94s-39 -52.667 -71 -72c18.667 -9.33301 33.667 -22.666 45 -39.999s22.666 -44.333 33.999 -81l50 -182h-133l-50 167
c-8 22 -15.333 40 -22 54c-4.66699 10 -12.834 17.333 -24.501 22s-24.834 7 -39.501 7h-97v-250h-126zM199.003 365h90c76 0 114 30.333 114 91c0 32 -9 55.833 -27 71.5s-47 23.5 -87 23.5h-90v-186z" />
    <glyph glyph-name="S" unicode="S" horiz-adv-x="521" 
d="M257 -14c-30 0 -57.6689 2.66699 -83.002 8s-47.666 11.5 -66.999 18.5s-35.5 14.167 -48.5 21.5s-22.5 13.333 -28.5 18l54 111c6 -5.33301 14.333 -11.666 25 -18.999s23.167 -14.333 37.5 -21s30.666 -12.167 48.999 -16.5s38.5 -6.5 60.5 -6.5c32 0 57.167 7 75.5 21
s27.5 32.667 27.5 56c0 28 -9 49.667 -27 65c-19.333 16 -58.666 34.333 -117.999 55c-49.333 14 -88.333 32.667 -117 56c-20 16.667 -34.833 34.667 -44.5 54s-14.834 36.166 -15.501 50.499s-0.666992 26.833 0 37.5c0 42 10.333 77.333 31 106
c20.667 30 48.667 50.833 84 62.5s71.333 17.5 108 17.5c36 0 69.167 -5 99.5 -15s55.833 -22.333 76.5 -37s36 -27.667 46 -39l-67 -89c-12.667 14 -31.667 27 -57 39s-46.666 20.167 -63.999 24.5s-30.333 6.16602 -39 5.49902c-34.667 0 -59 -6.83301 -73 -20.5
s-21 -30.167 -21 -49.5c0 -23.333 8 -41 24 -53c8.66699 -6 21.5 -13 38.5 -21s38.833 -16.667 65.5 -26c59.333 -20.667 103.666 -43.667 132.999 -69c29.333 -24.667 47 -49.667 53 -75c5.33301 -23.333 9 -48 11 -74c0 -45.333 -13.667 -84.666 -41 -117.999
c-27.333 -32 -58.666 -53 -93.999 -63s-66.666 -15 -93.999 -15z" />
    <glyph glyph-name="T" unicode="T" horiz-adv-x="516" 
d="M194 0v546h-189v121h506v-121h-189v-546h-128z" />
    <glyph glyph-name="U" unicode="U" horiz-adv-x="653" 
d="M326 -14c-56.667 0 -105.335 12.333 -146.002 37c-41.333 25.333 -70.166 56.5 -86.499 93.5s-24.5 74.5 -24.5 112.5v438h128v-425c0 -40 11.167 -72.833 33.5 -98.5s54.5 -38.5 96.5 -38.5s73.833 12.833 95.5 38.5s32.5 58.5 32.5 98.5v425h128v-438
c0 -38 -6.66699 -72 -20 -102s-31.666 -55.5 -54.999 -76.5s-50.5 -37 -81.5 -48s-64.5 -16.5 -100.5 -16.5z" />
    <glyph glyph-name="V" unicode="V" horiz-adv-x="598" 
d="M246 0l-246 667h137l169 -505l166 505h126l-233 -667h-119z" />
    <glyph glyph-name="W" unicode="W" horiz-adv-x="759" 
d="M136 0l-126 667h127l76 -450l108 450h117l113 -450l75 450h123l-127 -667h-127l-118 480l-113 -480h-128z" />
    <glyph glyph-name="X" unicode="X" horiz-adv-x="550" 
d="M0 0l206 347l-192 320h145l116 -203l115 203h145l-191 -320l206 -347h-143l-132 230l-132 -230h-143z" />
    <glyph glyph-name="Y" unicode="Y" horiz-adv-x="552" 
d="M214 0v268l-214 399h143l137 -265l131 265h141l-210 -399v-268h-128z" />
    <glyph glyph-name="Z" unicode="Z" horiz-adv-x="538" 
d="M25 0v110l323 436h-296v121h453v-114l-320 -432h326v-121h-486z" />
    <glyph glyph-name="bracketleft" unicode="[" horiz-adv-x="300" 
d="M63 -143v879h222v-110h-104v-659h104v-110h-222z" />
    <glyph glyph-name="backslash" unicode="\" horiz-adv-x="516" 
d="M420 -32l-420 745l94 53l422 -741z" />
    <glyph glyph-name="bracketright" unicode="]" horiz-adv-x="300" 
d="M15 -143v110h105v659h-105v110h222v-879h-222z" />
    <glyph glyph-name="asciicircum" unicode="^" horiz-adv-x="524" 
d="M173 283l-115 39l157 345h92l160 -330l-111 -45l-95 213z" />
    <glyph glyph-name="underscore" unicode="_" horiz-adv-x="500" 
d="M0 -220v70h500v-70h-500z" />
    <glyph glyph-name="grave" unicode="`" horiz-adv-x="420" 
d="M302 538l-217 112l59 83l191 -141z" />
    <glyph glyph-name="a" unicode="a" horiz-adv-x="488" 
d="M191 -11c-20.667 0 -40.498 3.50098 -59.498 10.501s-35.833 17 -50.5 30s-26.5 29 -35.5 48s-13.5 40.5 -13.5 64.5c0 26 5.5 48.5 16.5 67.5s25.333 35 43 48s36.667 23 57 30s38.833 11.5 55.5 13.5c9.33301 1.33301 42.666 5.33301 99.999 12v7
c0 26.667 -6.83301 45.667 -20.5 57s-32.5 17 -56.5 17s-47 -5.16699 -69 -15.5s-38.667 -20.5 -50 -30.5l-41 87c14 14 40 27.333 78 40c40 12.667 74.333 19 103 19c30.667 0 57.5 -4.66699 80.5 -14s42 -22.5 57 -39.5s26 -36.833 33 -59.5s10.5 -46.334 10.5 -71.001
v-310h-114l-5 36c-13.333 -14.667 -30.333 -26.167 -51 -34.5s-43.334 -12.5 -68.001 -12.5zM220.002 92.001c16 0 31.5 3.33301 46.5 10s27.833 15 38.5 25v98c-40.667 -4.66699 -67.667 -8 -81 -10c-26.667 -5.33301 -45.167 -14.5 -55.5 -27.5s-15.5 -27.167 -15.5 -42.5
c0 -16 5.83301 -28.833 17.5 -38.5s28.167 -14.5 49.5 -14.5z" />
    <glyph glyph-name="b" unicode="b" horiz-adv-x="525" 
d="M243 -11c-32 0 -62.668 3.66699 -92.001 11s-59 17.333 -89 30v637h124v-184c32.667 7.33301 59.667 11 81 11c55.333 0 100.333 -14.333 135 -43c35.333 -29.333 59 -62.333 71 -99c12.667 -35.333 19 -69.333 19 -102c0 -46.667 -6.66699 -86.5 -20 -119.5
s-31.333 -60 -54 -81s-49.167 -36.333 -79.5 -46s-62.166 -14.5 -95.499 -14.5zM237.999 94c40 0 72.167 13 96.5 39s36.5 64 36.5 114c0 47.333 -12 82.833 -36 106.5s-53.333 35.5 -88 35.5c-16.667 0 -37 -3.66699 -61 -11v-275c26 -6 43.333 -9 52 -9z" />
    <glyph glyph-name="c" unicode="c" horiz-adv-x="463" 
d="M257 -11c-29.333 0 -57.501 5 -84.501 15s-50.833 25.333 -71.5 46s-37.167 46.667 -49.5 78s-18.5 68.333 -18.5 111c0 60 12 110.667 36 152c24.667 40.667 54.334 68 89.001 82s66.667 21 96 21c50.667 0 91.334 -12 122.001 -36s53 -49.667 67 -77l-92 -62
c-10 17.333 -22.5 33.5 -37.5 48.5s-34.5 22.5 -58.5 22.5c-26.667 0 -49.834 -11.833 -69.501 -35.5s-29.5 -60.5 -29.5 -110.5c0 -48 10 -84.667 30 -110s49 -38 87 -38c34 0 61.167 5.16699 81.5 15.5s35.833 20.833 46.5 31.5l36 -102
c-18 -13.333 -42.5 -25.333 -73.5 -36s-66.5 -16 -106.5 -16z" />
    <glyph glyph-name="d" unicode="d" horiz-adv-x="529" 
d="M238 -11c-33.333 0 -62.667 7 -88 21s-46.666 32.667 -63.999 56s-30.5 50.333 -39.5 81s-13.5 62.667 -13.5 96c0 51.333 10.333 96.333 31 135c15.333 31.333 36.5 55.833 63.5 73.5s52.667 29.334 77 35.001s43.5 8.16699 57.5 7.5
c23.333 0 50.666 -4.66699 81.999 -14v187h123v-667h-113l-5 37c-11.333 -12.667 -26.333 -23.834 -45 -33.501s-40.667 -14.5 -66 -14.5zM262.999 95c15.333 0 30.999 4.16699 46.999 12.5s27.333 18.166 34 29.499v238c-26 9.33301 -48.333 14 -67 14
c-34.667 0 -62.5 -11.167 -83.5 -33.5s-33.167 -44.166 -36.5 -65.499s-4.33301 -36 -3 -44c0 -20 2.16699 -39.167 6.5 -57.5s11 -34.333 20 -48s20.333 -24.667 34 -33s29.834 -12.5 48.501 -12.5z" />
    <glyph glyph-name="e" unicode="e" horiz-adv-x="499" 
d="M267 -11c-31.333 0 -61.1689 5.00391 -89.502 15.0039s-53.166 25.5 -74.499 46.5s-38.333 47.167 -51 78.5s-19 68.666 -19 111.999c0 40.667 5.83301 76.667 17.5 108s27.667 57.666 48 78.999s44 37.666 71 48.999s55.833 17 86.5 17c54 0 98 -15 132 -45
c34.667 -30 57 -65.333 67 -106c10 -40 15 -77 15 -111v-22h-312c2.66699 -40.667 15.334 -70 38.001 -88s52 -27 88 -27c32 0 60 5 84 15s40.333 19.333 49 28l33 -101c-14.667 -10.667 -28.667 -18.334 -42 -23.001c-8 -4 -27.667 -9 -59 -15
c-30.667 -6.66699 -58 -10 -82 -10zM160.997 299.004l182.999 -0.000976562c-2 27.333 -9.83301 48.333 -23.5 63s-26.834 23.834 -39.501 27.501s-21 5.5 -25 5.5c-21.333 0 -41.666 -8 -60.999 -24s-30.666 -40 -33.999 -72z" />
    <glyph glyph-name="f" unicode="f" horiz-adv-x="318" 
d="M79 0v381.999h-64v100h64v26c0 46.667 9.66699 83.667 29 111c18.667 28 40.667 45 66 51c24 6.66699 45.333 10 64 10c30 0 54.833 -2.83301 74.5 -8.5s31.167 -9.5 34.5 -11.5l-14 -103c-4 2 -11.833 4.83301 -23.5 8.5s-27.167 5.5 -46.5 5.5
c-17.333 0 -31.833 -5.16699 -43.5 -15.5s-17.5 -27.166 -17.5 -50.499v-23h104v-100h-103v-382h-124z" />
    <glyph glyph-name="g" unicode="g" horiz-adv-x="526" 
d="M246 -198c-21.333 0 -41.833 1.16895 -61.5 3.50195s-38.834 5.83301 -57.501 10.5c-34.667 8.66699 -58 16 -70 22l26 109c16.667 -9.33301 38.667 -18 66 -26s56.333 -12 87 -12c36 0 62.333 6.66699 79 20s25 30.666 25 51.999v28c-23.333 -6 -46 -9 -68 -9
c-39.333 0 -73.833 6.5 -103.5 19.5s-54.5 30.667 -74.5 53s-35.167 48.5 -45.5 78.5s-15.5 62 -15.5 96c0 52.667 12 98.667 36 138c24.667 40 56.834 68.167 96.501 84.5s81.834 24.5 126.501 24.5c34.667 0 67.667 -1.83301 99 -5.5s56 -7.16699 74 -10.5v-466
c0 -68.667 -18.833 -120.834 -56.5 -156.501s-91.834 -53.5 -162.501 -53.5zM290 107.002c12 0 21.834 1.33301 29.501 4s14.5 5.66699 20.5 9v266c-17.333 2.66699 -33 4 -47 4c-39.333 0 -70.333 -10 -93 -30c-14 -12.667 -24.833 -27 -32.5 -43s-11.834 -30 -12.501 -42
s-1 -21.333 -1 -28c0 -42 11.167 -75.833 33.5 -101.5s56.5 -38.5 102.5 -38.5z" />
    <glyph glyph-name="h" unicode="h" horiz-adv-x="548" 
d="M62 0l-0.00195312 666.999h124v-217c15.333 12 33.5 22.333 54.5 31s46.5 13 76.5 13c46.667 0.666992 83.834 -11.666 111.501 -36.999s44.5 -54.333 50.5 -87c6.66699 -31.333 10 -59.333 10 -84v-286h-124v277c0 40 -7.83301 68.833 -23.5 86.5s-33.5 26.5 -53.5 26.5
s-38.167 -4.5 -54.5 -13.5s-32.166 -20.167 -47.499 -33.5v-343h-124z" />
    <glyph glyph-name="i" unicode="i" horiz-adv-x="247" 
d="M62 0v482h123v-482h-123zM124 527c-25.333 0 -44.166 7.33301 -56.499 22s-18.5 31 -18.5 49c0 17.333 6.16699 33.333 18.5 48s31.166 22 56.499 22c24.667 0 43.167 -7.33301 55.5 -22s18.5 -30.667 18.5 -48c0 -18 -6.16699 -34.333 -18.5 -49s-30.833 -22 -55.5 -22z
" />
    <glyph glyph-name="j" unicode="j" horiz-adv-x="257" 
d="M51 -203l-55 97c28 18.667 47.5 37.667 58.5 57s16.5 42 16.5 68v463h124v-463c0 -55.333 -11.5 -100.333 -34.5 -135s-59.5 -63.667 -109.5 -87zM134 527c-24.667 0 -43.167 7.33301 -55.5 22s-18.5 31 -18.5 49c0 17.333 6.16699 33.333 18.5 48s30.833 22 55.5 22
c24 0 42.167 -7.33301 54.5 -22s18.5 -30.667 18.5 -48c0 -18 -6.16699 -34.333 -18.5 -49s-30.5 -22 -54.5 -22z" />
    <glyph glyph-name="k" unicode="k" horiz-adv-x="500" 
d="M62 0l-0.000976562 666.999h124v-348h30c12 0 22.667 3.5 32 10.5s19 22.167 29 45.5l44 107h134l-58 -135c-13.333 -30 -32 -52.667 -56 -68c14.667 -7.33301 26.834 -16.166 36.501 -26.499s17.834 -23.5 24.501 -39.5l88 -213h-135l-55 130
c-12.667 30 -23.834 51 -33.501 63s-23.5 18 -41.5 18h-39v-211h-124z" />
    <glyph glyph-name="l" unicode="l" horiz-adv-x="308" 
d="M190 -11c-27.333 0 -49.5 4.16602 -66.5 12.499s-30.167 19 -39.5 32s-15.333 27.167 -18 42.5s-4 29 -4 41v550h124v-526c0 -17.333 3.5 -29.166 10.5 -35.499s16.833 -9.5 29.5 -9.5s26 3 40 9l22 -94c-2.66699 -2.66699 -14.667 -7 -36 -13c-20 -6 -40.667 -9 -62 -9z
" />
    <glyph glyph-name="m" unicode="m" horiz-adv-x="837" 
d="M62 0l0.000976562 482.001h114l5 -36c14.667 13.333 32.834 24.666 54.501 33.999s43.5 14 65.5 14c22.667 0 45.167 -3.5 67.5 -10.5s43.166 -19.167 62.499 -36.5c22 13.333 46.167 24.5 72.5 33.5s54.5 13.5 84.5 13.5c54.667 0 96.667 -12 126 -36
c30 -25.333 48 -53.666 54 -84.999c6.66699 -30.667 10 -58.667 10 -84v-289h-123v283c0 32 -6 57.833 -18 77.5s-34.333 29.5 -67 29.5c-16 0 -33.167 -4.33301 -51.5 -13s-32.833 -17.334 -43.5 -26.001c4 -24 6 -44 6 -60v-291h-124v283c0 36 -6.66699 62.833 -20 80.5
s-32 26.5 -56 26.5c-18.667 0 -36.334 -5 -53.001 -15s-30.667 -20.667 -42 -32v-343h-124z" />
    <glyph glyph-name="n" unicode="n" horiz-adv-x="552" 
d="M62 0v482h113l6 -38c19.333 16 41.166 28.333 65.499 37s48.833 13 73.5 13c38.667 0 71.667 -8.66699 99 -26s46.5 -42.833 57.5 -76.5s16.5 -69.167 16.5 -106.5v-285h-124v275c0 36.667 -7.5 65 -22.5 85s-36.5 30 -64.5 30c-19.333 0 -37.166 -5 -53.499 -15
s-30.5 -21 -42.5 -33v-342h-124z" />
    <glyph glyph-name="o" unicode="o" horiz-adv-x="528" 
d="M264 -11c-38.667 0 -72.501 7.33496 -101.501 22.002s-53 34 -72 58s-33.333 51.167 -43 81.5s-14.5 61.166 -14.5 92.499c0 48.667 10.667 93.667 32 135c22 41.333 51 71 87 89s73.333 27 112 27c54 0 99.667 -14.667 137 -44
c36.667 -28.667 61.334 -62.667 74.001 -102c13.333 -41.333 20 -76.333 20 -105c0 -48.667 -11 -94 -33 -136c-16.667 -32.667 -38.5 -58.334 -65.5 -77.001s-52.167 -30.167 -75.5 -34.5s-42.333 -6.5 -57 -6.5zM263.999 96.002c21.333 -1.33301 39.333 3.83496 54 15.502
s26.167 25.5 34.5 41.5s14.166 32.5 17.499 49.5s4.33301 30.5 3 40.5c0 36 -7.5 66.333 -22.5 91s-31 40.167 -48 46.5s-29.833 9.16602 -38.5 8.49902c-28 0 -51.333 -10 -70 -30c-15.333 -16.667 -25.666 -35.167 -30.999 -55.5s-8 -40.5 -8 -60.5
c0 -20.667 2.33301 -39.834 7 -57.501s11.5 -33.167 20.5 -46.5s20.333 -23.833 34 -31.5s29.5 -11.5 47.5 -11.5z" />
    <glyph glyph-name="p" unicode="p" horiz-adv-x="526" 
d="M62 -189v671.002h113l6 -36c11.333 11.333 26.5 22.166 45.5 32.499s41.5 15.5 67.5 15.5c46 0 85 -14 117 -42s53.667 -62 65 -102c11.333 -41.333 17 -77.333 17 -108c0 -50.667 -11.333 -96.834 -34 -138.501s-52.667 -71.167 -90 -88.5s-77 -26 -119 -26
c-20 0 -41.333 4.66699 -64 14v-192h-124zM243 97.002c24.667 -0.666992 45.4971 3.99902 62.4971 13.999s30.5 22.333 40.5 37s17 30.334 21 47.001s5.66699 31.667 5 45c0.666992 29.333 -5 57 -17 83c-11.333 26 -25.666 44 -42.999 54s-32 14.333 -44 13
c-17.333 0 -33.666 -4.83301 -48.999 -14.5s-26.666 -20.167 -33.999 -31.5v-233c22 -9.33301 41.333 -14 58 -14z" />
    <glyph glyph-name="q" unicode="q" horiz-adv-x="526" 
d="M340 -189v187.001c-23.333 -6 -46 -9 -68 -9c-39.333 0 -73.833 6.83301 -103.5 20.5s-54.5 32 -74.5 55s-35.167 49.833 -45.5 80.5s-15.5 63 -15.5 97c0 50.667 11.667 96.667 35 138c24 41.333 56.167 70.666 96.5 87.999s82.833 26 127.5 26
c24.667 0 51.5 -1.5 80.5 -4.5s59.833 -6.83301 92.5 -11.5v-667h-125zM290 96.001c17.333 0 34 4 50 12v278c-17.333 2.66699 -33 4 -47 4c-27.333 0.666992 -50 -4.33301 -68 -15s-32.5 -23.667 -43.5 -39s-18.667 -31.666 -23 -48.999s-5.83301 -32.333 -4.5 -45
c0 -20.667 2.83301 -39.834 8.5 -57.501s14.167 -33 25.5 -46s25.5 -23.333 42.5 -31s36.833 -11.5 59.5 -11.5z" />
    <glyph glyph-name="r" unicode="r" horiz-adv-x="356" 
d="M62 0v482.001h113l8 -51c11.333 13.333 23.833 24.166 37.5 32.499s27.834 15.166 42.501 20.499s27.667 8 39 8c26 0 44 -2.33301 54 -7l-18 -108c-8.66699 2.66699 -22.667 4 -42 4c-23.333 0 -44.333 -6.16699 -63 -18.5s-34.334 -25.166 -47.001 -38.499v-324h-124z
" />
    <glyph glyph-name="s" unicode="s" horiz-adv-x="461" 
d="M238 -11c-17.333 0 -34.8359 1.16602 -52.5029 3.49902s-35.834 5.83301 -54.501 10.5c-36 9.33301 -61.333 18.666 -76 27.999s-23.667 16.666 -27 21.999l45 95c12.667 -13.333 30.667 -25.666 54 -36.999c23.333 -10 44.5 -16.667 63.5 -20s34.833 -5 47.5 -5
c30 0 50.833 4.33301 62.5 13s17.5 20.334 17.5 35.001c0 12.667 -7.66699 24 -23 34s-45 20.667 -89 32c-31.333 6.66699 -57.166 15 -77.499 25s-36.5 21.333 -48.5 34s-20.167 26.667 -24.5 42s-6.16602 31.666 -5.49902 48.999c0 42.667 15.833 77.334 47.5 104.001
s79.834 40 144.501 40c42 0 79.667 -6 113 -18c34 -11.333 57.667 -22.666 71 -33.999l-42 -90c-12.667 10 -31.334 20.333 -56.001 31s-53 16 -85 16c-29.333 0 -49.166 -4.66699 -59.499 -14s-15.5 -20.666 -15.5 -33.999c0 -16 6 -27.333 18 -34
c12.667 -6.66699 39.334 -14 80.001 -22c49.333 -8.66699 87 -23.334 113 -44.001s41.667 -41 47 -61s8 -36.667 8 -50c0 -40 -12.333 -72.333 -37 -97c-25.333 -24 -53.5 -39 -84.5 -45s-55.833 -9 -74.5 -9z" />
    <glyph glyph-name="t" unicode="t" horiz-adv-x="350" 
d="M208 -11c-42.667 0 -74.333 11.999 -95 35.999s-31 53 -31 87v270h-68v100h68v125h123v-125h111v-100h-111v-245c0 -15.333 3.66699 -26 11 -32s16 -9 26 -9c24.667 0 46 7 64 21l32 -89c-15.333 -11.333 -34.5 -20.666 -57.5 -27.999s-47.167 -11 -72.5 -11z" />
    <glyph glyph-name="u" unicode="u" horiz-adv-x="550" 
d="M232 -10c-56.667 0 -99.666 17 -128.999 51s-44 85.333 -44 154v287h124v-274c0 -33.333 6 -60.333 18 -81s32.667 -31 62 -31c24 0 44.333 4.83301 61 14.5s30 18.834 40 27.501v344h124v-482h-114l-4 38c-22 -18.667 -44.833 -31.334 -68.5 -38.001
s-46.834 -10 -69.501 -10z" />
    <glyph glyph-name="v" unicode="v" horiz-adv-x="506" 
d="M202 0l-202 482h132l126 -320l122 320h126l-196 -482h-108z" />
    <glyph glyph-name="w" unicode="w" horiz-adv-x="681" 
d="M158 0l-158 482h129l83 -305l78 305h100l79 -305l83 305h129l-158 -482h-100l-83 314l-81 -314h-101z" />
    <glyph glyph-name="x" unicode="x" horiz-adv-x="485" 
d="M3 0l172 238l-175 244h140l105 -149l106 149h127l-167 -235l174 -247h-139l-107 152l-105 -152h-131z" />
    <glyph glyph-name="y" unicode="y" horiz-adv-x="503" 
d="M37 -191l-10.9971 111.001c36 0 68.167 4.33301 96.5 13s50.166 22.667 65.499 42c2.66699 3.33301 5 7 7 11s4.33301 8 7 12l-198 484h133l134 -370c28.667 76 48 133 58 171c25.333 93.333 42.666 159.666 51.999 198.999h122
c-24.667 -98 -50.834 -186.667 -78.501 -266s-55.5 -147.333 -83.5 -204c-26.667 -50.667 -50.667 -90 -72 -118c-21.333 -26 -52.333 -46.5 -93 -61.5s-87 -22.833 -139 -23.5z" />
    <glyph glyph-name="z" unicode="z" horiz-adv-x="483" 
d="M34 0v89l262 293h-251v100h394v-94l-258 -289h266v-99h-413z" />
    <glyph glyph-name="braceleft" unicode="{" horiz-adv-x="279" 
d="M255 -62c-56.667 0.666992 -97.998 13.1631 -123.998 37.4961s-39 61.833 -39 112.5v128c0 24.667 -6.16699 43.334 -18.5 56.001s-31.833 21 -58.5 25v74c26.667 4 46.167 12.333 58.5 25s18.5 31.334 18.5 56.001v129c0 50.667 13 88 39 112s67.333 36.667 124 38
l9 -87c-28 -1.33301 -45.667 -8.83301 -53 -22.5s-11 -34.167 -11 -61.5v-108c0 -60 -21.333 -99.333 -64 -118c22 -11.333 38.167 -26.166 48.5 -44.499s15.5 -42.833 15.5 -73.5v-110c0 -11.333 0.666992 -21.833 2 -31.5s4.16602 -18.167 8.49902 -25.5
s10.666 -13.166 18.999 -17.499s19.833 -6.83301 34.5 -7.5z" />
    <glyph glyph-name="bar" unicode="|" horiz-adv-x="248" 
d="M67 -74v812h113v-812h-113z" />
    <glyph glyph-name="braceright" unicode="}" horiz-adv-x="275" 
d="M20 -62l-10 86.0029c26 0.666992 43.333 7.5 52 20.5s13 33.5 13 61.5v110c0 30.667 5.16699 55.167 15.5 73.5s26.5 33.166 48.5 44.499c-42.667 18.667 -64 58 -64 118v108c0.666992 30.667 -4 51.5 -14 62.5s-27 18.167 -51 21.5l10 87
c56.667 -1.33301 98 -14 124 -38s39 -61.333 39 -112v-129c0 -24.667 6.16699 -43.334 18.5 -56.001s31.833 -21 58.5 -25v-74c-26.667 -4 -46.167 -12.333 -58.5 -25s-18.5 -31.334 -18.5 -56.001v-128c0 -99.333 -54.333 -149.333 -163 -150z" />
    <glyph glyph-name="asciitilde" unicode="~" horiz-adv-x="428" 
d="M301 503c-33.333 0 -63.333 9 -90 27c-26.667 18.667 -47.667 28 -63 28c-12 0 -22 -3.83301 -30 -11.5s-13.333 -21.167 -16 -40.5h-104c6 48 20.667 84 44 108s53.333 36 90 36c20 0 37.167 -2.83301 51.5 -8.5s27 -11.834 38 -18.501l30 -18.5
c9 -5.66699 18.167 -8.5 27.5 -8.5c10 0 19.5 3.33301 28.5 10s15.167 22 18.5 46h103c-2 -39.333 -10.333 -70.666 -25 -93.999s-31.5 -38.333 -50.5 -45s-36.5 -10 -52.5 -10z" />
    <glyph glyph-name="uni00A0" unicode="&#xa0;" horiz-adv-x="190" 
 />
    <glyph glyph-name="exclamdown" unicode="&#xa1;" horiz-adv-x="241" 
d="M122 492c22.667 0 41.167 -8.16699 55.5 -24.5s21.5 -35.166 21.5 -56.499s-7.16699 -40.166 -21.5 -56.499s-32.833 -24.5 -55.5 -24.5c-23.333 0 -42.166 8.16699 -56.499 24.5s-21.5 35.166 -21.5 56.499s7.16699 40.166 21.5 56.499s33.166 24.5 56.499 24.5z
M186 270v-456h-126v456h126z" />
    <glyph glyph-name="cent" unicode="&#xa2;" 
d="M238 -11l-0.00195312 147c-41.333 6 -75.5 23.5 -102.5 52.5s-43.167 56.833 -48.5 83.5s-8 47.667 -8 63c0 27.333 4.16699 52.333 12.5 75s20 42.5 35 59.5s32.167 30.5 51.5 40.5s39.333 16 60 18v139h80v-138c31.333 -5.33301 67.666 -17.666 108.999 -36.999
l-36 -90c-23.333 11.333 -43.166 19 -59.499 23s-32.166 6 -47.499 6c-24 0 -43.333 -7.33301 -58 -22s-23.334 -29 -26.001 -43s-4 -24.667 -4 -32c0 -11.333 1.83301 -23 5.5 -35s9.33398 -23 17.001 -33s17 -18.167 28 -24.5s23.5 -9.5 37.5 -9.5c30 0 64 10 102 30
l40 -89c-21.333 -12.667 -40.666 -21.834 -57.999 -27.501s-34 -9.5 -50 -11.5v-145h-80z" />
    <glyph glyph-name="sterling" unicode="&#xa3;" 
d="M96 0l0.00195312 246h-67v109h67v104c0 50 11 92.667 33 128c14.667 24 33.5 43 56.5 57s44.333 22.5 64 25.5s34.834 4.5 45.501 4.5c42 0 79.167 -10.333 111.5 -31s58.166 -51.334 77.499 -92.001l-98 -70c-14.667 26.667 -29.334 45.834 -44.001 57.501
s-30.334 17.5 -47.001 17.5c-20 0 -37.5 -7.5 -52.5 -22.5s-22.5 -41.833 -22.5 -80.5v-98h189v-109h-189v-125h260v-121h-384z" />
    <glyph glyph-name="currency" unicode="&#xa4;" horiz-adv-x="588" 
d="M108 68l-96 95.998l66 66c-9.33301 17.333 -16.666 35.5 -21.999 54.5s-8 39.167 -8 60.5s2.66699 41.5 8 60.5s12.666 37.167 21.999 54.5l-66 66l96 96l68 -67c17.333 8.66699 35.333 15.334 54 20.001s38.334 7 59.001 7c20 0 39.5 -2.5 58.5 -7.5
s37.167 -11.833 54.5 -20.5l68 68l96 -96l-66 -66c9.33301 -17.333 16.666 -35.5 21.999 -54.5s8 -39.167 8 -60.5c0 -20.667 -2.66699 -40.667 -8 -60s-12.666 -37.666 -21.999 -54.999l66 -66l-96 -96l-67 68c-17.333 -8.66699 -35.333 -15.5 -54 -20.5
s-38.667 -7.5 -60 -7.5c-20.667 0 -40.334 2.5 -59.001 7.5s-36.667 11.833 -54 20.5zM289 225.998c20 -0.666992 37.668 3.66504 53.001 12.998s28 20.5 38 33.5s17.167 26.333 21.5 40s5.5 24.5 3.5 32.5c0.666992 27.333 -7.16602 50.833 -23.499 70.5
s-33.833 32.834 -52.5 39.501s-32 9.66699 -40 9c-25.333 0.666992 -49 -7.66602 -71 -24.999c-20 -16.667 -32.833 -33.5 -38.5 -50.5s-7.83398 -31.5 -6.50098 -43.5c0 -16.667 3 -32.167 9 -46.5s14.167 -26.833 24.5 -37.5s22.666 -19.167 36.999 -25.5
s29.5 -9.5 45.5 -9.5z" />
    <glyph glyph-name="yen" unicode="&#xa5;" horiz-adv-x="487" 
d="M185 0v237h-140v108h101l-163 317h135l131 -262l123 262h132l-160 -317h102v-108h-139v-237h-122z" />
    <glyph glyph-name="brokenbar" unicode="&#xa6;" horiz-adv-x="261" 
d="M70 -74v308h119v-308h-119zM70 429v309h119v-309h-119z" />
    <glyph glyph-name="section" unicode="&#xa7;" horiz-adv-x="467" 
d="M222 -144c-38 0 -70.999 6.16602 -98.999 18.499s-52.667 27.166 -74 44.499l54 96c17.333 -14.667 35.833 -27.5 55.5 -38.5s39.167 -16.5 58.5 -16.5s33 4.66699 41 14s12 19.666 12 30.999c0 10.667 -2.83301 20.334 -8.5 29.001s-13.834 17.167 -24.501 25.5
s-22.5 16.5 -35.5 24.5s-25.833 16.667 -38.5 26c-32.667 21.333 -58.167 44 -76.5 68s-27.5 55.667 -27.5 95c0 36 8.5 65.333 25.5 88s39.5 41.667 67.5 57c-20.667 18.667 -35.667 37.667 -45 57s-14 42.333 -14 69c0 44 14.667 77.667 44 101s68 35 116 35
c32 0 61.333 -5.33301 88 -16s52 -28 76 -52l-64 -85c-11.333 12 -25.5 23.167 -42.5 33.5s-34.833 15.5 -53.5 15.5c-12.667 0 -23 -3.5 -31 -10.5s-12 -16.833 -12 -29.5c0 -17.333 7.83301 -33.166 23.5 -47.499s34.167 -29.166 55.5 -44.499l68 -56
c17.333 -16 31 -34.667 41 -56s15 -43 15 -65c0 -32 -7.16699 -59.167 -21.5 -81.5s-34.166 -41.833 -59.499 -58.5c17.333 -15.333 31.666 -32.333 42.999 -51s17 -43 17 -73c0 -34 -11.667 -63.667 -35 -89c-22.667 -24.667 -48 -40.667 -76 -48
c-31.333 -6.66699 -52.333 -10 -63 -10zM262.001 185.999c12.667 9.33301 21.5 19.833 26.5 31.5s7.5 23.167 7.5 34.5c0 14 -5.33301 29 -16 45s-30 34.667 -58 56c-16 -7.33301 -26.833 -17.5 -32.5 -30.5s-8.5 -25.833 -8.5 -38.5c0 -18 6.5 -34.333 19.5 -49
s33.5 -31 61.5 -49z" />
    <glyph glyph-name="dieresis" unicode="&#xa8;" horiz-adv-x="442" 
d="M114 560c-23.333 0 -40.833 6.83301 -52.5 20.5s-17.5 28.834 -17.5 45.501c0 16 5.83301 30.833 17.5 44.5s29.167 20.5 52.5 20.5c22.667 0 39.667 -6.83301 51 -20.5s17 -28.5 17 -44.5c0 -16.667 -5.66699 -31.834 -17 -45.501s-28.333 -20.5 -51 -20.5zM322 560
c-23.333 0 -40.833 6.83301 -52.5 20.5s-17.5 28.834 -17.5 45.501c0 16 5.83301 30.833 17.5 44.5s29.167 20.5 52.5 20.5c22.667 0 39.667 -6.83301 51 -20.5s17 -28.5 17 -44.5c0 -16.667 -5.66699 -31.834 -17 -45.501s-28.333 -20.5 -51 -20.5z" />
    <glyph glyph-name="copyright" unicode="&#xa9;" horiz-adv-x="775" 
d="M388 -77c-57.333 0 -107.331 10.6699 -149.998 32.0029s-78.5 49.5 -107.5 84.5s-50.667 74.833 -65 119.5s-21.5 90.667 -21.5 138c0 73.333 16.667 140.666 50 201.999c24 46 55.5 82.333 94.5 109s76.667 43.5 113 50.5s65.166 10.5 86.499 10.5
c79.333 0 146.666 -21.667 201.999 -65c56 -44 93.333 -94.333 112 -151c19.333 -59.333 29 -111.333 29 -156c0 -74.667 -16.5 -142.334 -49.5 -203.001s-75.833 -104.334 -128.5 -131.001s-107.667 -40 -165 -40zM388.002 3.00293c60 0 110.667 16.6611 152 49.9941
c40.667 34 68.667 73.667 84 119c14.667 43.333 22 85 22 125c0 58.667 -12.333 111.334 -37 158.001c-16.667 34 -40.667 62.333 -72 85s-60.5 36.667 -87.5 42s-47.5 8 -61.5 8c-42.667 0 -80.167 -8.16699 -112.5 -24.5s-59.333 -38.166 -81 -65.499
s-38 -58.666 -49 -93.999s-16.5 -71.666 -16.5 -108.999c0 -38 5.5 -74.667 16.5 -110s27.5 -66.666 49.5 -93.999s49.167 -49.166 81.5 -65.499s69.5 -24.5 111.5 -24.5zM396.002 66.9971c-46 0 -85.6689 11.666 -119.002 34.999c-33.333 24 -55.666 53.167 -66.999 87.5
s-17 69.5 -17 105.5c0 55.333 11.333 101.333 34 138c23.333 38 50 62.667 80 74c30.667 12 59 18 85 18c42 0 76.5 -8.66699 103.5 -26s48.833 -44 65.5 -80l-84 -46c-10 20.667 -21.167 36.834 -33.5 48.501s-28.833 17.5 -49.5 17.5c-22 0 -42 -8.66699 -60 -26
c-17.333 -17.333 -28.166 -36.833 -32.499 -58.5s-6.5 -41.5 -6.5 -59.5c0 -44 10.167 -78.5 30.5 -103.5s44.833 -37.5 73.5 -37.5c15.333 0 29.666 4 42.999 12s27 24.667 41 50l82 -49c-21.333 -38 -45.666 -64.167 -72.999 -78.5s-59.333 -21.5 -96 -21.5z" />
    <glyph glyph-name="ordfeminine" unicode="&#xaa;" horiz-adv-x="360" 
d="M143 295c-34 0 -62.168 9.66699 -84.501 29s-33.5 46.333 -33.5 81c0 35.333 13.333 62.333 40 81c28 20 57 32.333 87 37c30.667 4.66699 55 7.66699 73 9v10c0 13.333 -4.66699 24.333 -14 33s-20.666 13 -33.999 13c-14 0 -27.833 -3 -41.5 -9
s-28.167 -14.667 -43.5 -26l-39 63c23.333 18 46.166 30.5 68.499 37.5s43.5 10.5 63.5 10.5c42 0 75 -10.667 99 -32s36 -56.333 36 -105v-225h-86l-3 28c-27.333 -23.333 -56.666 -35 -87.999 -35zM164.999 372c13.333 0 24.999 2.33301 34.999 7s18.667 10.667 26 18v65
c-22.667 -2 -42 -4.33301 -58 -7c-19.333 -4 -32.666 -10 -39.999 -18s-11 -17 -11 -27c0 -25.333 16 -38 48 -38z" />
    <glyph glyph-name="guillemotleft" unicode="&#xab;" horiz-adv-x="546" 
d="M230 45l-216 205l197 212l82 -68l-136 -138l149 -135zM447 45l-216 205l197 212l81 -68l-136 -138l150 -135z" />
    <glyph glyph-name="logicalnot" unicode="&#xac;" 
d="M380 146v260h-360v109h468v-369h-108z" />
    <glyph glyph-name="uni00AD" unicode="&#xad;" horiz-adv-x="314" 
d="M36 201v119h241v-119h-241z" />
    <glyph glyph-name="registered" unicode="&#xae;" horiz-adv-x="776" 
d="M388 -77c-57.333 0 -107.332 10.6699 -149.999 32.0029s-78.334 49.5 -107.001 84.5s-50.167 74.833 -64.5 119.5s-21.5 90.667 -21.5 138c0 73.333 16.667 140.666 50 201.999c24 47.333 56.167 84 96.5 110s78 42.5 113 49.5s63.167 10.5 84.5 10.5
c78.667 0 145.667 -21.667 201 -65c56 -44 93.333 -94.333 112 -151c19.333 -59.333 29 -111.333 29 -156c0 -74.667 -16.5 -142.334 -49.5 -203.001s-75.833 -104.334 -128.5 -131.001s-107.667 -40 -165 -40zM389.001 3.00293c60 0 110.332 16.3301 150.999 48.9971
c42 33.333 70.333 73 85 119c14.667 44 22 86 22 126c0 58.667 -12.333 111.334 -37 158.001c-16.667 34 -40.667 62.333 -72 85s-60.5 36.667 -87.5 42s-47.5 8 -61.5 8c-61.333 0 -113.666 -17.667 -156.999 -53c-42 -34.667 -69.667 -74 -83 -118
c-13.333 -46 -20 -86.667 -20 -122c0 -38 5.5 -74.667 16.5 -110s27.5 -66.666 49.5 -93.999s49.167 -49.166 81.5 -65.499s69.833 -24.5 112.5 -24.5zM245 102l-0.000976562 406h152c54 0 94 -10.833 120 -32.5s39 -53.5 39 -95.5c0 -34 -7.66699 -60.5 -23 -79.5
s-34.666 -32.5 -57.999 -40.5l85 -158h-99l-77 147h-46v-147h-93zM337.999 334h52.001c25.333 0 43.333 3.33301 54 10s16 19.667 16 39c0 16 -4.83301 26.667 -14.5 32s-26.834 8 -51.501 8h-56v-89z" />
    <glyph glyph-name="macron" unicode="&#xaf;" horiz-adv-x="442" 
d="M38 578v89h345v-89h-345z" />
    <glyph glyph-name="degree" unicode="&#xb0;" horiz-adv-x="396" 
d="M199 368c-30.667 0 -59.333 7.99902 -86 23.999s-45.5 35 -56.5 57s-16.5 45 -16.5 69c0 26.667 5.5 49.667 16.5 69s24.833 35 41.5 47s34.167 20.5 52.5 25.5s34.166 7.5 47.499 7.5c28 0 55.667 -7.66699 83 -23c26.667 -14.667 45.834 -33.5 57.501 -56.5
s17.5 -46.5 17.5 -70.5c0 -27.333 -5.66699 -50.666 -17 -69.999s-25.333 -35 -42 -47s-34 -20.333 -52 -25s-33.333 -7 -46 -7zM198.001 454.999c13.333 0 25.666 5.16699 36.999 15.5s17 25.833 17 46.5c0 21.333 -5.66699 37.166 -17 47.499s-23.666 15.5 -36.999 15.5
s-25.666 -5.16699 -36.999 -15.5s-17 -26.166 -17 -47.499c0 -20.667 5.66699 -36.167 17 -46.5s23.666 -15.5 36.999 -15.5z" />
    <glyph glyph-name="plusminus" unicode="&#xb1;" 
d="M23 0v110h468v-110h-468zM205 158v198h-182v110h182v201h104v-201h182v-110h-182v-198h-104z" />
    <glyph glyph-name="twosuperior" unicode="&#xb2;" horiz-adv-x="315" 
d="M44 337l0.000976562 64c0 28.667 11.667 51.667 35 69l72 55c19.333 15.333 29 29 29 41c0 11.333 -3.33301 19 -10 23s-14.667 6 -24 6c-17.333 0 -33 -4 -47 -12s-24.667 -14.667 -32 -20l-34 67c7.33301 7.33301 25.166 16.5 53.499 27.5s53.5 16.5 75.5 16.5
c36 0 64.667 -8.83301 86 -26.5s32 -42.5 32 -74.5c0 -20.667 -4.83301 -38 -14.5 -52s-23.167 -27.667 -40.5 -41l-86 -64h142v-79h-237z" />
    <glyph glyph-name="threesuperior" unicode="&#xb3;" horiz-adv-x="315" 
d="M154 324c-24 0 -46.168 3.66699 -66.501 11s-37.166 16.666 -50.499 27.999l31 69c11.333 -9.33301 23.833 -17.166 37.5 -23.499s28.167 -9.5 43.5 -9.5c32.667 0 49 13 49 39c0 13.333 -4.16699 23.333 -12.5 30s-23.166 10 -44.499 10c-10 0 -19.667 -0.666992 -29 -2
v53c6.66699 9.33301 14.667 18.833 24 28.5s20 19.5 32 29.5h-116v78h220v-77c-30.667 -17.333 -54.667 -36 -72 -56c26 -3.33301 47.333 -13 64 -29s25 -38 25 -66c0 -38 -12.833 -66.333 -38.5 -85s-57.834 -28 -96.501 -28z" />
    <glyph glyph-name="acute" unicode="&#xb4;" horiz-adv-x="442" 
d="M125 538l-33 54l191 141l59 -83z" />
    <glyph glyph-name="mu" unicode="&#xb5;" horiz-adv-x="582" 
d="M67 -189l0.00195312 671h124v-293c0 -28 6.66699 -51.333 20 -70s35 -28 65 -28c21.333 0 40.166 4.83301 56.499 14.5s28.166 23.5 35.499 41.5c4.66699 10 7 34.333 7 73v262h124v-349c0 -17.333 2 -29.333 6 -36s10.667 -10 20 -10c8.66699 0 19 2.33301 31 7l16 -91
c-24 -9.33301 -48.333 -14 -73 -14c-50.667 0 -81.667 21.667 -93 65c-15.333 -22 -34 -38.333 -56 -49s-46 -16 -72 -16c-19.333 0 -37.833 3.5 -55.5 10.5s-31.167 15.833 -40.5 26.5v-215h-115z" />
    <glyph glyph-name="paragraph" unicode="&#xb6;" horiz-adv-x="504" 
d="M190 -145v397.001c-26 2.66699 -49.667 10.167 -71 22.5s-39.833 27.666 -55.5 45.999s-27.667 39.333 -36 63s-12.5 48.5 -12.5 74.5c0 39.333 10.333 76.333 31 111c20.667 36 46.667 61.333 78 76s62 22 92 22h76v-812h-102zM337 -144.999v812h104v-812h-104z" />
    <glyph glyph-name="periodcentered" unicode="&#xb7;" horiz-adv-x="326" 
d="M163 297c-23.333 0 -40.833 7.5 -52.5 22.5s-17.5 31.5 -17.5 49.5c0 18.667 5.83301 35.5 17.5 50.5s29.167 22.5 52.5 22.5s40.666 -7.5 51.999 -22.5s17 -31.833 17 -50.5c0 -18 -5.66699 -34.5 -17 -49.5s-28.666 -22.5 -51.999 -22.5z" />
    <glyph glyph-name="cedilla" unicode="&#xb8;" horiz-adv-x="442" 
d="M128 -181l59 137h110l-81 -137h-88z" />
    <glyph glyph-name="onesuperior" unicode="&#xb9;" horiz-adv-x="315" 
d="M154 337v218l-65 -36l-38 72l126 74h70v-328h-93z" />
    <glyph glyph-name="ordmasculine" unicode="&#xba;" horiz-adv-x="392" 
d="M196 295c-32 0 -58.834 6.33398 -80.501 19.001s-39.167 28.667 -52.5 48s-22.333 39.833 -27 61.5s-7 40.5 -7 56.5c0 33.333 7.66699 66.333 23 99c16 30.667 37 52.5 63 65.5s53 19.5 81 19.5c40.667 0 75 -12.5 103 -37.5s45.667 -51.5 53 -79.5
c8 -29.333 12 -51.666 12 -66.999c0 -34.667 -8 -67.334 -24 -98.001c-15.333 -30.667 -36.166 -52.834 -62.499 -66.501s-53.5 -20.5 -81.5 -20.5zM195.999 383.001c23.333 0 40.499 9.5 51.499 28.5s16.5 41.833 16.5 68.5c0 28 -5.5 51.5 -16.5 70.5
s-27.833 28.5 -50.5 28.5c-23.333 0 -40.666 -9.5 -51.999 -28.5s-17 -42.5 -17 -70.5c0 -26.667 5.5 -49.5 16.5 -68.5s28.167 -28.5 51.5 -28.5z" />
    <glyph glyph-name="guillemotright" unicode="&#xbb;" horiz-adv-x="545" 
d="M99 45l-76 76l149 135l-136 138l82 68l196 -212zM314 45l-75 76l150 135l-136 138l81 68l197 -212z" />
    <glyph glyph-name="onequarter" unicode="&#xbc;" horiz-adv-x="774" 
d="M108 337v218l-65 -36l-38 72l126 74h70v-328h-93zM594 0v71h-146v73l153 184h85v-187h39v-70h-39v-71h-92zM523 141h71v86zM101 -13l-64 71l622 610l67 -70z" />
    <glyph glyph-name="onehalf" unicode="&#xbd;" horiz-adv-x="774" 
d="M123 337v218l-65 -36l-38 72l126 74h70v-328h-93zM492 8l0.000976562 64c0 28.667 11.667 51.667 35 69l72 55c19.333 15.333 29 29 29 41c0 11.333 -3.33301 19 -10 23s-14.667 6 -24 6c-17.333 0 -33 -4 -47 -12s-24.667 -14.667 -32 -20l-34 67
c7.33301 7.33301 25.166 16.5 53.499 27.5s53.5 16.5 75.5 16.5c36 0 64.667 -8.83301 86 -26.5s32 -42.5 32 -74.5c0 -20.667 -4.83301 -38 -14.5 -52s-23.167 -27.667 -40.5 -41l-86 -64h142v-79h-237zM82.001 -13l-64 71l622 610l67 -70z" />
    <glyph glyph-name="threequarters" unicode="&#xbe;" horiz-adv-x="774" 
d="M125 -13l-64 71l622 610l67 -70zM161 324c-24 0 -46.168 3.66699 -66.501 11s-37.166 16.666 -50.499 27.999l31 69c11.333 -9.33301 23.833 -17.166 37.5 -23.499s28.167 -9.5 43.5 -9.5c32.667 0 49 13 49 39c0 13.333 -4.16699 23.333 -12.5 30s-23.166 10 -44.499 10
c-10 0 -19.667 -0.666992 -29 -2v53c6.66699 9.33301 14.667 18.833 24 28.5s20 19.5 32 29.5h-116v78h220v-77c-30.667 -17.333 -54.667 -36 -72 -56c26 -3.33301 47.333 -13 64 -29s25 -38 25 -66c0 -38 -12.833 -66.333 -38.5 -85s-57.834 -28 -96.501 -28zM585.999 0v71
h-146v73l153 184h85v-187h39v-70h-39v-71h-92zM514.999 141h71v86z" />
    <glyph glyph-name="questiondown" unicode="&#xbf;" horiz-adv-x="422" 
d="M222 495c22.667 0 41.167 -8.16699 55.5 -24.5s21.5 -35.166 21.5 -56.499s-7.16699 -40.166 -21.5 -56.499s-32.833 -24.5 -55.5 -24.5c-23.333 0 -42.166 8.16699 -56.499 24.5s-21.5 35.166 -21.5 56.499s7.16699 40.166 21.5 56.499s33.166 24.5 56.499 24.5z
M282 273l0.000976562 -42.002c0 -27.333 -6.5 -51.666 -19.5 -72.999s-32.833 -45.333 -59.5 -72c-16 -16 -30.167 -32.167 -42.5 -48.5s-18.5 -36.166 -18.5 -59.499c0 -20.667 6.66699 -37 20 -49s32.333 -18 57 -18c18 0 37.333 6.16699 58 18.5s42 32.5 64 60.5l76 -78
c-18.667 -25.333 -41 -46 -67 -62c-28 -18 -53.833 -30.333 -77.5 -37s-45.5 -10 -65.5 -10c-48 0 -87.333 10.667 -118 32c-22 17.333 -38.333 34.833 -49 52.5s-17.334 34.5 -20.001 50.5s-4 28.333 -4 37c0 32 7 60.667 21 86s34 52 60 80
c42.667 44.667 64 80.667 64 108v24h121z" />
    <glyph glyph-name="Agrave" unicode="&#xc0;" horiz-adv-x="608" 
d="M0 0l240 667h127l241 -667h-131l-46 134h-255l-45 -134h-131zM215 247h178l-89 263zM382 704l-217 112l59 83l191 -141z" />
    <glyph glyph-name="Aacute" unicode="&#xc1;" horiz-adv-x="608" 
d="M0 0l240 667h127l241 -667h-131l-46 134h-255l-45 -134h-131zM215 247h178l-89 263zM228 704l-33 54l191 141l59 -83z" />
    <glyph glyph-name="Acircumflex" unicode="&#xc2;" horiz-adv-x="608" 
d="M0 0l240 667h127l241 -667h-131l-46 134h-255l-45 -134h-131zM215 247h178l-89 263zM209 710l-64 45l115 130h92l113 -129l-64 -45l-96 96z" />
    <glyph glyph-name="Atilde" unicode="&#xc3;" horiz-adv-x="608" 
d="M0 0l240 667h127l241 -667h-131l-46 134h-255l-45 -134h-131zM215 247h178l-89 263zM177 706l-68 38c12 34 28.5 61.333 49.5 82s45.5 31 73.5 31c17.333 0 41.666 -9.66699 72.999 -29c26.667 -18.667 45.334 -28 56.001 -28c6 0 14.667 3.83301 26 11.5
s22.333 24.834 33 51.501l69 -37c-9.33301 -34 -25.333 -61.5 -48 -82.5s-48.334 -31.5 -77.001 -31.5c-18.667 0 -43.334 10 -74.001 30c-27.333 18 -45.666 27 -54.999 27c-7.33301 0 -16.166 -3.83301 -26.499 -11.5s-20.833 -24.834 -31.5 -51.501z" />
    <glyph glyph-name="Adieresis" unicode="&#xc4;" horiz-adv-x="608" 
d="M0 0l240 667h127l241 -667h-131l-46 134h-255l-45 -134h-131zM215 247h178l-89 263zM201 726c-23.333 0 -40.833 6.83301 -52.5 20.5s-17.5 28.834 -17.5 45.501c0 16 5.83301 30.833 17.5 44.5s29.167 20.5 52.5 20.5c22.667 0 39.667 -6.83301 51 -20.5
s17 -28.5 17 -44.5c0 -16.667 -5.66699 -31.834 -17 -45.501s-28.333 -20.5 -51 -20.5zM409 726c-23.333 0 -40.833 6.83301 -52.5 20.5s-17.5 28.834 -17.5 45.501c0 16 5.83301 30.833 17.5 44.5s29.167 20.5 52.5 20.5c22.667 0 39.667 -6.83301 51 -20.5
s17 -28.5 17 -44.5c0 -16.667 -5.66699 -31.834 -17 -45.501s-28.333 -20.5 -51 -20.5z" />
    <glyph glyph-name="Aring" unicode="&#xc5;" horiz-adv-x="608" 
d="M0 0l240 667h127l241 -667h-131l-46 134h-255l-45 -134h-131zM215 247h178l-89 263zM305 695c-30 0 -54.832 10.001 -74.499 30.001s-29.5 46 -29.5 78c0 17.333 3.16699 32.833 9.5 46.5s14.666 25.167 24.999 34.5s21.833 16.333 34.5 21s25.667 7 39 7
c29.333 0 53.5 -10.333 72.5 -31s28.5 -46.334 28.5 -77.001c0 -14.667 -2.5 -28.667 -7.5 -42s-12.167 -25 -21.5 -35s-20.5 -17.833 -33.5 -23.5s-27.167 -8.5 -42.5 -8.5zM305.001 758.001c12.667 0 22.5 4.33301 29.5 13s10.5 19.667 10.5 33s-3.5 24.333 -10.5 33
s-16.833 13 -29.5 13c-12 0 -21.5 -4.33301 -28.5 -13s-10.5 -19.667 -10.5 -33s3.5 -24.333 10.5 -33s16.5 -13 28.5 -13z" />
    <glyph glyph-name="AE" unicode="&#xc6;" horiz-adv-x="907" 
d="M0 0l386 667h472v-121h-290v-151h236v-120h-236v-154h312v-121h-440v176h-194l-102 -176h-144zM305 290h135v239z" />
    <glyph glyph-name="Ccedilla" unicode="&#xc7;" horiz-adv-x="571" 
d="M330 -14c-42 0 -80.5039 7.33398 -115.504 22.001s-65.333 36.5 -91 65.5s-45.5 65 -59.5 108s-21 92.833 -21 149.5c0 60 8.16699 111.833 24.5 155.5s37.833 80 64.5 109s57.167 50.5 91.5 64.5s69.5 21 105.5 21c45.333 0 85 -8.33301 119 -25
s58.667 -34.334 74 -53.001s25 -32 29 -40l-94 -79c-3.33301 6 -8.16602 13.5 -14.499 22.5s-14.666 17.667 -24.999 26s-22.666 15.5 -36.999 21.5s-30.833 9 -49.5 9c-21.333 0 -41.5 -4.5 -60.5 -13.5s-35.833 -23 -50.5 -42s-26.167 -43 -34.5 -72
s-12.5 -63.833 -12.5 -104.5c0 -72.667 15.667 -128.5 47 -167.5s73 -58.5 125 -58.5c38 0 70.667 6.5 98 19.5s47 25.5 59 37.5l41 -111c-15.333 -18 -46.166 -33.333 -92.499 -46s-86.5 -19 -120.5 -19zM227.996 -180.999l59 137h110l-81 -137h-88z" />
    <glyph glyph-name="Egrave" unicode="&#xc8;" horiz-adv-x="557" 
d="M73 0v667h435v-121h-307v-152h254v-121h-254v-152h329v-121h-457zM371 704l-217 112l59 83l191 -141z" />
    <glyph glyph-name="Eacute" unicode="&#xc9;" horiz-adv-x="557" 
d="M73 0v667h435v-121h-307v-152h254v-121h-254v-152h329v-121h-457zM238 704l-33 54l191 141l59 -83z" />
    <glyph glyph-name="Ecircumflex" unicode="&#xca;" horiz-adv-x="557" 
d="M73 0v667h435v-121h-307v-152h254v-121h-254v-152h329v-121h-457zM196 710l-64 45l115 130h92l113 -129l-64 -45l-96 96z" />
    <glyph glyph-name="Edieresis" unicode="&#xcb;" horiz-adv-x="557" 
d="M73 0v667h435v-121h-307v-152h254v-121h-254v-152h329v-121h-457zM190 726c-23.333 0 -40.833 6.83301 -52.5 20.5s-17.5 28.834 -17.5 45.501c0 16 5.83301 30.833 17.5 44.5s29.167 20.5 52.5 20.5c22.667 0 39.667 -6.83301 51 -20.5s17 -28.5 17 -44.5
c0 -16.667 -5.66699 -31.834 -17 -45.501s-28.333 -20.5 -51 -20.5zM398 726c-23.333 0 -40.833 6.83301 -52.5 20.5s-17.5 28.834 -17.5 45.501c0 16 5.83301 30.833 17.5 44.5s29.167 20.5 52.5 20.5c22.667 0 39.667 -6.83301 51 -20.5s17 -28.5 17 -44.5
c0 -16.667 -5.66699 -31.834 -17 -45.501s-28.333 -20.5 -51 -20.5z" />
    <glyph glyph-name="Igrave" unicode="&#xcc;" horiz-adv-x="275" 
d="M73 0v667h128v-667h-128zM227 704l-217 112l59 83l191 -141z" />
    <glyph glyph-name="Iacute" unicode="&#xcd;" horiz-adv-x="275" 
d="M73 0v667h128v-667h-128zM74 704l-33 54l191 141l59 -83z" />
    <glyph glyph-name="Icircumflex" unicode="&#xce;" horiz-adv-x="275" 
d="M73 0v667h128v-667h-128zM49 710l-64 45l115 130h92l113 -129l-64 -45l-96 96z" />
    <glyph glyph-name="Idieresis" unicode="&#xcf;" horiz-adv-x="275" 
d="M73 0v667h128v-667h-128zM46 726c-23.333 0 -40.833 6.83301 -52.5 20.5s-17.5 28.834 -17.5 45.501c0 16 5.83301 30.833 17.5 44.5s29.167 20.5 52.5 20.5c22.667 0 39.667 -6.83301 51 -20.5s17 -28.5 17 -44.5c0 -16.667 -5.66699 -31.834 -17 -45.501
s-28.333 -20.5 -51 -20.5zM254 726c-23.333 0 -40.833 6.83301 -52.5 20.5s-17.5 28.834 -17.5 45.501c0 16 5.83301 30.833 17.5 44.5s29.167 20.5 52.5 20.5c22.667 0 39.667 -6.83301 51 -20.5s17 -28.5 17 -44.5c0 -16.667 -5.66699 -31.834 -17 -45.501
s-28.333 -20.5 -51 -20.5z" />
    <glyph glyph-name="Eth" unicode="&#xd0;" horiz-adv-x="628" 
d="M73 0l-0.000976562 291.001h-73v105h73v271h188c24 0 50.667 -2 80 -6s57.333 -12 84 -24c42 -20.667 76 -51.334 102 -92.001c26.667 -40 43.334 -79 50.001 -117c6.66699 -44.667 10 -75 10 -91c0 -58 -11.5 -111.833 -34.5 -161.5s-46.667 -84.5 -71 -104.5
s-43.5 -32.333 -57.5 -37c-45.333 -22.667 -98 -34 -158 -34h-193zM200.999 120.001l52 -0.000976562c46.667 0 84.667 8.33301 114 25c30.667 16.667 53.334 42.167 68.001 76.5s22 70.833 22 109.5c0 38 -6.66699 73.833 -20 107.5s-34 59.834 -62 78.501
c-14.667 10 -32.834 17.5 -54.501 22.5s-43.167 7.5 -64.5 7.5h-55v-151h147v-105h-147v-171z" />
    <glyph glyph-name="Ntilde" unicode="&#xd1;" horiz-adv-x="660" 
d="M73 0v667h131l257 -416v416h126v-667h-112l-275 441v-441h-127zM213 706l-68 38c12 34 28.5 61.333 49.5 82s45.5 31 73.5 31c17.333 0 41.666 -9.66699 72.999 -29c26.667 -18.667 45.334 -28 56.001 -28c6 0 14.667 3.83301 26 11.5s22.333 24.834 33 51.501l69 -37
c-9.33301 -34 -25.333 -61.5 -48 -82.5s-48.334 -31.5 -77.001 -31.5c-18.667 0 -43.334 10 -74.001 30c-27.333 18 -45.666 27 -54.999 27c-7.33301 0 -16.166 -3.83301 -26.499 -11.5s-20.833 -24.834 -31.5 -51.501z" />
    <glyph glyph-name="Ograve" unicode="&#xd2;" horiz-adv-x="672" 
d="M334 -14c-48.667 0 -91.168 10.1641 -127.501 30.4971s-66.666 46.833 -90.999 79.5s-42.5 69.834 -54.5 111.501s-18 83.834 -18 126.501s6 84.834 18 126.501s30.167 78.834 54.5 111.501s54.666 59 90.999 79s78.833 30 127.5 30c68 0 125.667 -20 173 -60
s79.333 -87.333 96 -142c17.333 -57.333 26 -105.666 26 -144.999c0 -42.667 -6.16699 -84.834 -18.5 -126.501s-30.666 -78.834 -54.999 -111.501s-55 -59.167 -92 -79.5s-80.167 -30.5 -129.5 -30.5zM333.999 104.997c26.667 0 51.334 7.16602 74.001 21.499
s39.667 31.333 51 51s19.666 38.834 24.999 57.501c10 36.667 15 69.667 15 99c0 44 -8 85 -24 123c-15.333 38 -36 65.167 -62 81.5s-52.333 24.5 -79 24.5c-26 0 -49.167 -6.33301 -69.5 -19s-37.333 -29.667 -51 -51s-24 -45.833 -31 -73.5s-10.5 -56.167 -10.5 -85.5
s3.5 -57.833 10.5 -85.5s17.333 -52.167 31 -73.5s30.667 -38.333 51 -51s43.5 -19 69.5 -19zM422.999 703.996l-217 112l59 83l191 -141z" />
    <glyph glyph-name="Oacute" unicode="&#xd3;" horiz-adv-x="672" 
d="M334 -14c-48.667 0 -91.168 10.1641 -127.501 30.4971s-66.666 46.833 -90.999 79.5s-42.5 69.834 -54.5 111.501s-18 83.834 -18 126.501s6 84.834 18 126.501s30.167 78.834 54.5 111.501s54.666 59 90.999 79s78.833 30 127.5 30c68 0 125.667 -20 173 -60
s79.333 -87.333 96 -142c17.333 -57.333 26 -105.666 26 -144.999c0 -42.667 -6.16699 -84.834 -18.5 -126.501s-30.666 -78.834 -54.999 -111.501s-55 -59.167 -92 -79.5s-80.167 -30.5 -129.5 -30.5zM333.999 104.997c26.667 0 51.334 7.16602 74.001 21.499
s39.667 31.333 51 51s19.666 38.834 24.999 57.501c10 36.667 15 69.667 15 99c0 44 -8 85 -24 123c-15.333 38 -36 65.167 -62 81.5s-52.333 24.5 -79 24.5c-26 0 -49.167 -6.33301 -69.5 -19s-37.333 -29.667 -51 -51s-24 -45.833 -31 -73.5s-10.5 -56.167 -10.5 -85.5
s3.5 -57.833 10.5 -85.5s17.333 -52.167 31 -73.5s30.667 -38.333 51 -51s43.5 -19 69.5 -19zM278.999 703.996l-33 54l191 141l59 -83z" />
    <glyph glyph-name="Ocircumflex" unicode="&#xd4;" horiz-adv-x="672" 
d="M334 -14c-48.667 0 -91.168 10.1641 -127.501 30.4971s-66.666 46.833 -90.999 79.5s-42.5 69.834 -54.5 111.501s-18 83.834 -18 126.501s6 84.834 18 126.501s30.167 78.834 54.5 111.501s54.666 59 90.999 79s78.833 30 127.5 30c68 0 125.667 -20 173 -60
s79.333 -87.333 96 -142c17.333 -57.333 26 -105.666 26 -144.999c0 -42.667 -6.16699 -84.834 -18.5 -126.501s-30.666 -78.834 -54.999 -111.501s-55 -59.167 -92 -79.5s-80.167 -30.5 -129.5 -30.5zM333.999 104.997c26.667 0 51.334 7.16602 74.001 21.499
s39.667 31.333 51 51s19.666 38.834 24.999 57.501c10 36.667 15 69.667 15 99c0 44 -8 85 -24 123c-15.333 38 -36 65.167 -62 81.5s-52.333 24.5 -79 24.5c-26 0 -49.167 -6.33301 -69.5 -19s-37.333 -29.667 -51 -51s-24 -45.833 -31 -73.5s-10.5 -56.167 -10.5 -85.5
s3.5 -57.833 10.5 -85.5s17.333 -52.167 31 -73.5s30.667 -38.333 51 -51s43.5 -19 69.5 -19zM242.999 709.996l-64 45l115 130h92l113 -129l-64 -45l-96 96z" />
    <glyph glyph-name="Otilde" unicode="&#xd5;" horiz-adv-x="672" 
d="M334 -14c-48.667 0 -91.168 10.1641 -127.501 30.4971s-66.666 46.833 -90.999 79.5s-42.5 69.834 -54.5 111.501s-18 83.834 -18 126.501s6 84.834 18 126.501s30.167 78.834 54.5 111.501s54.666 59 90.999 79s78.833 30 127.5 30c68 0 125.667 -20 173 -60
s79.333 -87.333 96 -142c17.333 -57.333 26 -105.666 26 -144.999c0 -42.667 -6.16699 -84.834 -18.5 -126.501s-30.666 -78.834 -54.999 -111.501s-55 -59.167 -92 -79.5s-80.167 -30.5 -129.5 -30.5zM333.999 104.997c26.667 0 51.334 7.16602 74.001 21.499
s39.667 31.333 51 51s19.666 38.834 24.999 57.501c10 36.667 15 69.667 15 99c0 44 -8 85 -24 123c-15.333 38 -36 65.167 -62 81.5s-52.333 24.5 -79 24.5c-26 0 -49.167 -6.33301 -69.5 -19s-37.333 -29.667 -51 -51s-24 -45.833 -31 -73.5s-10.5 -56.167 -10.5 -85.5
s3.5 -57.833 10.5 -85.5s17.333 -52.167 31 -73.5s30.667 -38.333 51 -51s43.5 -19 69.5 -19zM213.999 705.996l-68 38c12 34 28.5 61.333 49.5 82s45.5 31 73.5 31c17.333 0 41.666 -9.66699 72.999 -29c26.667 -18.667 45.334 -28 56.001 -28c6 0 14.667 3.83301 26 11.5
s22.333 24.834 33 51.501l69 -37c-9.33301 -34 -25.333 -61.5 -48 -82.5s-48.334 -31.5 -77.001 -31.5c-18.667 0 -43.334 10 -74.001 30c-27.333 18 -45.666 27 -54.999 27c-7.33301 0 -16.166 -3.83301 -26.499 -11.5s-20.833 -24.834 -31.5 -51.501z" />
    <glyph glyph-name="Odieresis" unicode="&#xd6;" horiz-adv-x="672" 
d="M334 -14c-48.667 0 -91.168 10.1641 -127.501 30.4971s-66.666 46.833 -90.999 79.5s-42.5 69.834 -54.5 111.501s-18 83.834 -18 126.501s6 84.834 18 126.501s30.167 78.834 54.5 111.501s54.666 59 90.999 79s78.833 30 127.5 30c68 0 125.667 -20 173 -60
s79.333 -87.333 96 -142c17.333 -57.333 26 -105.666 26 -144.999c0 -42.667 -6.16699 -84.834 -18.5 -126.501s-30.666 -78.834 -54.999 -111.501s-55 -59.167 -92 -79.5s-80.167 -30.5 -129.5 -30.5zM333.999 104.997c26.667 0 51.334 7.16602 74.001 21.499
s39.667 31.333 51 51s19.666 38.834 24.999 57.501c10 36.667 15 69.667 15 99c0 44 -8 85 -24 123c-15.333 38 -36 65.167 -62 81.5s-52.333 24.5 -79 24.5c-26 0 -49.167 -6.33301 -69.5 -19s-37.333 -29.667 -51 -51s-24 -45.833 -31 -73.5s-10.5 -56.167 -10.5 -85.5
s3.5 -57.833 10.5 -85.5s17.333 -52.167 31 -73.5s30.667 -38.333 51 -51s43.5 -19 69.5 -19zM238.999 725.996c-23.333 0 -40.833 6.83301 -52.5 20.5s-17.5 28.834 -17.5 45.501c0 16 5.83301 30.833 17.5 44.5s29.167 20.5 52.5 20.5c22.667 0 39.667 -6.83301 51 -20.5
s17 -28.5 17 -44.5c0 -16.667 -5.66699 -31.834 -17 -45.501s-28.333 -20.5 -51 -20.5zM446.999 725.996c-23.333 0 -40.833 6.83301 -52.5 20.5s-17.5 28.834 -17.5 45.501c0 16 5.83301 30.833 17.5 44.5s29.167 20.5 52.5 20.5c22.667 0 39.667 -6.83301 51 -20.5
s17 -28.5 17 -44.5c0 -16.667 -5.66699 -31.834 -17 -45.501s-28.333 -20.5 -51 -20.5z" />
    <glyph glyph-name="multiply" unicode="&#xd7;" horiz-adv-x="515" 
d="M136 125l-73 77l120 128l-120 128l73 77l121 -127l122 127l73 -77l-120 -128l120 -128l-73 -77l-122 127z" />
    <glyph glyph-name="Oslash" unicode="&#xd8;" horiz-adv-x="673" 
d="M112 -29l-81 72.999l67 80c-18 30.667 -31.5 63.834 -40.5 99.501s-13.5 72.5 -13.5 110.5c0 42.667 6 84.667 18 126s30.167 78.333 54.5 111s54.666 59 90.999 79s78.833 30 127.5 30c36 0 68.167 -5.16699 96.5 -15.5s53.833 -24.5 76.5 -42.5l60 73l82 -72l-72 -87
c17.333 -30 30.333 -62.667 39 -98s13 -70 13 -104c0 -68 -14.333 -130.333 -43 -187c-20 -42.667 -47.667 -77.5 -83 -104.5s-68.166 -43 -98.499 -48s-53.833 -7.5 -70.5 -7.5c-63.333 0 -118.333 18.333 -165 55zM335 104.999c26.667 0 51.3311 7 73.998 21
s39.834 31.167 51.501 51.5s19.834 39.5 24.501 57.5c10 36.667 15 69.667 15 99c0 31.333 -4.33301 63.333 -13 96l-242 -294c11.333 -8 25.333 -15.167 42 -21.5s32.667 -9.5 48 -9.5zM187.997 233.999l240.999 293c-25.333 24 -56.666 36 -93.999 36
c-26 0 -49.167 -6.33301 -69.5 -19s-37.333 -29.667 -51 -51s-24 -45.833 -31 -73.5s-10.5 -56.167 -10.5 -85.5c0 -36 5 -69.333 15 -100z" />
    <glyph glyph-name="Ugrave" unicode="&#xd9;" horiz-adv-x="653" 
d="M326 -14c-56.667 0 -105.335 12.333 -146.002 37c-41.333 25.333 -70.166 56.5 -86.499 93.5s-24.5 74.5 -24.5 112.5v438h128v-425c0 -40 11.167 -72.833 33.5 -98.5s54.5 -38.5 96.5 -38.5s73.833 12.833 95.5 38.5s32.5 58.5 32.5 98.5v425h128v-438
c0 -38 -6.66699 -72 -20 -102s-31.666 -55.5 -54.999 -76.5s-50.5 -37 -81.5 -48s-64.5 -16.5 -100.5 -16.5zM403.999 704l-217 112l59 83l191 -141z" />
    <glyph glyph-name="Uacute" unicode="&#xda;" horiz-adv-x="653" 
d="M326 -14c-56.667 0 -105.335 12.333 -146.002 37c-41.333 25.333 -70.166 56.5 -86.499 93.5s-24.5 74.5 -24.5 112.5v438h128v-425c0 -40 11.167 -72.833 33.5 -98.5s54.5 -38.5 96.5 -38.5s73.833 12.833 95.5 38.5s32.5 58.5 32.5 98.5v425h128v-438
c0 -38 -6.66699 -72 -20 -102s-31.666 -55.5 -54.999 -76.5s-50.5 -37 -81.5 -48s-64.5 -16.5 -100.5 -16.5zM288.999 704l-33 54l191 141l59 -83z" />
    <glyph glyph-name="Ucircumflex" unicode="&#xdb;" horiz-adv-x="653" 
d="M326 -14c-56.667 0 -105.335 12.333 -146.002 37c-41.333 25.333 -70.166 56.5 -86.499 93.5s-24.5 74.5 -24.5 112.5v438h128v-425c0 -40 11.167 -72.833 33.5 -98.5s54.5 -38.5 96.5 -38.5s73.833 12.833 95.5 38.5s32.5 58.5 32.5 98.5v425h128v-438
c0 -38 -6.66699 -72 -20 -102s-31.666 -55.5 -54.999 -76.5s-50.5 -37 -81.5 -48s-64.5 -16.5 -100.5 -16.5zM233.999 710l-64 45l115 130h92l113 -129l-64 -45l-96 96z" />
    <glyph glyph-name="Udieresis" unicode="&#xdc;" horiz-adv-x="653" 
d="M326 -14c-56.667 0 -105.335 12.333 -146.002 37c-41.333 25.333 -70.166 56.5 -86.499 93.5s-24.5 74.5 -24.5 112.5v438h128v-425c0 -40 11.167 -72.833 33.5 -98.5s54.5 -38.5 96.5 -38.5s73.833 12.833 95.5 38.5s32.5 58.5 32.5 98.5v425h128v-438
c0 -38 -6.66699 -72 -20 -102s-31.666 -55.5 -54.999 -76.5s-50.5 -37 -81.5 -48s-64.5 -16.5 -100.5 -16.5zM231.999 726c-23.333 0 -40.833 6.83301 -52.5 20.5s-17.5 28.834 -17.5 45.501c0 16 5.83301 30.833 17.5 44.5s29.167 20.5 52.5 20.5
c22.667 0 39.667 -6.83301 51 -20.5s17 -28.5 17 -44.5c0 -16.667 -5.66699 -31.834 -17 -45.501s-28.333 -20.5 -51 -20.5zM439.999 726c-23.333 0 -40.833 6.83301 -52.5 20.5s-17.5 28.834 -17.5 45.501c0 16 5.83301 30.833 17.5 44.5s29.167 20.5 52.5 20.5
c22.667 0 39.667 -6.83301 51 -20.5s17 -28.5 17 -44.5c0 -16.667 -5.66699 -31.834 -17 -45.501s-28.333 -20.5 -51 -20.5z" />
    <glyph glyph-name="Yacute" unicode="&#xdd;" horiz-adv-x="552" 
d="M214 0v268l-214 399h143l137 -265l131 265h141l-210 -399v-268h-128zM235 704l-33 54l191 141l59 -83z" />
    <glyph glyph-name="Thorn" unicode="&#xde;" horiz-adv-x="551" 
d="M73 0l-0.000976562 667h128v-103h73c32 0 61.5 -2.16699 88.5 -6.5s53.167 -12.833 78.5 -25.5c32 -16 55.667 -39.667 71 -71s23 -65 23 -101c0 -38 -7.33301 -72 -22 -102c-14 -30 -29.167 -52 -45.5 -66s-31.166 -24 -44.499 -30
c-22 -9.33301 -44.5 -15.833 -67.5 -19.5s-46.167 -5.5 -69.5 -5.5h-85v-137h-128zM200.999 252l68.999 0.000976562c18 0 34.333 1 49 3s27.334 5.66699 38.001 11c18 8.66699 31.167 20.667 39.5 36s12.5 31.666 12.5 48.999c0 18.667 -4.66699 36 -14 52
s-23 27.333 -41 34c-23.333 8 -50.333 12 -81 12h-72v-197z" />
    <glyph glyph-name="germandbls" unicode="&#xdf;" horiz-adv-x="598" 
d="M410 -11c-32 0 -62 5.16797 -90 15.501s-50.667 23.166 -68 38.499l48 96c12.667 -10.667 28.334 -20.667 47.001 -30s37 -14 55 -14c32.667 0 49 14 49 42c0 16.667 -5.5 30.5 -16.5 41.5s-29.167 22.833 -54.5 35.5c-40.667 20 -68.667 40.167 -84 60.5
s-23 48.833 -23 85.5c0 20 3.5 38.333 10.5 55s16.5 31.167 28.5 43.5s25.833 22 41.5 29s31.5 10.833 47.5 11.5c-2 22.667 -10 39.167 -24 49.5s-28.333 17.166 -43 20.499s-24 5 -28 5c-34 0 -59.333 -11.167 -76 -33.5s-25 -49.5 -25 -81.5v-459h-124v382h-66v100h67
c1.33301 47.333 14 86.666 38 117.999c26 32 55.167 53.333 87.5 64s63.166 16 92.499 16c35.333 0 67 -5.16699 95 -15.5s51.667 -24.666 71 -42.999s33.833 -39.5 43.5 -63.5s14.5 -48.333 14.5 -73v-86h-85c-14 0 -25.167 -3.16699 -33.5 -9.5
s-12.5 -15.166 -12.5 -26.499c0 -19.333 21.333 -40.333 64 -63c27.333 -16 50 -31 68 -45c12.667 -10.667 23.5 -25.834 32.5 -45.501s13.5 -41.167 13.5 -64.5c0 -37.333 -10.667 -69.333 -32 -96c-21.333 -25.333 -44.833 -41.666 -70.5 -48.999s-45.167 -11 -58.5 -11z
" />
    <glyph glyph-name="agrave" unicode="&#xe0;" horiz-adv-x="488" 
d="M191 -11c-20.667 0 -40.498 3.50098 -59.498 10.501s-35.833 17 -50.5 30s-26.5 29 -35.5 48s-13.5 40.5 -13.5 64.5c0 26 5.5 48.5 16.5 67.5s25.333 35 43 48s36.667 23 57 30s38.833 11.5 55.5 13.5c9.33301 1.33301 42.666 5.33301 99.999 12v7
c0 26.667 -6.83301 45.667 -20.5 57s-32.5 17 -56.5 17s-47 -5.16699 -69 -15.5s-38.667 -20.5 -50 -30.5l-41 87c14 14 40 27.333 78 40c40 12.667 74.333 19 103 19c30.667 0 57.5 -4.66699 80.5 -14s42 -22.5 57 -39.5s26 -36.833 33 -59.5s10.5 -46.334 10.5 -71.001
v-310h-114l-5 36c-13.333 -14.667 -30.333 -26.167 -51 -34.5s-43.334 -12.5 -68.001 -12.5zM220.002 92.001c16 0 31.5 3.33301 46.5 10s27.833 15 38.5 25v98c-40.667 -4.66699 -67.667 -8 -81 -10c-26.667 -5.33301 -45.167 -14.5 -55.5 -27.5s-15.5 -27.167 -15.5 -42.5
c0 -16 5.83301 -28.833 17.5 -38.5s28.167 -14.5 49.5 -14.5zM325.002 538.001l-217 112l59 83l191 -141z" />
    <glyph glyph-name="aacute" unicode="&#xe1;" horiz-adv-x="488" 
d="M191 -11c-20.667 0 -40.498 3.50098 -59.498 10.501s-35.833 17 -50.5 30s-26.5 29 -35.5 48s-13.5 40.5 -13.5 64.5c0 26 5.5 48.5 16.5 67.5s25.333 35 43 48s36.667 23 57 30s38.833 11.5 55.5 13.5c9.33301 1.33301 42.666 5.33301 99.999 12v7
c0 26.667 -6.83301 45.667 -20.5 57s-32.5 17 -56.5 17s-47 -5.16699 -69 -15.5s-38.667 -20.5 -50 -30.5l-41 87c14 14 40 27.333 78 40c40 12.667 74.333 19 103 19c30.667 0 57.5 -4.66699 80.5 -14s42 -22.5 57 -39.5s26 -36.833 33 -59.5s10.5 -46.334 10.5 -71.001
v-310h-114l-5 36c-13.333 -14.667 -30.333 -26.167 -51 -34.5s-43.334 -12.5 -68.001 -12.5zM220.002 92.001c16 0 31.5 3.33301 46.5 10s27.833 15 38.5 25v98c-40.667 -4.66699 -67.667 -8 -81 -10c-26.667 -5.33301 -45.167 -14.5 -55.5 -27.5s-15.5 -27.167 -15.5 -42.5
c0 -16 5.83301 -28.833 17.5 -38.5s28.167 -14.5 49.5 -14.5zM175.002 538.001l-33 54l191 141l59 -83z" />
    <glyph glyph-name="acircumflex" unicode="&#xe2;" horiz-adv-x="488" 
d="M191 -11c-20.667 0 -40.498 3.50098 -59.498 10.501s-35.833 17 -50.5 30s-26.5 29 -35.5 48s-13.5 40.5 -13.5 64.5c0 26 5.5 48.5 16.5 67.5s25.333 35 43 48s36.667 23 57 30s38.833 11.5 55.5 13.5c9.33301 1.33301 42.666 5.33301 99.999 12v7
c0 26.667 -6.83301 45.667 -20.5 57s-32.5 17 -56.5 17s-47 -5.16699 -69 -15.5s-38.667 -20.5 -50 -30.5l-41 87c14 14 40 27.333 78 40c40 12.667 74.333 19 103 19c30.667 0 57.5 -4.66699 80.5 -14s42 -22.5 57 -39.5s26 -36.833 33 -59.5s10.5 -46.334 10.5 -71.001
v-310h-114l-5 36c-13.333 -14.667 -30.333 -26.167 -51 -34.5s-43.334 -12.5 -68.001 -12.5zM220.002 92.001c16 0 31.5 3.33301 46.5 10s27.833 15 38.5 25v98c-40.667 -4.66699 -67.667 -8 -81 -10c-26.667 -5.33301 -45.167 -14.5 -55.5 -27.5s-15.5 -27.167 -15.5 -42.5
c0 -16 5.83301 -28.833 17.5 -38.5s28.167 -14.5 49.5 -14.5zM150.002 544.001l-64 45l115 130h92l113 -129l-64 -45l-96 96z" />
    <glyph glyph-name="atilde" unicode="&#xe3;" horiz-adv-x="488" 
d="M191 -11c-20.667 0 -40.498 3.50098 -59.498 10.501s-35.833 17 -50.5 30s-26.5 29 -35.5 48s-13.5 40.5 -13.5 64.5c0 26 5.5 48.5 16.5 67.5s25.333 35 43 48s36.667 23 57 30s38.833 11.5 55.5 13.5c9.33301 1.33301 42.666 5.33301 99.999 12v7
c0 26.667 -6.83301 45.667 -20.5 57s-32.5 17 -56.5 17s-47 -5.16699 -69 -15.5s-38.667 -20.5 -50 -30.5l-41 87c14 14 40 27.333 78 40c40 12.667 74.333 19 103 19c30.667 0 57.5 -4.66699 80.5 -14s42 -22.5 57 -39.5s26 -36.833 33 -59.5s10.5 -46.334 10.5 -71.001
v-310h-114l-5 36c-13.333 -14.667 -30.333 -26.167 -51 -34.5s-43.334 -12.5 -68.001 -12.5zM220.002 92.001c16 0 31.5 3.33301 46.5 10s27.833 15 38.5 25v98c-40.667 -4.66699 -67.667 -8 -81 -10c-26.667 -5.33301 -45.167 -14.5 -55.5 -27.5s-15.5 -27.167 -15.5 -42.5
c0 -16 5.83301 -28.833 17.5 -38.5s28.167 -14.5 49.5 -14.5zM119.002 540.001l-68 38c12 34 28.5 61.333 49.5 82s45.5 31 73.5 31c17.333 0 41.666 -9.66699 72.999 -29c26.667 -18.667 45.334 -28 56.001 -28c6 0 14.667 3.83301 26 11.5s22.333 24.834 33 51.501l69 -37
c-9.33301 -34 -25.333 -61.5 -48 -82.5s-48.334 -31.5 -77.001 -31.5c-18.667 0 -43.334 10 -74.001 30c-27.333 18 -45.666 27 -54.999 27c-7.33301 0 -16.166 -3.83301 -26.499 -11.5s-20.833 -24.834 -31.5 -51.501z" />
    <glyph glyph-name="adieresis" unicode="&#xe4;" horiz-adv-x="488" 
d="M191 -11c-20.667 0 -40.498 3.50098 -59.498 10.501s-35.833 17 -50.5 30s-26.5 29 -35.5 48s-13.5 40.5 -13.5 64.5c0 26 5.5 48.5 16.5 67.5s25.333 35 43 48s36.667 23 57 30s38.833 11.5 55.5 13.5c9.33301 1.33301 42.666 5.33301 99.999 12v7
c0 26.667 -6.83301 45.667 -20.5 57s-32.5 17 -56.5 17s-47 -5.16699 -69 -15.5s-38.667 -20.5 -50 -30.5l-41 87c14 14 40 27.333 78 40c40 12.667 74.333 19 103 19c30.667 0 57.5 -4.66699 80.5 -14s42 -22.5 57 -39.5s26 -36.833 33 -59.5s10.5 -46.334 10.5 -71.001
v-310h-114l-5 36c-13.333 -14.667 -30.333 -26.167 -51 -34.5s-43.334 -12.5 -68.001 -12.5zM220.002 92.001c16 0 31.5 3.33301 46.5 10s27.833 15 38.5 25v98c-40.667 -4.66699 -67.667 -8 -81 -10c-26.667 -5.33301 -45.167 -14.5 -55.5 -27.5s-15.5 -27.167 -15.5 -42.5
c0 -16 5.83301 -28.833 17.5 -38.5s28.167 -14.5 49.5 -14.5zM148.002 560.001c-23.333 0 -40.833 6.83301 -52.5 20.5s-17.5 28.834 -17.5 45.501c0 16 5.83301 30.833 17.5 44.5s29.167 20.5 52.5 20.5c22.667 0 39.667 -6.83301 51 -20.5s17 -28.5 17 -44.5
c0 -16.667 -5.66699 -31.834 -17 -45.501s-28.333 -20.5 -51 -20.5zM356.002 560.001c-23.333 0 -40.833 6.83301 -52.5 20.5s-17.5 28.834 -17.5 45.501c0 16 5.83301 30.833 17.5 44.5s29.167 20.5 52.5 20.5c22.667 0 39.667 -6.83301 51 -20.5s17 -28.5 17 -44.5
c0 -16.667 -5.66699 -31.834 -17 -45.501s-28.333 -20.5 -51 -20.5z" />
    <glyph glyph-name="aring" unicode="&#xe5;" horiz-adv-x="488" 
d="M191 -11c-20.667 0 -40.498 3.50098 -59.498 10.501s-35.833 17 -50.5 30s-26.5 29 -35.5 48s-13.5 40.5 -13.5 64.5c0 26 5.5 48.5 16.5 67.5s25.333 35 43 48s36.667 23 57 30s38.833 11.5 55.5 13.5c9.33301 1.33301 42.666 5.33301 99.999 12v7
c0 26.667 -6.83301 45.667 -20.5 57s-32.5 17 -56.5 17s-47 -5.16699 -69 -15.5s-38.667 -20.5 -50 -30.5l-41 87c14 14 40 27.333 78 40c40 12.667 74.333 19 103 19c30.667 0 57.5 -4.66699 80.5 -14s42 -22.5 57 -39.5s26 -36.833 33 -59.5s10.5 -46.334 10.5 -71.001
v-310h-114l-5 36c-13.333 -14.667 -30.333 -26.167 -51 -34.5s-43.334 -12.5 -68.001 -12.5zM220.002 92.001c16 0 31.5 3.33301 46.5 10s27.833 15 38.5 25v98c-40.667 -4.66699 -67.667 -8 -81 -10c-26.667 -5.33301 -45.167 -14.5 -55.5 -27.5s-15.5 -27.167 -15.5 -42.5
c0 -16 5.83301 -28.833 17.5 -38.5s28.167 -14.5 49.5 -14.5zM257.002 529.001c-30 0 -54.832 10.001 -74.499 30.001s-29.5 46 -29.5 78c0 17.333 3.16699 32.833 9.5 46.5s14.666 25.167 24.999 34.5s21.833 16.333 34.5 21s25.667 7 39 7c29.333 0 53.5 -10.333 72.5 -31
s28.5 -46.334 28.5 -77.001c0 -14.667 -2.5 -28.667 -7.5 -42s-12.167 -25 -21.5 -35s-20.5 -17.833 -33.5 -23.5s-27.167 -8.5 -42.5 -8.5zM257.003 592.002c12.667 0 22.5 4.33301 29.5 13s10.5 19.667 10.5 33s-3.5 24.333 -10.5 33s-16.833 13 -29.5 13
c-12 0 -21.5 -4.33301 -28.5 -13s-10.5 -19.667 -10.5 -33s3.5 -24.333 10.5 -33s16.5 -13 28.5 -13z" />
    <glyph glyph-name="ae" unicode="&#xe6;" horiz-adv-x="770" 
d="M200 -11c-22.667 0 -44.1699 3.33496 -64.5029 10.002s-38.166 16.5 -53.499 29.5s-27.5 29.167 -36.5 48.5s-13.5 41.666 -13.5 66.999c0 42 15 75.667 45 101c32 26 66 42.333 102 49c42 7.33301 73.667 11 95 11h29v27c0 18.667 -6.33301 33.667 -19 45
s-29.667 17 -51 17c-24 0 -45.833 -3.83301 -65.5 -11.5s-39.5 -19.167 -59.5 -34.5l-41 88c20 16 46.667 29.667 80 41c34 11.333 64.333 17 91 17c64 0 111 -20 141 -60c40 40 89.333 60 148 60c54 0 98 -15 132 -45c34.667 -30 57 -65.333 67 -106c10 -40 15 -77 15 -111
v-22h-312c2.66699 -40.667 15.334 -70 38.001 -88s52 -27 88 -27c32 0 60 5 84 15s40.333 19.333 49 28l33 -101c-14.667 -10.667 -28.667 -18.334 -42 -23.001c-10 -4.66699 -29.667 -10 -59 -16c-28 -6 -55.333 -9 -82 -9c-34 0 -65.333 5.83301 -94 17.5
s-53.334 29.167 -74.001 52.5c-19.333 -22 -41.666 -39.167 -66.999 -51.5s-59.666 -18.5 -102.999 -18.5zM216.997 90.002c18 0 34.333 4.49805 49 13.498s24.667 19.333 30 31s8 21.5 8 29.5v52h-31c-38 0 -67.167 -7.16699 -87.5 -21.5s-30.5 -31.166 -30.5 -50.499
c0 -17.333 5.5 -30.666 16.5 -39.999s26.167 -14 45.5 -14zM431.997 299l182.998 -0.000976562c-2 27.333 -9.83301 48.333 -23.5 63s-26.667 23.834 -39 27.501s-20.833 5.5 -25.5 5.5c-21.333 0 -41.666 -8 -60.999 -24s-30.666 -40 -33.999 -72z" />
    <glyph glyph-name="ccedilla" unicode="&#xe7;" horiz-adv-x="463" 
d="M257 -11c-29.333 0 -57.501 5 -84.501 15s-50.833 25.333 -71.5 46s-37.167 46.667 -49.5 78s-18.5 68.333 -18.5 111c0 60 12 110.667 36 152c24.667 40.667 54.334 68 89.001 82s66.667 21 96 21c50.667 0 91.334 -12 122.001 -36s53 -49.667 67 -77l-92 -62
c-10 17.333 -22.5 33.5 -37.5 48.5s-34.5 22.5 -58.5 22.5c-26.667 0 -49.834 -11.833 -69.501 -35.5s-29.5 -60.5 -29.5 -110.5c0 -48 10 -84.667 30 -110s49 -38 87 -38c34 0 61.167 5.16699 81.5 15.5s35.833 20.833 46.5 31.5l36 -102
c-18 -13.333 -42.5 -25.333 -73.5 -36s-66.5 -16 -106.5 -16zM149.999 -181l59 137h110l-81 -137h-88z" />
    <glyph glyph-name="egrave" unicode="&#xe8;" horiz-adv-x="499" 
d="M267 -11c-31.333 0 -61.1689 5.00391 -89.502 15.0039s-53.166 25.5 -74.499 46.5s-38.333 47.167 -51 78.5s-19 68.666 -19 111.999c0 40.667 5.83301 76.667 17.5 108s27.667 57.666 48 78.999s44 37.666 71 48.999s55.833 17 86.5 17c54 0 98 -15 132 -45
c34.667 -30 57 -65.333 67 -106c10 -40 15 -77 15 -111v-22h-312c2.66699 -40.667 15.334 -70 38.001 -88s52 -27 88 -27c32 0 60 5 84 15s40.333 19.333 49 28l33 -101c-14.667 -10.667 -28.667 -18.334 -42 -23.001c-8 -4 -27.667 -9 -59 -15
c-30.667 -6.66699 -58 -10 -82 -10zM160.997 299.004l182.999 -0.000976562c-2 27.333 -9.83301 48.333 -23.5 63s-26.834 23.834 -39.501 27.501s-21 5.5 -25 5.5c-21.333 0 -41.666 -8 -60.999 -24s-30.666 -40 -33.999 -72zM343.996 538.003l-217 112l59 83l191 -141z
" />
    <glyph glyph-name="eacute" unicode="&#xe9;" horiz-adv-x="499" 
d="M267 -11c-31.333 0 -61.1689 5.00391 -89.502 15.0039s-53.166 25.5 -74.499 46.5s-38.333 47.167 -51 78.5s-19 68.666 -19 111.999c0 40.667 5.83301 76.667 17.5 108s27.667 57.666 48 78.999s44 37.666 71 48.999s55.833 17 86.5 17c54 0 98 -15 132 -45
c34.667 -30 57 -65.333 67 -106c10 -40 15 -77 15 -111v-22h-312c2.66699 -40.667 15.334 -70 38.001 -88s52 -27 88 -27c32 0 60 5 84 15s40.333 19.333 49 28l33 -101c-14.667 -10.667 -28.667 -18.334 -42 -23.001c-8 -4 -27.667 -9 -59 -15
c-30.667 -6.66699 -58 -10 -82 -10zM160.997 299.004l182.999 -0.000976562c-2 27.333 -9.83301 48.333 -23.5 63s-26.834 23.834 -39.501 27.501s-21 5.5 -25 5.5c-21.333 0 -41.666 -8 -60.999 -24s-30.666 -40 -33.999 -72zM192.996 538.003l-33 54l191 141l59 -83z" />
    <glyph glyph-name="ecircumflex" unicode="&#xea;" horiz-adv-x="499" 
d="M267 -11c-31.333 0 -61.1689 5.00391 -89.502 15.0039s-53.166 25.5 -74.499 46.5s-38.333 47.167 -51 78.5s-19 68.666 -19 111.999c0 40.667 5.83301 76.667 17.5 108s27.667 57.666 48 78.999s44 37.666 71 48.999s55.833 17 86.5 17c54 0 98 -15 132 -45
c34.667 -30 57 -65.333 67 -106c10 -40 15 -77 15 -111v-22h-312c2.66699 -40.667 15.334 -70 38.001 -88s52 -27 88 -27c32 0 60 5 84 15s40.333 19.333 49 28l33 -101c-14.667 -10.667 -28.667 -18.334 -42 -23.001c-8 -4 -27.667 -9 -59 -15
c-30.667 -6.66699 -58 -10 -82 -10zM160.997 299.004l182.999 -0.000976562c-2 27.333 -9.83301 48.333 -23.5 63s-26.834 23.834 -39.501 27.501s-21 5.5 -25 5.5c-21.333 0 -41.666 -8 -60.999 -24s-30.666 -40 -33.999 -72zM155.996 544.003l-64 45l115 130h92l113 -129
l-64 -45l-96 96z" />
    <glyph glyph-name="edieresis" unicode="&#xeb;" horiz-adv-x="499" 
d="M267 -11c-31.333 0 -61.1689 5.00391 -89.502 15.0039s-53.166 25.5 -74.499 46.5s-38.333 47.167 -51 78.5s-19 68.666 -19 111.999c0 40.667 5.83301 76.667 17.5 108s27.667 57.666 48 78.999s44 37.666 71 48.999s55.833 17 86.5 17c54 0 98 -15 132 -45
c34.667 -30 57 -65.333 67 -106c10 -40 15 -77 15 -111v-22h-312c2.66699 -40.667 15.334 -70 38.001 -88s52 -27 88 -27c32 0 60 5 84 15s40.333 19.333 49 28l33 -101c-14.667 -10.667 -28.667 -18.334 -42 -23.001c-8 -4 -27.667 -9 -59 -15
c-30.667 -6.66699 -58 -10 -82 -10zM160.997 299.004l182.999 -0.000976562c-2 27.333 -9.83301 48.333 -23.5 63s-26.834 23.834 -39.501 27.501s-21 5.5 -25 5.5c-21.333 0 -41.666 -8 -60.999 -24s-30.666 -40 -33.999 -72zM162.996 560.003
c-23.333 0 -40.833 6.83301 -52.5 20.5s-17.5 28.834 -17.5 45.501c0 16 5.83301 30.833 17.5 44.5s29.167 20.5 52.5 20.5c22.667 0 39.667 -6.83301 51 -20.5s17 -28.5 17 -44.5c0 -16.667 -5.66699 -31.834 -17 -45.501s-28.333 -20.5 -51 -20.5zM370.996 560.003
c-23.333 0 -40.833 6.83301 -52.5 20.5s-17.5 28.834 -17.5 45.501c0 16 5.83301 30.833 17.5 44.5s29.167 20.5 52.5 20.5c22.667 0 39.667 -6.83301 51 -20.5s17 -28.5 17 -44.5c0 -16.667 -5.66699 -31.834 -17 -45.501s-28.333 -20.5 -51 -20.5z" />
    <glyph glyph-name="igrave" unicode="&#xec;" horiz-adv-x="247" 
d="M62 0v482h123v-482h-123zM219 538l-217 112l59 83l191 -141z" />
    <glyph glyph-name="iacute" unicode="&#xed;" horiz-adv-x="247" 
d="M62 0v482h123v-482h-123zM34 538l-33 54l191 141l59 -83z" />
    <glyph glyph-name="icircumflex" unicode="&#xee;" horiz-adv-x="247" 
d="M62 0v482h123v-482h-123zM34 544l-64 45l115 130h92l113 -129l-64 -45l-96 96z" />
    <glyph glyph-name="idieresis" unicode="&#xef;" horiz-adv-x="247" 
d="M62 0v482h123v-482h-123zM27 560c-23.333 0 -40.833 6.83301 -52.5 20.5s-17.5 28.834 -17.5 45.501c0 16 5.83301 30.833 17.5 44.5s29.167 20.5 52.5 20.5c22.667 0 39.667 -6.83301 51 -20.5s17 -28.5 17 -44.5c0 -16.667 -5.66699 -31.834 -17 -45.501
s-28.333 -20.5 -51 -20.5zM235 560c-23.333 0 -40.833 6.83301 -52.5 20.5s-17.5 28.834 -17.5 45.501c0 16 5.83301 30.833 17.5 44.5s29.167 20.5 52.5 20.5c22.667 0 39.667 -6.83301 51 -20.5s17 -28.5 17 -44.5c0 -16.667 -5.66699 -31.834 -17 -45.501
s-28.333 -20.5 -51 -20.5z" />
    <glyph glyph-name="eth" unicode="&#xf0;" horiz-adv-x="541" 
d="M271 -10c-31.333 0 -61.168 5.16797 -89.501 15.501s-53.166 26 -74.499 47s-38.333 47.167 -51 78.5s-19 67.666 -19 108.999c0 53.333 10 100 30 140c20.667 40 46.667 68.167 78 84.5s64.333 24.5 99 24.5c16 0 31.5 -2 46.5 -6s28.833 -10.333 41.5 -19
c-13.333 30 -39 56.333 -77 79c-37.333 22.667 -73.666 37 -108.999 43l19 94c25.333 -4.66699 49.166 -10.5 71.499 -17.5s43.166 -15.833 62.499 -26.5l55 74l73 -58l-53 -71c27.333 -23.333 49.666 -50.5 66.999 -81.5s30.833 -61.833 40.5 -92.5s15.834 -59 18.501 -85
s4 -45.333 4 -58c0 -41.333 -5 -78.833 -15 -112.5s-24.667 -62.5 -44 -86.5s-43.666 -42.5 -72.999 -55.5s-63 -19.5 -101 -19.5zM267.998 96.001c14.667 0 28.668 3.66699 42.001 11s25 18 35 32s17.667 30.167 23 48.5s8 37.5 8 57.5c0 19.333 -2 40 -6 62
s-8.66699 39.333 -14 52c-28.667 16.667 -57.667 25 -87 25c-32 0 -58.5 -11.833 -79.5 -35.5s-31.5 -59.5 -31.5 -107.5c0 -24 3.16699 -45 9.5 -63s14.666 -33.167 24.999 -45.5s22 -21.5 35 -27.5s26.5 -9 40.5 -9z" />
    <glyph glyph-name="ntilde" unicode="&#xf1;" horiz-adv-x="552" 
d="M62 0v482h113l6 -38c19.333 16 41.166 28.333 65.499 37s48.833 13 73.5 13c38.667 0 71.667 -8.66699 99 -26s46.5 -42.833 57.5 -76.5s16.5 -69.167 16.5 -106.5v-285h-124v275c0 36.667 -7.5 65 -22.5 85s-36.5 30 -64.5 30c-19.333 0 -37.166 -5 -53.499 -15
s-30.5 -21 -42.5 -33v-342h-124zM153 540l-68 38c12 34 28.5 61.333 49.5 82s45.5 31 73.5 31c17.333 0 41.666 -9.66699 72.999 -29c26.667 -18.667 45.334 -28 56.001 -28c6 0 14.667 3.83301 26 11.5s22.333 24.834 33 51.501l69 -37
c-9.33301 -34 -25.333 -61.5 -48 -82.5s-48.334 -31.5 -77.001 -31.5c-18.667 0 -43.334 10 -74.001 30c-27.333 18 -45.666 27 -54.999 27c-7.33301 0 -16.166 -3.83301 -26.499 -11.5s-20.833 -24.834 -31.5 -51.501z" />
    <glyph glyph-name="ograve" unicode="&#xf2;" horiz-adv-x="528" 
d="M264 -11c-38.667 0 -72.501 7.33496 -101.501 22.002s-53 34 -72 58s-33.333 51.167 -43 81.5s-14.5 61.166 -14.5 92.499c0 48.667 10.667 93.667 32 135c22 41.333 51 71 87 89s73.333 27 112 27c54 0 99.667 -14.667 137 -44
c36.667 -28.667 61.334 -62.667 74.001 -102c13.333 -41.333 20 -76.333 20 -105c0 -48.667 -11 -94 -33 -136c-16.667 -32.667 -38.5 -58.334 -65.5 -77.001s-52.167 -30.167 -75.5 -34.5s-42.333 -6.5 -57 -6.5zM263.999 96.002c21.333 -1.33301 39.333 3.83496 54 15.502
s26.167 25.5 34.5 41.5s14.166 32.5 17.499 49.5s4.33301 30.5 3 40.5c0 36 -7.5 66.333 -22.5 91s-31 40.167 -48 46.5s-29.833 9.16602 -38.5 8.49902c-28 0 -51.333 -10 -70 -30c-15.333 -16.667 -25.666 -35.167 -30.999 -55.5s-8 -40.5 -8 -60.5
c0 -20.667 2.33301 -39.834 7 -57.501s11.5 -33.167 20.5 -46.5s20.333 -23.833 34 -31.5s29.5 -11.5 47.5 -11.5zM356.999 538.003l-217 112l59 83l191 -141z" />
    <glyph glyph-name="oacute" unicode="&#xf3;" horiz-adv-x="528" 
d="M264 -11c-38.667 0 -72.501 7.33496 -101.501 22.002s-53 34 -72 58s-33.333 51.167 -43 81.5s-14.5 61.166 -14.5 92.499c0 48.667 10.667 93.667 32 135c22 41.333 51 71 87 89s73.333 27 112 27c54 0 99.667 -14.667 137 -44
c36.667 -28.667 61.334 -62.667 74.001 -102c13.333 -41.333 20 -76.333 20 -105c0 -48.667 -11 -94 -33 -136c-16.667 -32.667 -38.5 -58.334 -65.5 -77.001s-52.167 -30.167 -75.5 -34.5s-42.333 -6.5 -57 -6.5zM263.999 96.002c21.333 -1.33301 39.333 3.83496 54 15.502
s26.167 25.5 34.5 41.5s14.166 32.5 17.499 49.5s4.33301 30.5 3 40.5c0 36 -7.5 66.333 -22.5 91s-31 40.167 -48 46.5s-29.833 9.16602 -38.5 8.49902c-28 0 -51.333 -10 -70 -30c-15.333 -16.667 -25.666 -35.167 -30.999 -55.5s-8 -40.5 -8 -60.5
c0 -20.667 2.33301 -39.834 7 -57.501s11.5 -33.167 20.5 -46.5s20.333 -23.833 34 -31.5s29.5 -11.5 47.5 -11.5zM193.999 538.003l-33 54l191 141l59 -83z" />
    <glyph glyph-name="ocircumflex" unicode="&#xf4;" horiz-adv-x="528" 
d="M264 -11c-38.667 0 -72.501 7.33496 -101.501 22.002s-53 34 -72 58s-33.333 51.167 -43 81.5s-14.5 61.166 -14.5 92.499c0 48.667 10.667 93.667 32 135c22 41.333 51 71 87 89s73.333 27 112 27c54 0 99.667 -14.667 137 -44
c36.667 -28.667 61.334 -62.667 74.001 -102c13.333 -41.333 20 -76.333 20 -105c0 -48.667 -11 -94 -33 -136c-16.667 -32.667 -38.5 -58.334 -65.5 -77.001s-52.167 -30.167 -75.5 -34.5s-42.333 -6.5 -57 -6.5zM263.999 96.002c21.333 -1.33301 39.333 3.83496 54 15.502
s26.167 25.5 34.5 41.5s14.166 32.5 17.499 49.5s4.33301 30.5 3 40.5c0 36 -7.5 66.333 -22.5 91s-31 40.167 -48 46.5s-29.833 9.16602 -38.5 8.49902c-28 0 -51.333 -10 -70 -30c-15.333 -16.667 -25.666 -35.167 -30.999 -55.5s-8 -40.5 -8 -60.5
c0 -20.667 2.33301 -39.834 7 -57.501s11.5 -33.167 20.5 -46.5s20.333 -23.833 34 -31.5s29.5 -11.5 47.5 -11.5zM165.999 544.003l-64 45l115 130h92l113 -129l-64 -45l-96 96z" />
    <glyph glyph-name="otilde" unicode="&#xf5;" horiz-adv-x="528" 
d="M264 -11c-38.667 0 -72.501 7.33496 -101.501 22.002s-53 34 -72 58s-33.333 51.167 -43 81.5s-14.5 61.166 -14.5 92.499c0 48.667 10.667 93.667 32 135c22 41.333 51 71 87 89s73.333 27 112 27c54 0 99.667 -14.667 137 -44
c36.667 -28.667 61.334 -62.667 74.001 -102c13.333 -41.333 20 -76.333 20 -105c0 -48.667 -11 -94 -33 -136c-16.667 -32.667 -38.5 -58.334 -65.5 -77.001s-52.167 -30.167 -75.5 -34.5s-42.333 -6.5 -57 -6.5zM263.999 96.002c21.333 -1.33301 39.333 3.83496 54 15.502
s26.167 25.5 34.5 41.5s14.166 32.5 17.499 49.5s4.33301 30.5 3 40.5c0 36 -7.5 66.333 -22.5 91s-31 40.167 -48 46.5s-29.833 9.16602 -38.5 8.49902c-28 0 -51.333 -10 -70 -30c-15.333 -16.667 -25.666 -35.167 -30.999 -55.5s-8 -40.5 -8 -60.5
c0 -20.667 2.33301 -39.834 7 -57.501s11.5 -33.167 20.5 -46.5s20.333 -23.833 34 -31.5s29.5 -11.5 47.5 -11.5zM135.999 540.003l-68 38c12 34 28.5 61.333 49.5 82s45.5 31 73.5 31c17.333 0 41.666 -9.66699 72.999 -29c26.667 -18.667 45.334 -28 56.001 -28
c6 0 14.667 3.83301 26 11.5s22.333 24.834 33 51.501l69 -37c-9.33301 -34 -25.333 -61.5 -48 -82.5s-48.334 -31.5 -77.001 -31.5c-18.667 0 -43.334 10 -74.001 30c-27.333 18 -45.666 27 -54.999 27c-7.33301 0 -16.166 -3.83301 -26.499 -11.5
s-20.833 -24.834 -31.5 -51.501z" />
    <glyph glyph-name="odieresis" unicode="&#xf6;" horiz-adv-x="528" 
d="M264 -11c-38.667 0 -72.501 7.33496 -101.501 22.002s-53 34 -72 58s-33.333 51.167 -43 81.5s-14.5 61.166 -14.5 92.499c0 48.667 10.667 93.667 32 135c22 41.333 51 71 87 89s73.333 27 112 27c54 0 99.667 -14.667 137 -44
c36.667 -28.667 61.334 -62.667 74.001 -102c13.333 -41.333 20 -76.333 20 -105c0 -48.667 -11 -94 -33 -136c-16.667 -32.667 -38.5 -58.334 -65.5 -77.001s-52.167 -30.167 -75.5 -34.5s-42.333 -6.5 -57 -6.5zM263.999 96.002c21.333 -1.33301 39.333 3.83496 54 15.502
s26.167 25.5 34.5 41.5s14.166 32.5 17.499 49.5s4.33301 30.5 3 40.5c0 36 -7.5 66.333 -22.5 91s-31 40.167 -48 46.5s-29.833 9.16602 -38.5 8.49902c-28 0 -51.333 -10 -70 -30c-15.333 -16.667 -25.666 -35.167 -30.999 -55.5s-8 -40.5 -8 -60.5
c0 -20.667 2.33301 -39.834 7 -57.501s11.5 -33.167 20.5 -46.5s20.333 -23.833 34 -31.5s29.5 -11.5 47.5 -11.5zM166.999 560.003c-23.333 0 -40.833 6.83301 -52.5 20.5s-17.5 28.834 -17.5 45.501c0 16 5.83301 30.833 17.5 44.5s29.167 20.5 52.5 20.5
c22.667 0 39.667 -6.83301 51 -20.5s17 -28.5 17 -44.5c0 -16.667 -5.66699 -31.834 -17 -45.501s-28.333 -20.5 -51 -20.5zM374.999 560.003c-23.333 0 -40.833 6.83301 -52.5 20.5s-17.5 28.834 -17.5 45.501c0 16 5.83301 30.833 17.5 44.5s29.167 20.5 52.5 20.5
c22.667 0 39.667 -6.83301 51 -20.5s17 -28.5 17 -44.5c0 -16.667 -5.66699 -31.834 -17 -45.501s-28.333 -20.5 -51 -20.5z" />
    <glyph glyph-name="divide" unicode="&#xf7;" 
d="M257 72c-22 0 -40.167 7.83301 -54.5 23.5s-21.5 34.167 -21.5 55.5c0 20.667 7.16699 38.834 21.5 54.501s32.5 23.5 54.5 23.5s40.167 -7.83301 54.5 -23.5s21.5 -33.834 21.5 -54.501c0 -21.333 -7.16699 -39.833 -21.5 -55.5s-32.5 -23.5 -54.5 -23.5zM22 275v110
h468v-110h-468zM257 443c-22 0 -40.167 8 -54.5 24s-21.5 34.333 -21.5 55s7.16699 39 21.5 55s32.5 24 54.5 24s40.167 -8 54.5 -24s21.5 -34.333 21.5 -55s-7.16699 -39 -21.5 -55s-32.5 -24 -54.5 -24z" />
    <glyph glyph-name="oslash" unicode="&#xf8;" horiz-adv-x="528" 
d="M129 -53l-65 47.001l39 61c-23.333 24.667 -40.833 53.5 -52.5 86.5s-17.5 66.833 -17.5 101.5c0 48.667 10.667 93.667 32 135c22 41.333 51 71 87 89s73.333 27 112 27c34.667 0 69.334 -7.66699 104.001 -23l36 56l65 -47l-37 -58
c21.333 -24 37.166 -51.333 47.499 -82s15.5 -63 15.5 -97c0 -48.667 -11 -94 -33 -136c-16.667 -32.667 -38.5 -58.334 -65.5 -77.001s-52.167 -30.167 -75.5 -34.5s-42.333 -6.5 -57 -6.5c-36.667 0 -68.667 6.33301 -96 19zM264 94.001
c20.667 -0.666992 38.166 3.99902 52.499 13.999s25.833 22.5 34.5 37.5s14.834 31.333 18.501 49s5.16699 33.834 4.5 48.501c0 24 -3 47.667 -9 71l-136 -215c12 -3.33301 23.667 -5 35 -5zM167.999 158l142.999 223.001h1c-12.667 6.66699 -28.667 10 -48 10
c-29.333 1.33301 -53 -8.33398 -71 -29.001c-18 -20 -29.167 -41.333 -33.5 -64s-6.16602 -41 -5.49902 -55c0 -30 4.66699 -58.333 14 -85z" />
    <glyph glyph-name="ugrave" unicode="&#xf9;" horiz-adv-x="550" 
d="M232 -10c-56.667 0 -99.666 17 -128.999 51s-44 85.333 -44 154v287h124v-274c0 -33.333 6 -60.333 18 -81s32.667 -31 62 -31c24 0 44.333 4.83301 61 14.5s30 18.834 40 27.501v344h124v-482h-114l-4 38c-22 -18.667 -44.833 -31.334 -68.5 -38.001
s-46.834 -10 -69.501 -10zM360.001 538l-217 112l59 83l191 -141z" />
    <glyph glyph-name="uacute" unicode="&#xfa;" horiz-adv-x="550" 
d="M232 -10c-56.667 0 -99.666 17 -128.999 51s-44 85.333 -44 154v287h124v-274c0 -33.333 6 -60.333 18 -81s32.667 -31 62 -31c24 0 44.333 4.83301 61 14.5s30 18.834 40 27.501v344h124v-482h-114l-4 38c-22 -18.667 -44.833 -31.334 -68.5 -38.001
s-46.834 -10 -69.501 -10zM216.001 538l-33 54l191 141l59 -83z" />
    <glyph glyph-name="ucircumflex" unicode="&#xfb;" horiz-adv-x="550" 
d="M232 -10c-56.667 0 -99.666 17 -128.999 51s-44 85.333 -44 154v287h124v-274c0 -33.333 6 -60.333 18 -81s32.667 -31 62 -31c24 0 44.333 4.83301 61 14.5s30 18.834 40 27.501v344h124v-482h-114l-4 38c-22 -18.667 -44.833 -31.334 -68.5 -38.001
s-46.834 -10 -69.501 -10zM183.001 544l-64 45l115 130h92l113 -129l-64 -45l-96 96z" />
    <glyph glyph-name="udieresis" unicode="&#xfc;" horiz-adv-x="550" 
d="M232 -10c-56.667 0 -99.666 17 -128.999 51s-44 85.333 -44 154v287h124v-274c0 -33.333 6 -60.333 18 -81s32.667 -31 62 -31c24 0 44.333 4.83301 61 14.5s30 18.834 40 27.501v344h124v-482h-114l-4 38c-22 -18.667 -44.833 -31.334 -68.5 -38.001
s-46.834 -10 -69.501 -10zM172.001 560c-23.333 0 -40.833 6.83301 -52.5 20.5s-17.5 28.834 -17.5 45.501c0 16 5.83301 30.833 17.5 44.5s29.167 20.5 52.5 20.5c22.667 0 39.667 -6.83301 51 -20.5s17 -28.5 17 -44.5c0 -16.667 -5.66699 -31.834 -17 -45.501
s-28.333 -20.5 -51 -20.5zM380.001 560c-23.333 0 -40.833 6.83301 -52.5 20.5s-17.5 28.834 -17.5 45.501c0 16 5.83301 30.833 17.5 44.5s29.167 20.5 52.5 20.5c22.667 0 39.667 -6.83301 51 -20.5s17 -28.5 17 -44.5c0 -16.667 -5.66699 -31.834 -17 -45.501
s-28.333 -20.5 -51 -20.5z" />
    <glyph glyph-name="yacute" unicode="&#xfd;" horiz-adv-x="503" 
d="M37 -191l-10.9971 111.001c36 0 68.167 4.33301 96.5 13s50.166 22.667 65.499 42c2.66699 3.33301 5 7 7 11s4.33301 8 7 12l-198 484h133l134 -370c28.667 76 48 133 58 171c25.333 93.333 42.666 159.666 51.999 198.999h122
c-24.667 -98 -50.834 -186.667 -78.501 -266s-55.5 -147.333 -83.5 -204c-26.667 -50.667 -50.667 -90 -72 -118c-21.333 -26 -52.333 -46.5 -93 -61.5s-87 -22.833 -139 -23.5zM197.003 538.001l-33 54l191 141l59 -83z" />
    <glyph glyph-name="thorn" unicode="&#xfe;" horiz-adv-x="552" 
d="M69 -189l0.000976562 856.001h124v-217c11.333 10.667 26.166 20.667 44.499 30s39.833 14 64.5 14c46 0 85 -14 117 -42s53.667 -62 65 -102c11.333 -42 17 -78 17 -108c0 -50.667 -11.333 -96.834 -34 -138.501s-52.667 -71.167 -90 -88.5s-77 -26 -119 -26
c-20 0 -41.333 4.66699 -64 14v-192h-125zM251.001 97.001c24.667 -0.666992 45.4971 3.99902 62.4971 13.999s30.5 22.333 40.5 37s17 30.334 21 47.001s5.66699 31.667 5 45c0.666992 29.333 -5 57.166 -17 83.499s-26.167 44.333 -42.5 54s-31.166 13.834 -44.499 12.501
c-17.333 0 -33.666 -4.83301 -48.999 -14.5s-26.666 -20.167 -33.999 -31.5v-233c22 -9.33301 41.333 -14 58 -14z" />
    <glyph glyph-name="ydieresis" unicode="&#xff;" horiz-adv-x="503" 
d="M37 -191l-10.9971 111.001c36 0 68.167 4.33301 96.5 13s50.166 22.667 65.499 42c2.66699 3.33301 5 7 7 11s4.33301 8 7 12l-198 484h133l134 -370c28.667 76 48 133 58 171c25.333 93.333 42.666 159.666 51.999 198.999h122
c-24.667 -98 -50.834 -186.667 -78.501 -266s-55.5 -147.333 -83.5 -204c-26.667 -50.667 -50.667 -90 -72 -118c-21.333 -26 -52.333 -46.5 -93 -61.5s-87 -22.833 -139 -23.5zM165.003 560.001c-23.333 0 -40.833 6.83301 -52.5 20.5s-17.5 28.834 -17.5 45.501
c0 16 5.83301 30.833 17.5 44.5s29.167 20.5 52.5 20.5c22.667 0 39.667 -6.83301 51 -20.5s17 -28.5 17 -44.5c0 -16.667 -5.66699 -31.834 -17 -45.501s-28.333 -20.5 -51 -20.5zM373.003 560.001c-23.333 0 -40.833 6.83301 -52.5 20.5s-17.5 28.834 -17.5 45.501
c0 16 5.83301 30.833 17.5 44.5s29.167 20.5 52.5 20.5c22.667 0 39.667 -6.83301 51 -20.5s17 -28.5 17 -44.5c0 -16.667 -5.66699 -31.834 -17 -45.501s-28.333 -20.5 -51 -20.5z" />
    <glyph glyph-name="Amacron" unicode="&#x100;" horiz-adv-x="608" 
d="M0 0l240 667h127l241 -667h-131l-46 134h-255l-45 -134h-131zM215 247h178l-89 263zM134 744v89h345v-89h-345z" />
    <glyph glyph-name="amacron" unicode="&#x101;" horiz-adv-x="488" 
d="M191 -11c-20.667 0 -40.498 3.50098 -59.498 10.501s-35.833 17 -50.5 30s-26.5 29 -35.5 48s-13.5 40.5 -13.5 64.5c0 26 5.5 48.5 16.5 67.5s25.333 35 43 48s36.667 23 57 30s38.833 11.5 55.5 13.5c9.33301 1.33301 42.666 5.33301 99.999 12v7
c0 26.667 -6.83301 45.667 -20.5 57s-32.5 17 -56.5 17s-47 -5.16699 -69 -15.5s-38.667 -20.5 -50 -30.5l-41 87c14 14 40 27.333 78 40c40 12.667 74.333 19 103 19c30.667 0 57.5 -4.66699 80.5 -14s42 -22.5 57 -39.5s26 -36.833 33 -59.5s10.5 -46.334 10.5 -71.001
v-310h-114l-5 36c-13.333 -14.667 -30.333 -26.167 -51 -34.5s-43.334 -12.5 -68.001 -12.5zM220.002 92.001c16 0 31.5 3.33301 46.5 10s27.833 15 38.5 25v98c-40.667 -4.66699 -67.667 -8 -81 -10c-26.667 -5.33301 -45.167 -14.5 -55.5 -27.5s-15.5 -27.167 -15.5 -42.5
c0 -16 5.83301 -28.833 17.5 -38.5s28.167 -14.5 49.5 -14.5zM77.002 578.001v89h345v-89h-345z" />
    <glyph glyph-name="Abreve" unicode="&#x102;" horiz-adv-x="608" 
d="M0 0l240 667h127l241 -667h-131l-46 134h-255l-45 -134h-131zM215 247h178l-89 263zM306 705c-24.667 0 -47.167 3.83496 -67.5 11.502s-37.5 18.167 -51.5 31.5s-24.333 28.666 -31 45.999s-10 34.666 -10 51.999h98c4 -18.667 11 -33.5 21 -44.5s23.667 -16.5 41 -16.5
s31.333 5.5 42 16.5s18 25.833 22 44.5h95c-0.666992 -22.667 -5.66699 -42.667 -15 -60s-21.5 -32 -36.5 -44s-31.833 -21.167 -50.5 -27.5s-37.667 -9.5 -57 -9.5z" />
    <glyph glyph-name="abreve" unicode="&#x103;" horiz-adv-x="488" 
d="M191 -11c-20.667 0 -40.498 3.50098 -59.498 10.501s-35.833 17 -50.5 30s-26.5 29 -35.5 48s-13.5 40.5 -13.5 64.5c0 26 5.5 48.5 16.5 67.5s25.333 35 43 48s36.667 23 57 30s38.833 11.5 55.5 13.5c9.33301 1.33301 42.666 5.33301 99.999 12v7
c0 26.667 -6.83301 45.667 -20.5 57s-32.5 17 -56.5 17s-47 -5.16699 -69 -15.5s-38.667 -20.5 -50 -30.5l-41 87c14 14 40 27.333 78 40c40 12.667 74.333 19 103 19c30.667 0 57.5 -4.66699 80.5 -14s42 -22.5 57 -39.5s26 -36.833 33 -59.5s10.5 -46.334 10.5 -71.001
v-310h-114l-5 36c-13.333 -14.667 -30.333 -26.167 -51 -34.5s-43.334 -12.5 -68.001 -12.5zM220.002 92.001c16 0 31.5 3.33301 46.5 10s27.833 15 38.5 25v98c-40.667 -4.66699 -67.667 -8 -81 -10c-26.667 -5.33301 -45.167 -14.5 -55.5 -27.5s-15.5 -27.167 -15.5 -42.5
c0 -16 5.83301 -28.833 17.5 -38.5s28.167 -14.5 49.5 -14.5zM248.002 539.001c-24.667 0 -47.167 3.83496 -67.5 11.502s-37.5 18.167 -51.5 31.5s-24.333 28.666 -31 45.999s-10 34.666 -10 51.999h98c4 -18.667 11 -33.5 21 -44.5s23.667 -16.5 41 -16.5
s31.333 5.5 42 16.5s18 25.833 22 44.5h95c-0.666992 -22.667 -5.66699 -42.667 -15 -60s-21.5 -32 -36.5 -44s-31.833 -21.167 -50.5 -27.5s-37.667 -9.5 -57 -9.5z" />
    <glyph glyph-name="Aogonek" unicode="&#x104;" horiz-adv-x="608" 
d="M0 0l240 667h127l241 -667h-131l-46 134h-255l-45 -134h-131zM215 247h178l-89 263zM529 -198c-34 0 -59.3311 8.16699 -75.998 24.5s-25 37.166 -25 62.499c0 18 3.83301 34.5 11.5 49.5s17.167 28.333 28.5 40s22.666 21.167 33.999 28.5s19.666 12.333 24.999 15
l72 -12c-19.333 -13.333 -36.833 -28 -52.5 -44s-23.5 -32 -23.5 -48c0 -8.66699 2.16699 -15.667 6.5 -21s11.5 -8 21.5 -8c12 0 23 3 33 9l23 -75c-12.667 -7.33301 -25.5 -12.666 -38.5 -15.999s-26.167 -5 -39.5 -5z" />
    <glyph glyph-name="aogonek" unicode="&#x105;" horiz-adv-x="488" 
d="M191 -11c-20.667 0 -40.498 3.50098 -59.498 10.501s-35.833 17 -50.5 30s-26.5 29 -35.5 48s-13.5 40.5 -13.5 64.5c0 26 5.5 48.5 16.5 67.5s25.333 35 43 48s36.667 23 57 30s38.833 11.5 55.5 13.5c9.33301 1.33301 42.666 5.33301 99.999 12v7
c0 26.667 -6.83301 45.667 -20.5 57s-32.5 17 -56.5 17s-47 -5.16699 -69 -15.5s-38.667 -20.5 -50 -30.5l-41 87c14 14 40 27.333 78 40c40 12.667 74.333 19 103 19c30.667 0 57.5 -4.66699 80.5 -14s42 -22.5 57 -39.5s26 -36.833 33 -59.5s10.5 -46.334 10.5 -71.001
v-310h-114l-5 36c-13.333 -14.667 -30.333 -26.167 -51 -34.5s-43.334 -12.5 -68.001 -12.5zM220.002 92.001c16 0 31.5 3.33301 46.5 10s27.833 15 38.5 25v98c-40.667 -4.66699 -67.667 -8 -81 -10c-26.667 -5.33301 -45.167 -14.5 -55.5 -27.5s-15.5 -27.167 -15.5 -42.5
c0 -16 5.83301 -28.833 17.5 -38.5s28.167 -14.5 49.5 -14.5zM350.002 -197.999c-34 0 -59.3311 8.16699 -75.998 24.5s-25 37.166 -25 62.499c0 18 3.83301 34.5 11.5 49.5s17.167 28.333 28.5 40s22.666 21.167 33.999 28.5s19.666 12.333 24.999 15l72 -12
c-19.333 -13.333 -36.833 -28 -52.5 -44s-23.5 -32 -23.5 -48c0 -8.66699 2.16699 -15.667 6.5 -21s11.5 -8 21.5 -8c12 0 23 3 33 9l23 -75c-12.667 -7.33301 -25.5 -12.666 -38.5 -15.999s-26.167 -5 -39.5 -5z" />
    <glyph glyph-name="Cacute" unicode="&#x106;" horiz-adv-x="571" 
d="M330 -14c-42 0 -80.5039 7.33398 -115.504 22.001s-65.333 36.5 -91 65.5s-45.5 65 -59.5 108s-21 92.833 -21 149.5c0 60 8.16699 111.833 24.5 155.5s37.833 80 64.5 109s57.167 50.5 91.5 64.5s69.5 21 105.5 21c45.333 0 85 -8.33301 119 -25
s58.667 -34.334 74 -53.001s25 -32 29 -40l-94 -79c-3.33301 6 -8.16602 13.5 -14.499 22.5s-14.666 17.667 -24.999 26s-22.666 15.5 -36.999 21.5s-30.833 9 -49.5 9c-21.333 0 -41.5 -4.5 -60.5 -13.5s-35.833 -23 -50.5 -42s-26.167 -43 -34.5 -72
s-12.5 -63.833 -12.5 -104.5c0 -72.667 15.667 -128.5 47 -167.5s73 -58.5 125 -58.5c38 0 70.667 6.5 98 19.5s47 25.5 59 37.5l41 -111c-15.333 -18 -46.166 -33.333 -92.499 -46s-86.5 -19 -120.5 -19zM240.996 705.001l-33 54l191 141l59 -83z" />
    <glyph glyph-name="cacute" unicode="&#x107;" horiz-adv-x="463" 
d="M257 -11c-29.333 0 -57.501 5 -84.501 15s-50.833 25.333 -71.5 46s-37.167 46.667 -49.5 78s-18.5 68.333 -18.5 111c0 60 12 110.667 36 152c24.667 40.667 54.334 68 89.001 82s66.667 21 96 21c50.667 0 91.334 -12 122.001 -36s53 -49.667 67 -77l-92 -62
c-10 17.333 -22.5 33.5 -37.5 48.5s-34.5 22.5 -58.5 22.5c-26.667 0 -49.834 -11.833 -69.501 -35.5s-29.5 -60.5 -29.5 -110.5c0 -48 10 -84.667 30 -110s49 -38 87 -38c34 0 61.167 5.16699 81.5 15.5s35.833 20.833 46.5 31.5l36 -102
c-18 -13.333 -42.5 -25.333 -73.5 -36s-66.5 -16 -106.5 -16zM165.999 538l-33 54l191 141l59 -83z" />
    <glyph glyph-name="Ccircumflex" unicode="&#x108;" horiz-adv-x="571" 
d="M330 -14c-42 0 -80.5039 7.33398 -115.504 22.001s-65.333 36.5 -91 65.5s-45.5 65 -59.5 108s-21 92.833 -21 149.5c0 60 8.16699 111.833 24.5 155.5s37.833 80 64.5 109s57.167 50.5 91.5 64.5s69.5 21 105.5 21c45.333 0 85 -8.33301 119 -25
s58.667 -34.334 74 -53.001s25 -32 29 -40l-94 -79c-3.33301 6 -8.16602 13.5 -14.499 22.5s-14.666 17.667 -24.999 26s-22.666 15.5 -36.999 21.5s-30.833 9 -49.5 9c-21.333 0 -41.5 -4.5 -60.5 -13.5s-35.833 -23 -50.5 -42s-26.167 -43 -34.5 -72
s-12.5 -63.833 -12.5 -104.5c0 -72.667 15.667 -128.5 47 -167.5s73 -58.5 125 -58.5c38 0 70.667 6.5 98 19.5s47 25.5 59 37.5l41 -111c-15.333 -18 -46.166 -33.333 -92.499 -46s-86.5 -19 -120.5 -19zM244.996 710.001l-64 45l115 130h92l113 -129l-64 -45l-96 96z" />
    <glyph glyph-name="ccircumflex" unicode="&#x109;" horiz-adv-x="463" 
d="M257 -11c-29.333 0 -57.501 5 -84.501 15s-50.833 25.333 -71.5 46s-37.167 46.667 -49.5 78s-18.5 68.333 -18.5 111c0 60 12 110.667 36 152c24.667 40.667 54.334 68 89.001 82s66.667 21 96 21c50.667 0 91.334 -12 122.001 -36s53 -49.667 67 -77l-92 -62
c-10 17.333 -22.5 33.5 -37.5 48.5s-34.5 22.5 -58.5 22.5c-26.667 0 -49.834 -11.833 -69.501 -35.5s-29.5 -60.5 -29.5 -110.5c0 -48 10 -84.667 30 -110s49 -38 87 -38c34 0 61.167 5.16699 81.5 15.5s35.833 20.833 46.5 31.5l36 -102
c-18 -13.333 -42.5 -25.333 -73.5 -36s-66.5 -16 -106.5 -16zM150.999 544l-64 45l115 130h92l113 -129l-64 -45l-96 96z" />
    <glyph glyph-name="Cdotaccent" unicode="&#x10a;" horiz-adv-x="571" 
d="M330 -14c-42 0 -80.5039 7.33398 -115.504 22.001s-65.333 36.5 -91 65.5s-45.5 65 -59.5 108s-21 92.833 -21 149.5c0 60 8.16699 111.833 24.5 155.5s37.833 80 64.5 109s57.167 50.5 91.5 64.5s69.5 21 105.5 21c45.333 0 85 -8.33301 119 -25
s58.667 -34.334 74 -53.001s25 -32 29 -40l-94 -79c-3.33301 6 -8.16602 13.5 -14.499 22.5s-14.666 17.667 -24.999 26s-22.666 15.5 -36.999 21.5s-30.833 9 -49.5 9c-21.333 0 -41.5 -4.5 -60.5 -13.5s-35.833 -23 -50.5 -42s-26.167 -43 -34.5 -72
s-12.5 -63.833 -12.5 -104.5c0 -72.667 15.667 -128.5 47 -167.5s73 -58.5 125 -58.5c38 0 70.667 6.5 98 19.5s47 25.5 59 37.5l41 -111c-15.333 -18 -46.166 -33.333 -92.499 -46s-86.5 -19 -120.5 -19zM334.996 720.001c-20 0 -36.667 7.66699 -50 23s-20 33.333 -20 54
s6.66699 38.667 20 54s30 23 50 23c20.667 0 37.667 -7.66699 51 -23s20 -33.333 20 -54s-6.66699 -38.667 -20 -54s-30.333 -23 -51 -23z" />
    <glyph glyph-name="cdotaccent" unicode="&#x10b;" horiz-adv-x="463" 
d="M257 -11c-29.333 0 -57.501 5 -84.501 15s-50.833 25.333 -71.5 46s-37.167 46.667 -49.5 78s-18.5 68.333 -18.5 111c0 60 12 110.667 36 152c24.667 40.667 54.334 68 89.001 82s66.667 21 96 21c50.667 0 91.334 -12 122.001 -36s53 -49.667 67 -77l-92 -62
c-10 17.333 -22.5 33.5 -37.5 48.5s-34.5 22.5 -58.5 22.5c-26.667 0 -49.834 -11.833 -69.501 -35.5s-29.5 -60.5 -29.5 -110.5c0 -48 10 -84.667 30 -110s49 -38 87 -38c34 0 61.167 5.16699 81.5 15.5s35.833 20.833 46.5 31.5l36 -102
c-18 -13.333 -42.5 -25.333 -73.5 -36s-66.5 -16 -106.5 -16zM258.999 554c-20 0 -36.667 7.66699 -50 23s-20 33.333 -20 54s6.66699 38.667 20 54s30 23 50 23c20.667 0 37.667 -7.66699 51 -23s20 -33.333 20 -54s-6.66699 -38.667 -20 -54s-30.333 -23 -51 -23z" />
    <glyph glyph-name="Ccaron" unicode="&#x10c;" horiz-adv-x="571" 
d="M330 -14c-42 0 -80.5039 7.33398 -115.504 22.001s-65.333 36.5 -91 65.5s-45.5 65 -59.5 108s-21 92.833 -21 149.5c0 60 8.16699 111.833 24.5 155.5s37.833 80 64.5 109s57.167 50.5 91.5 64.5s69.5 21 105.5 21c45.333 0 85 -8.33301 119 -25
s58.667 -34.334 74 -53.001s25 -32 29 -40l-94 -79c-3.33301 6 -8.16602 13.5 -14.499 22.5s-14.666 17.667 -24.999 26s-22.666 15.5 -36.999 21.5s-30.833 9 -49.5 9c-21.333 0 -41.5 -4.5 -60.5 -13.5s-35.833 -23 -50.5 -42s-26.167 -43 -34.5 -72
s-12.5 -63.833 -12.5 -104.5c0 -72.667 15.667 -128.5 47 -167.5s73 -58.5 125 -58.5c38 0 70.667 6.5 98 19.5s47 25.5 59 37.5l41 -111c-15.333 -18 -46.166 -33.333 -92.499 -46s-86.5 -19 -120.5 -19zM282.996 710.001l-115 126l68 48l92 -95l96 95l66 -41l-115 -133
h-92z" />
    <glyph glyph-name="ccaron" unicode="&#x10d;" horiz-adv-x="463" 
d="M257 -11c-29.333 0 -57.501 5 -84.501 15s-50.833 25.333 -71.5 46s-37.167 46.667 -49.5 78s-18.5 68.333 -18.5 111c0 60 12 110.667 36 152c24.667 40.667 54.334 68 89.001 82s66.667 21 96 21c50.667 0 91.334 -12 122.001 -36s53 -49.667 67 -77l-92 -62
c-10 17.333 -22.5 33.5 -37.5 48.5s-34.5 22.5 -58.5 22.5c-26.667 0 -49.834 -11.833 -69.501 -35.5s-29.5 -60.5 -29.5 -110.5c0 -48 10 -84.667 30 -110s49 -38 87 -38c34 0 61.167 5.16699 81.5 15.5s35.833 20.833 46.5 31.5l36 -102
c-18 -13.333 -42.5 -25.333 -73.5 -36s-66.5 -16 -106.5 -16zM209.999 544l-115 126l68 48l92 -95l96 95l66 -41l-115 -133h-92z" />
    <glyph glyph-name="Dcaron" unicode="&#x10e;" horiz-adv-x="628" 
d="M73 0l-0.000976562 667.001h188c24 0 50.667 -2 80 -6s57.333 -12 84 -24c42 -20.667 76 -51.334 102 -92.001c26.667 -40 43.334 -79 50.001 -117c6.66699 -44.667 10 -75 10 -91c0 -58 -11.5 -111.833 -34.5 -161.5s-46.667 -84.5 -71 -104.5s-43.5 -32.333 -57.5 -37
c-45.333 -22.667 -98 -34 -158 -34h-193zM200.999 120.001l52 -0.000976562c46.667 0 84.667 8.33301 114 25c30.667 16.667 53.334 42.167 68.001 76.5s22 70.833 22 109.5c0 38 -6.66699 73.833 -20 107.5s-34 59.834 -62 78.501c-14.667 10 -32.834 17.5 -54.501 22.5
s-43.167 7.5 -64.5 7.5h-55v-427zM226.999 710l-115 126l68 48l92 -95l96 95l66 -41l-115 -133h-92z" />
    <glyph glyph-name="dcaron" unicode="&#x10f;" horiz-adv-x="569" 
d="M238 -11c-33.333 0 -62.667 7 -88 21s-46.666 32.667 -63.999 56s-30.5 50.333 -39.5 81s-13.5 62.667 -13.5 96c0 51.333 10.333 96.333 31 135c15.333 31.333 36.5 55.833 63.5 73.5s52.667 29.334 77 35.001s43.5 8.16699 57.5 7.5
c23.333 0 50.666 -4.66699 81.999 -14v187h123v-667h-113l-5 37c-11.333 -12.667 -26.333 -23.834 -45 -33.501s-40.667 -14.5 -66 -14.5zM262.999 95c15.333 0 30.999 4.16699 46.999 12.5s27.333 18.166 34 29.499v238c-26 9.33301 -48.333 14 -67 14
c-34.667 0 -62.5 -11.167 -83.5 -33.5s-33.167 -44.166 -36.5 -65.499s-4.33301 -36 -3 -44c0 -20 2.16699 -39.167 6.5 -57.5s11 -34.333 20 -48s20.333 -24.667 34 -33s29.834 -12.5 48.501 -12.5zM521.998 497v170h107l-34 -170h-73z" />
    <glyph glyph-name="Dcroat" unicode="&#x110;" horiz-adv-x="628" 
d="M73 0l-0.000976562 291.001h-73v105h73v271h188c24 0 50.667 -2 80 -6s57.333 -12 84 -24c42 -20.667 76 -51.334 102 -92.001c26.667 -40 43.334 -79 50.001 -117c6.66699 -44.667 10 -75 10 -91c0 -58 -11.5 -111.833 -34.5 -161.5s-46.667 -84.5 -71 -104.5
s-43.5 -32.333 -57.5 -37c-45.333 -22.667 -98 -34 -158 -34h-193zM200.999 120.001l52 -0.000976562c46.667 0 84.667 8.33301 114 25c30.667 16.667 53.334 42.167 68.001 76.5s22 70.833 22 109.5c0 38 -6.66699 73.833 -20 107.5s-34 59.834 -62 78.501
c-14.667 10 -32.834 17.5 -54.501 22.5s-43.167 7.5 -64.5 7.5h-55v-151h147v-105h-147v-171z" />
    <glyph glyph-name="dcroat" unicode="&#x111;" horiz-adv-x="529" 
d="M238 -11c-33.333 0 -62.667 7 -88 21s-46.666 32.667 -63.999 56s-30.5 50.333 -39.5 81s-13.5 62.667 -13.5 96c0 51.333 10.333 96.333 31 135c15.333 31.333 36.5 55.833 63.5 73.5s52.667 29.334 77 35.001s43.5 8.16699 57.5 7.5
c23.333 0 50.666 -4.66699 81.999 -14v52h-116v83h116v52h123v-52h59v-83h-59v-532h-113l-5 37c-11.333 -12.667 -26.333 -23.834 -45 -33.501s-40.667 -14.5 -66 -14.5zM262.999 95c15.333 0 30.999 4.16699 46.999 12.5s27.333 18.166 34 29.499v238
c-26 9.33301 -48.333 14 -67 14c-34.667 0 -62.5 -11.167 -83.5 -33.5s-33.167 -44.166 -36.5 -65.499s-4.33301 -36 -3 -44c0 -20 2.16699 -39.167 6.5 -57.5s11 -34.333 20 -48s20.333 -24.667 34 -33s29.834 -12.5 48.501 -12.5z" />
    <glyph glyph-name="Emacron" unicode="&#x112;" horiz-adv-x="557" 
d="M73 0v667h435v-121h-307v-152h254v-121h-254v-152h329v-121h-457zM116 744v89h345v-89h-345z" />
    <glyph glyph-name="emacron" unicode="&#x113;" horiz-adv-x="499" 
d="M267 -11c-31.333 0 -61.1689 5.00391 -89.502 15.0039s-53.166 25.5 -74.499 46.5s-38.333 47.167 -51 78.5s-19 68.666 -19 111.999c0 40.667 5.83301 76.667 17.5 108s27.667 57.666 48 78.999s44 37.666 71 48.999s55.833 17 86.5 17c54 0 98 -15 132 -45
c34.667 -30 57 -65.333 67 -106c10 -40 15 -77 15 -111v-22h-312c2.66699 -40.667 15.334 -70 38.001 -88s52 -27 88 -27c32 0 60 5 84 15s40.333 19.333 49 28l33 -101c-14.667 -10.667 -28.667 -18.334 -42 -23.001c-8 -4 -27.667 -9 -59 -15
c-30.667 -6.66699 -58 -10 -82 -10zM160.997 299.004l182.999 -0.000976562c-2 27.333 -9.83301 48.333 -23.5 63s-26.834 23.834 -39.501 27.501s-21 5.5 -25 5.5c-21.333 0 -41.666 -8 -60.999 -24s-30.666 -40 -33.999 -72zM87.9961 578.003v89h345v-89h-345z" />
    <glyph glyph-name="Ebreve" unicode="&#x114;" horiz-adv-x="557" 
d="M73 0v667h435v-121h-307v-152h254v-121h-254v-152h329v-121h-457zM296 703c-24.667 0 -47.167 3.83496 -67.5 11.502s-37.5 18.167 -51.5 31.5s-24.333 28.666 -31 45.999s-10 34.666 -10 51.999h98c4 -18.667 11 -33.5 21 -44.5s23.667 -16.5 41 -16.5
s31.333 5.5 42 16.5s18 25.833 22 44.5h95c-0.666992 -22.667 -5.66699 -42.667 -15 -60s-21.5 -32 -36.5 -44s-31.833 -21.167 -50.5 -27.5s-37.667 -9.5 -57 -9.5z" />
    <glyph glyph-name="ebreve" unicode="&#x115;" horiz-adv-x="499" 
d="M267 -11c-31.333 0 -61.1689 5.00391 -89.502 15.0039s-53.166 25.5 -74.499 46.5s-38.333 47.167 -51 78.5s-19 68.666 -19 111.999c0 40.667 5.83301 76.667 17.5 108s27.667 57.666 48 78.999s44 37.666 71 48.999s55.833 17 86.5 17c54 0 98 -15 132 -45
c34.667 -30 57 -65.333 67 -106c10 -40 15 -77 15 -111v-22h-312c2.66699 -40.667 15.334 -70 38.001 -88s52 -27 88 -27c32 0 60 5 84 15s40.333 19.333 49 28l33 -101c-14.667 -10.667 -28.667 -18.334 -42 -23.001c-8 -4 -27.667 -9 -59 -15
c-30.667 -6.66699 -58 -10 -82 -10zM160.997 299.004l182.999 -0.000976562c-2 27.333 -9.83301 48.333 -23.5 63s-26.834 23.834 -39.501 27.501s-21 5.5 -25 5.5c-21.333 0 -41.666 -8 -60.999 -24s-30.666 -40 -33.999 -72zM254.996 539.003
c-24.667 0 -47.167 3.83496 -67.5 11.502s-37.5 18.167 -51.5 31.5s-24.333 28.666 -31 45.999s-10 34.666 -10 51.999h98c4 -18.667 11 -33.5 21 -44.5s23.667 -16.5 41 -16.5s31.333 5.5 42 16.5s18 25.833 22 44.5h95c-0.666992 -22.667 -5.66699 -42.667 -15 -60
s-21.5 -32 -36.5 -44s-31.833 -21.167 -50.5 -27.5s-37.667 -9.5 -57 -9.5z" />
    <glyph glyph-name="Edotaccent" unicode="&#x116;" horiz-adv-x="557" 
d="M73 0v667h435v-121h-307v-152h254v-121h-254v-152h329v-121h-457zM296 721c-20 0 -36.667 7.66699 -50 23s-20 33.333 -20 54s6.66699 38.667 20 54s30 23 50 23c20.667 0 37.667 -7.66699 51 -23s20 -33.333 20 -54s-6.66699 -38.667 -20 -54s-30.333 -23 -51 -23z" />
    <glyph glyph-name="edotaccent" unicode="&#x117;" horiz-adv-x="499" 
d="M267 -11c-31.333 0 -61.1689 5.00391 -89.502 15.0039s-53.166 25.5 -74.499 46.5s-38.333 47.167 -51 78.5s-19 68.666 -19 111.999c0 40.667 5.83301 76.667 17.5 108s27.667 57.666 48 78.999s44 37.666 71 48.999s55.833 17 86.5 17c54 0 98 -15 132 -45
c34.667 -30 57 -65.333 67 -106c10 -40 15 -77 15 -111v-22h-312c2.66699 -40.667 15.334 -70 38.001 -88s52 -27 88 -27c32 0 60 5 84 15s40.333 19.333 49 28l33 -101c-14.667 -10.667 -28.667 -18.334 -42 -23.001c-8 -4 -27.667 -9 -59 -15
c-30.667 -6.66699 -58 -10 -82 -10zM160.997 299.004l182.999 -0.000976562c-2 27.333 -9.83301 48.333 -23.5 63s-26.834 23.834 -39.501 27.501s-21 5.5 -25 5.5c-21.333 0 -41.666 -8 -60.999 -24s-30.666 -40 -33.999 -72zM262.996 554.003
c-20 0 -36.667 7.66699 -50 23s-20 33.333 -20 54s6.66699 38.667 20 54s30 23 50 23c20.667 0 37.667 -7.66699 51 -23s20 -33.333 20 -54s-6.66699 -38.667 -20 -54s-30.333 -23 -51 -23z" />
    <glyph glyph-name="Eogonek" unicode="&#x118;" horiz-adv-x="557" 
d="M73 0v667h435v-121h-307v-152h254v-121h-254v-152h329v-121h-457zM451 -198c-34 0 -59.3311 8.16699 -75.998 24.5s-25 37.166 -25 62.499c0 18 3.83301 34.5 11.5 49.5s17.167 28.333 28.5 40s22.666 21.167 33.999 28.5s19.666 12.333 24.999 15l72 -12
c-19.333 -13.333 -36.833 -28 -52.5 -44s-23.5 -32 -23.5 -48c0 -8.66699 2.16699 -15.667 6.5 -21s11.5 -8 21.5 -8c12 0 23 3 33 9l23 -75c-12.667 -7.33301 -25.5 -12.666 -38.5 -15.999s-26.167 -5 -39.5 -5z" />
    <glyph glyph-name="eogonek" unicode="&#x119;" horiz-adv-x="499" 
d="M267 -11c-31.333 0 -61.1689 5.00391 -89.502 15.0039s-53.166 25.5 -74.499 46.5s-38.333 47.167 -51 78.5s-19 68.666 -19 111.999c0 40.667 5.83301 76.667 17.5 108s27.667 57.666 48 78.999s44 37.666 71 48.999s55.833 17 86.5 17c54 0 98 -15 132 -45
c34.667 -30 57 -65.333 67 -106c10 -40 15 -77 15 -111v-22h-312c2.66699 -40.667 15.334 -70 38.001 -88s52 -27 88 -27c32 0 60 5 84 15s40.333 19.333 49 28l33 -101c-14.667 -10.667 -28.667 -18.334 -42 -23.001c-8 -4 -27.667 -9 -59 -15
c-30.667 -6.66699 -58 -10 -82 -10zM160.997 299.004l182.999 -0.000976562c-2 27.333 -9.83301 48.333 -23.5 63s-26.834 23.834 -39.501 27.501s-21 5.5 -25 5.5c-21.333 0 -41.666 -8 -60.999 -24s-30.666 -40 -33.999 -72zM323.996 -197.997
c-34 0 -59.3311 8.16699 -75.998 24.5s-25 37.166 -25 62.499c0 18 3.83301 34.5 11.5 49.5s17.167 28.333 28.5 40s22.666 21.167 33.999 28.5s19.666 12.333 24.999 15l72 -12c-19.333 -13.333 -36.833 -28 -52.5 -44s-23.5 -32 -23.5 -48
c0 -8.66699 2.16699 -15.667 6.5 -21s11.5 -8 21.5 -8c12 0 23 3 33 9l23 -75c-12.667 -7.33301 -25.5 -12.666 -38.5 -15.999s-26.167 -5 -39.5 -5z" />
    <glyph glyph-name="Ecaron" unicode="&#x11a;" horiz-adv-x="557" 
d="M73 0v667h435v-121h-307v-152h254v-121h-254v-152h329v-121h-457zM247 710l-115 126l68 48l92 -95l96 95l66 -41l-115 -133h-92z" />
    <glyph glyph-name="ecaron" unicode="&#x11b;" horiz-adv-x="499" 
d="M267 -11c-31.333 0 -61.1689 5.00391 -89.502 15.0039s-53.166 25.5 -74.499 46.5s-38.333 47.167 -51 78.5s-19 68.666 -19 111.999c0 40.667 5.83301 76.667 17.5 108s27.667 57.666 48 78.999s44 37.666 71 48.999s55.833 17 86.5 17c54 0 98 -15 132 -45
c34.667 -30 57 -65.333 67 -106c10 -40 15 -77 15 -111v-22h-312c2.66699 -40.667 15.334 -70 38.001 -88s52 -27 88 -27c32 0 60 5 84 15s40.333 19.333 49 28l33 -101c-14.667 -10.667 -28.667 -18.334 -42 -23.001c-8 -4 -27.667 -9 -59 -15
c-30.667 -6.66699 -58 -10 -82 -10zM160.997 299.004l182.999 -0.000976562c-2 27.333 -9.83301 48.333 -23.5 63s-26.834 23.834 -39.501 27.501s-21 5.5 -25 5.5c-21.333 0 -41.666 -8 -60.999 -24s-30.666 -40 -33.999 -72zM210.996 544.003l-115 126l68 48l92 -95l96 95
l66 -41l-115 -133h-92z" />
    <glyph glyph-name="Gcircumflex" unicode="&#x11c;" horiz-adv-x="608" 
d="M338 -14c-43.333 0 -83.166 7.66309 -119.499 22.9961s-67.5 37.833 -93.5 67.5s-46.167 65.834 -60.5 108.501s-21.5 91.334 -21.5 146.001c0 60 7.66699 111.833 23 155.5s36 80 62 109s55.833 50.5 89.5 64.5s69.167 21 106.5 21c58.667 0 106 -10.833 142 -32.5
s63.333 -49.5 82 -83.5l-88 -81c-12.667 22 -30.667 40.667 -54 56s-50.333 23 -81 23c-35.333 0.666992 -65.333 -12.333 -90 -39c-25.333 -26 -42.333 -57.333 -51 -94c-4.66699 -18.667 -7.83398 -36.167 -9.50098 -52.5s-2.16699 -31.833 -1.5 -46.5
c0 -50.667 9 -95 27 -133c10 -21.333 21.5 -38.166 34.5 -50.499s26.333 -21.666 40 -27.999s26.667 -10.333 39 -12s22.833 -2.5 31.5 -2.5c26.667 0 48.167 1.5 64.5 4.5s25.833 5.16699 28.5 6.5v120h-104v115h224v-321c-16.667 -10.667 -44 -20.667 -82 -30
s-84 -14 -138 -14zM220 709.996l-64 45l115 130h92l113 -129l-64 -45l-96 96z" />
    <glyph glyph-name="gcircumflex" unicode="&#x11d;" horiz-adv-x="526" 
d="M246 -198c-21.333 0 -41.833 1.16895 -61.5 3.50195s-38.834 5.83301 -57.501 10.5c-34.667 8.66699 -58 16 -70 22l26 109c16.667 -9.33301 38.667 -18 66 -26s56.333 -12 87 -12c36 0 62.333 6.66699 79 20s25 30.666 25 51.999v28c-23.333 -6 -46 -9 -68 -9
c-39.333 0 -73.833 6.5 -103.5 19.5s-54.5 30.667 -74.5 53s-35.167 48.5 -45.5 78.5s-15.5 62 -15.5 96c0 52.667 12 98.667 36 138c24.667 40 56.834 68.167 96.501 84.5s81.834 24.5 126.501 24.5c34.667 0 67.667 -1.83301 99 -5.5s56 -7.16699 74 -10.5v-466
c0 -68.667 -18.833 -120.834 -56.5 -156.501s-91.834 -53.5 -162.501 -53.5zM290 107.002c12 0 21.834 1.33301 29.501 4s14.5 5.66699 20.5 9v266c-17.333 2.66699 -33 4 -47 4c-39.333 0 -70.333 -10 -93 -30c-14 -12.667 -24.833 -27 -32.5 -43s-11.834 -30 -12.501 -42
s-1 -21.333 -1 -28c0 -42 11.167 -75.833 33.5 -101.5s56.5 -38.5 102.5 -38.5zM179.001 544.002l-64 45l115 130h92l113 -129l-64 -45l-96 96z" />
    <glyph glyph-name="Gbreve" unicode="&#x11e;" horiz-adv-x="608" 
d="M338 -14c-43.333 0 -83.166 7.66309 -119.499 22.9961s-67.5 37.833 -93.5 67.5s-46.167 65.834 -60.5 108.501s-21.5 91.334 -21.5 146.001c0 60 7.66699 111.833 23 155.5s36 80 62 109s55.833 50.5 89.5 64.5s69.167 21 106.5 21c58.667 0 106 -10.833 142 -32.5
s63.333 -49.5 82 -83.5l-88 -81c-12.667 22 -30.667 40.667 -54 56s-50.333 23 -81 23c-35.333 0.666992 -65.333 -12.333 -90 -39c-25.333 -26 -42.333 -57.333 -51 -94c-4.66699 -18.667 -7.83398 -36.167 -9.50098 -52.5s-2.16699 -31.833 -1.5 -46.5
c0 -50.667 9 -95 27 -133c10 -21.333 21.5 -38.166 34.5 -50.499s26.333 -21.666 40 -27.999s26.667 -10.333 39 -12s22.833 -2.5 31.5 -2.5c26.667 0 48.167 1.5 64.5 4.5s25.833 5.16699 28.5 6.5v120h-104v115h224v-321c-16.667 -10.667 -44 -20.667 -82 -30
s-84 -14 -138 -14zM327 704.996c-24.667 0 -47.167 3.83496 -67.5 11.502s-37.5 18.167 -51.5 31.5s-24.333 28.666 -31 45.999s-10 34.666 -10 51.999h98c4 -18.667 11 -33.5 21 -44.5s23.667 -16.5 41 -16.5s31.333 5.5 42 16.5s18 25.833 22 44.5h95
c-0.666992 -22.667 -5.66699 -42.667 -15 -60s-21.5 -32 -36.5 -44s-31.833 -21.167 -50.5 -27.5s-37.667 -9.5 -57 -9.5z" />
    <glyph glyph-name="gbreve" unicode="&#x11f;" horiz-adv-x="526" 
d="M246 -198c-21.333 0 -41.833 1.16895 -61.5 3.50195s-38.834 5.83301 -57.501 10.5c-34.667 8.66699 -58 16 -70 22l26 109c16.667 -9.33301 38.667 -18 66 -26s56.333 -12 87 -12c36 0 62.333 6.66699 79 20s25 30.666 25 51.999v28c-23.333 -6 -46 -9 -68 -9
c-39.333 0 -73.833 6.5 -103.5 19.5s-54.5 30.667 -74.5 53s-35.167 48.5 -45.5 78.5s-15.5 62 -15.5 96c0 52.667 12 98.667 36 138c24.667 40 56.834 68.167 96.501 84.5s81.834 24.5 126.501 24.5c34.667 0 67.667 -1.83301 99 -5.5s56 -7.16699 74 -10.5v-466
c0 -68.667 -18.833 -120.834 -56.5 -156.501s-91.834 -53.5 -162.501 -53.5zM290 107.002c12 0 21.834 1.33301 29.501 4s14.5 5.66699 20.5 9v266c-17.333 2.66699 -33 4 -47 4c-39.333 0 -70.333 -10 -93 -30c-14 -12.667 -24.833 -27 -32.5 -43s-11.834 -30 -12.501 -42
s-1 -21.333 -1 -28c0 -42 11.167 -75.833 33.5 -101.5s56.5 -38.5 102.5 -38.5zM291.001 542.002c-24.667 0 -47.167 3.83496 -67.5 11.502s-37.5 18.167 -51.5 31.5s-24.333 28.666 -31 45.999s-10 34.666 -10 51.999h98c4 -18.667 11 -33.5 21 -44.5
s23.667 -16.5 41 -16.5s31.333 5.5 42 16.5s18 25.833 22 44.5h95c-0.666992 -22.667 -5.66699 -42.667 -15 -60s-21.5 -32 -36.5 -44s-31.833 -21.167 -50.5 -27.5s-37.667 -9.5 -57 -9.5z" />
    <glyph glyph-name="Gdotaccent" unicode="&#x120;" horiz-adv-x="608" 
d="M338 -14c-43.333 0 -83.166 7.66309 -119.499 22.9961s-67.5 37.833 -93.5 67.5s-46.167 65.834 -60.5 108.501s-21.5 91.334 -21.5 146.001c0 60 7.66699 111.833 23 155.5s36 80 62 109s55.833 50.5 89.5 64.5s69.167 21 106.5 21c58.667 0 106 -10.833 142 -32.5
s63.333 -49.5 82 -83.5l-88 -81c-12.667 22 -30.667 40.667 -54 56s-50.333 23 -81 23c-35.333 0.666992 -65.333 -12.333 -90 -39c-25.333 -26 -42.333 -57.333 -51 -94c-4.66699 -18.667 -7.83398 -36.167 -9.50098 -52.5s-2.16699 -31.833 -1.5 -46.5
c0 -50.667 9 -95 27 -133c10 -21.333 21.5 -38.166 34.5 -50.499s26.333 -21.666 40 -27.999s26.667 -10.333 39 -12s22.833 -2.5 31.5 -2.5c26.667 0 48.167 1.5 64.5 4.5s25.833 5.16699 28.5 6.5v120h-104v115h224v-321c-16.667 -10.667 -44 -20.667 -82 -30
s-84 -14 -138 -14zM328 719.996c-20 0 -36.667 7.66699 -50 23s-20 33.333 -20 54s6.66699 38.667 20 54s30 23 50 23c20.667 0 37.667 -7.66699 51 -23s20 -33.333 20 -54s-6.66699 -38.667 -20 -54s-30.333 -23 -51 -23z" />
    <glyph glyph-name="gdotaccent" unicode="&#x121;" horiz-adv-x="526" 
d="M246 -198c-21.333 0 -41.833 1.16895 -61.5 3.50195s-38.834 5.83301 -57.501 10.5c-34.667 8.66699 -58 16 -70 22l26 109c16.667 -9.33301 38.667 -18 66 -26s56.333 -12 87 -12c36 0 62.333 6.66699 79 20s25 30.666 25 51.999v28c-23.333 -6 -46 -9 -68 -9
c-39.333 0 -73.833 6.5 -103.5 19.5s-54.5 30.667 -74.5 53s-35.167 48.5 -45.5 78.5s-15.5 62 -15.5 96c0 52.667 12 98.667 36 138c24.667 40 56.834 68.167 96.501 84.5s81.834 24.5 126.501 24.5c34.667 0 67.667 -1.83301 99 -5.5s56 -7.16699 74 -10.5v-466
c0 -68.667 -18.833 -120.834 -56.5 -156.501s-91.834 -53.5 -162.501 -53.5zM290 107.002c12 0 21.834 1.33301 29.501 4s14.5 5.66699 20.5 9v266c-17.333 2.66699 -33 4 -47 4c-39.333 0 -70.333 -10 -93 -30c-14 -12.667 -24.833 -27 -32.5 -43s-11.834 -30 -12.501 -42
s-1 -21.333 -1 -28c0 -42 11.167 -75.833 33.5 -101.5s56.5 -38.5 102.5 -38.5zM284.001 554.002c-20 0 -36.667 7.66699 -50 23s-20 33.333 -20 54s6.66699 38.667 20 54s30 23 50 23c20.667 0 37.667 -7.66699 51 -23s20 -33.333 20 -54s-6.66699 -38.667 -20 -54
s-30.333 -23 -51 -23z" />
    <glyph glyph-name="Gcommaaccent" unicode="&#x122;" horiz-adv-x="608" 
d="M338 -14c-43.333 0 -83.166 7.66309 -119.499 22.9961s-67.5 37.833 -93.5 67.5s-46.167 65.834 -60.5 108.501s-21.5 91.334 -21.5 146.001c0 60 7.66699 111.833 23 155.5s36 80 62 109s55.833 50.5 89.5 64.5s69.167 21 106.5 21c58.667 0 106 -10.833 142 -32.5
s63.333 -49.5 82 -83.5l-88 -81c-12.667 22 -30.667 40.667 -54 56s-50.333 23 -81 23c-35.333 0.666992 -65.333 -12.333 -90 -39c-25.333 -26 -42.333 -57.333 -51 -94c-4.66699 -18.667 -7.83398 -36.167 -9.50098 -52.5s-2.16699 -31.833 -1.5 -46.5
c0 -50.667 9 -95 27 -133c10 -21.333 21.5 -38.166 34.5 -50.499s26.333 -21.666 40 -27.999s26.667 -10.333 39 -12s22.833 -2.5 31.5 -2.5c26.667 0 48.167 1.5 64.5 4.5s25.833 5.16699 28.5 6.5v120h-104v115h224v-321c-16.667 -10.667 -44 -20.667 -82 -30
s-84 -14 -138 -14zM230 -181.004l59 137h110l-81 -137h-88z" />
    <glyph glyph-name="gcommaaccent" unicode="&#x123;" horiz-adv-x="526" 
d="M246 -198c-21.333 0 -41.833 1.16895 -61.5 3.50195s-38.834 5.83301 -57.501 10.5c-34.667 8.66699 -58 16 -70 22l26 109c16.667 -9.33301 38.667 -18 66 -26s56.333 -12 87 -12c36 0 62.333 6.66699 79 20s25 30.666 25 51.999v28c-23.333 -6 -46 -9 -68 -9
c-39.333 0 -73.833 6.5 -103.5 19.5s-54.5 30.667 -74.5 53s-35.167 48.5 -45.5 78.5s-15.5 62 -15.5 96c0 52.667 12 98.667 36 138c24.667 40 56.834 68.167 96.501 84.5s81.834 24.5 126.501 24.5c34.667 0 67.667 -1.83301 99 -5.5s56 -7.16699 74 -10.5v-466
c0 -68.667 -18.833 -120.834 -56.5 -156.501s-91.834 -53.5 -162.501 -53.5zM290 107.002c12 0 21.834 1.33301 29.501 4s14.5 5.66699 20.5 9v266c-17.333 2.66699 -33 4 -47 4c-39.333 0 -70.333 -10 -93 -30c-14 -12.667 -24.833 -27 -32.5 -43s-11.834 -30 -12.501 -42
s-1 -21.333 -1 -28c0 -42 11.167 -75.833 33.5 -101.5s56.5 -38.5 102.5 -38.5zM231.001 559.002l85 130h83l-59 -130h-109z" />
    <glyph glyph-name="Hcircumflex" unicode="&#x124;" horiz-adv-x="655" 
d="M73 0v667h128v-264h252v264h128v-667h-128v282h-252v-282h-128zM241 710l-64 45l115 130h92l113 -129l-64 -45l-96 96z" />
    <glyph glyph-name="hcircumflex" unicode="&#x125;" horiz-adv-x="548" 
d="M62 0l-0.00195312 666.999h124v-217c15.333 12 33.5 22.333 54.5 31s46.5 13 76.5 13c46.667 0.666992 83.834 -11.666 111.501 -36.999s44.5 -54.333 50.5 -87c6.66699 -31.333 10 -59.333 10 -84v-286h-124v277c0 40 -7.83301 68.833 -23.5 86.5s-33.5 26.5 -53.5 26.5
s-38.167 -4.5 -54.5 -13.5s-32.166 -20.167 -47.499 -33.5v-343h-124zM133.998 709.999l-64 45l115 130h92l113 -129l-64 -45l-96 96z" />
    <glyph glyph-name="Hbar" unicode="&#x126;" horiz-adv-x="655" 
d="M73 0v483h-66v97h66v87h128v-87h252v87h128v-87h66v-97h-66v-483h-128v282h-252v-282h-128zM201 403h252v80h-252v-80z" />
    <glyph glyph-name="hbar" unicode="&#x127;" horiz-adv-x="548" 
d="M62 0l-0.00195312 533.999h-59v87h59v46h124v-46h159v-87h-159v-84c15.333 12 33.5 22.333 54.5 31s46.5 13 76.5 13c46.667 0.666992 83.834 -11.666 111.501 -36.999s44.5 -54.333 50.5 -87c6.66699 -31.333 10 -59.333 10 -84v-286h-124v277
c0 40 -7.83301 68.833 -23.5 86.5s-33.5 26.5 -53.5 26.5s-38.167 -4.5 -54.5 -13.5s-32.166 -20.167 -47.499 -33.5v-343h-124z" />
    <glyph glyph-name="Itilde" unicode="&#x128;" horiz-adv-x="275" 
d="M73 0v667h128v-667h-128zM21 706l-68 38c12 34 28.5 61.333 49.5 82s45.5 31 73.5 31c17.333 0 41.666 -9.66699 72.999 -29c26.667 -18.667 45.334 -28 56.001 -28c6 0 14.667 3.83301 26 11.5s22.333 24.834 33 51.501l69 -37c-9.33301 -34 -25.333 -61.5 -48 -82.5
s-48.334 -31.5 -77.001 -31.5c-18.667 0 -43.334 10 -74.001 30c-27.333 18 -45.666 27 -54.999 27c-7.33301 0 -16.166 -3.83301 -26.499 -11.5s-20.833 -24.834 -31.5 -51.501z" />
    <glyph glyph-name="itilde" unicode="&#x129;" horiz-adv-x="247" 
d="M62 0v482h123v-482h-123zM11 543l-68 38c12 34 28.5 61.333 49.5 82s45.5 31 73.5 31c17.333 0 41.666 -9.66699 72.999 -29c26.667 -18.667 45.334 -28 56.001 -28c6 0 14.667 3.83301 26 11.5s22.333 24.834 33 51.501l69 -37c-9.33301 -34 -25.333 -61.5 -48 -82.5
s-48.334 -31.5 -77.001 -31.5c-18.667 0 -43.334 10 -74.001 30c-27.333 18 -45.666 27 -54.999 27c-7.33301 0 -16.166 -3.83301 -26.499 -11.5s-20.833 -24.834 -31.5 -51.501z" />
    <glyph glyph-name="Imacron" unicode="&#x12a;" horiz-adv-x="275" 
d="M73 0v667h128v-667h-128zM-25 744v89h345v-89h-345z" />
    <glyph glyph-name="imacron" unicode="&#x12b;" horiz-adv-x="247" 
d="M62 0v482h123v-482h-123zM-41 578v89h345v-89h-345z" />
    <glyph glyph-name="Ibreve" unicode="&#x12c;" horiz-adv-x="275" 
d="M73 0v667h128v-667h-128zM146 705c-24.667 0 -47.167 3.83496 -67.5 11.502s-37.5 18.167 -51.5 31.5s-24.333 28.666 -31 45.999s-10 34.666 -10 51.999h98c4 -18.667 11 -33.5 21 -44.5s23.667 -16.5 41 -16.5s31.333 5.5 42 16.5s18 25.833 22 44.5h95
c-0.666992 -22.667 -5.66699 -42.667 -15 -60s-21.5 -32 -36.5 -44s-31.833 -21.167 -50.5 -27.5s-37.667 -9.5 -57 -9.5z" />
    <glyph glyph-name="ibreve" unicode="&#x12d;" horiz-adv-x="247" 
d="M62 0v482h123v-482h-123zM135 539c-24.667 0 -47.167 3.83496 -67.5 11.502s-37.5 18.167 -51.5 31.5s-24.333 28.666 -31 45.999s-10 34.666 -10 51.999h98c4 -18.667 11 -33.5 21 -44.5s23.667 -16.5 41 -16.5s31.333 5.5 42 16.5s18 25.833 22 44.5h95
c-0.666992 -22.667 -5.66699 -42.667 -15 -60s-21.5 -32 -36.5 -44s-31.833 -21.167 -50.5 -27.5s-37.667 -9.5 -57 -9.5z" />
    <glyph glyph-name="Iogonek" unicode="&#x12e;" horiz-adv-x="275" 
d="M73 0v667h128v-667h-128zM139 -198c-34 0 -59.3311 8.16699 -75.998 24.5s-25 37.166 -25 62.499c0 18 3.83301 34.5 11.5 49.5s17.167 28.333 28.5 40s22.666 21.167 33.999 28.5s19.666 12.333 24.999 15l72 -12c-19.333 -13.333 -36.833 -28 -52.5 -44
s-23.5 -32 -23.5 -48c0 -8.66699 2.16699 -15.667 6.5 -21s11.5 -8 21.5 -8c12 0 23 3 33 9l23 -75c-12.667 -7.33301 -25.5 -12.666 -38.5 -15.999s-26.167 -5 -39.5 -5z" />
    <glyph glyph-name="iogonek" unicode="&#x12f;" horiz-adv-x="247" 
d="M62 0v482h123v-482h-123zM124 527c-25.333 0 -44.166 7.33301 -56.499 22s-18.5 31 -18.5 49c0 17.333 6.16699 33.333 18.5 48s31.166 22 56.499 22c24.667 0 43.167 -7.33301 55.5 -22s18.5 -30.667 18.5 -48c0 -18 -6.16699 -34.333 -18.5 -49s-30.833 -22 -55.5 -22z
M121 -198c-34 0 -59.3311 8.16699 -75.998 24.5s-25 37.166 -25 62.499c0 18 3.83301 34.5 11.5 49.5s17.167 28.333 28.5 40s22.666 21.167 33.999 28.5s19.666 12.333 24.999 15l72 -12c-19.333 -13.333 -36.833 -28 -52.5 -44s-23.5 -32 -23.5 -48
c0 -8.66699 2.16699 -15.667 6.5 -21s11.5 -8 21.5 -8c12 0 23 3 33 9l23 -75c-12.667 -7.33301 -25.5 -12.666 -38.5 -15.999s-26.167 -5 -39.5 -5z" />
    <glyph glyph-name="Idotaccent" unicode="&#x130;" horiz-adv-x="275" 
d="M73 0v667h128v-667h-128zM146 723c-20 0 -36.667 7.66699 -50 23s-20 33.333 -20 54s6.66699 38.667 20 54s30 23 50 23c20.667 0 37.667 -7.66699 51 -23s20 -33.333 20 -54s-6.66699 -38.667 -20 -54s-30.333 -23 -51 -23z" />
    <glyph glyph-name="dotlessi" unicode="&#x131;" horiz-adv-x="247" 
d="M62 0v482h123v-482h-123z" />
    <glyph glyph-name="IJ" unicode="&#x132;" horiz-adv-x="657" 
d="M73 0v667h128v-667h-128zM403 -14c-35.333 0 -66.332 4.83203 -92.999 14.499s-46 18.167 -58 25.5l37 107c6 -7.33301 16.833 -14 32.5 -20s28.667 -9.66699 39 -11s19.5 -2 27.5 -2c23.333 0 41.833 5.83301 55.5 17.5s20.5 33.834 20.5 66.501v483h128v-484
c0 -66.667 -15.833 -116.167 -47.5 -148.5s-78.834 -48.5 -141.501 -48.5z" />
    <glyph glyph-name="ij" unicode="&#x133;" horiz-adv-x="479" 
d="M62 0v482h123v-482h-123zM124 527c-25.333 0 -44.166 7.33301 -56.499 22s-18.5 31 -18.5 49c0 17.333 6.16699 33.333 18.5 48s31.166 22 56.499 22c24.667 0 43.167 -7.33301 55.5 -22s18.5 -30.667 18.5 -48c0 -18 -6.16699 -34.333 -18.5 -49s-30.833 -22 -55.5 -22z
M273 -203l-55 97c28 18.667 47.5 37.667 58.5 57s16.5 42 16.5 68v463h124v-463c0 -55.333 -11.5 -100.333 -34.5 -135s-59.5 -63.667 -109.5 -87zM356 527c-24.667 0 -43.167 7.33301 -55.5 22s-18.5 31 -18.5 49c0 17.333 6.16699 33.333 18.5 48s30.833 22 55.5 22
c24 0 42.167 -7.33301 54.5 -22s18.5 -30.667 18.5 -48c0 -18 -6.16699 -34.333 -18.5 -49s-30.5 -22 -54.5 -22z" />
    <glyph glyph-name="Jcircumflex" unicode="&#x134;" horiz-adv-x="425" 
d="M171 -14c-35.333 0 -66.332 4.83203 -92.999 14.499s-46 18.167 -58 25.5l37 107c6 -7.33301 16.833 -14 32.5 -20s28.667 -9.66699 39 -11s19.5 -2 27.5 -2c23.333 0 41.833 5.83301 55.5 17.5s20.5 33.834 20.5 66.501v483h128v-484
c0 -66.667 -15.833 -116.167 -47.5 -148.5s-78.834 -48.5 -141.501 -48.5zM197.001 709.999l-64 45l115 130h92l113 -129l-64 -45l-96 96z" />
    <glyph glyph-name="jcircumflex" unicode="&#x135;" horiz-adv-x="257" 
d="M51 -203l-55 97c28 18.667 47.5 37.667 58.5 57s16.5 42 16.5 68v463h124v-463c0 -55.333 -11.5 -100.333 -34.5 -135s-59.5 -63.667 -109.5 -87zM36 544l-64 45l115 130h92l113 -129l-64 -45l-96 96z" />
    <glyph glyph-name="Kcommaaccent" unicode="&#x136;" horiz-adv-x="589" 
d="M73 0l0.000976562 667h128v-269h67c12.667 0 23.667 3.16699 33 9.5s19 21.166 29 44.499l95 215h135l-105 -233c-9.33301 -20 -18.333 -35.333 -27 -46s-19.334 -19.667 -32.001 -27c15.333 -8 27.833 -18 37.5 -30s18.167 -27.667 25.5 -47l113 -284h-139l-82 208
c-10.667 26.667 -21 46.334 -31 59.001s-24.667 19 -44 19h-75v-286h-128zM197.001 -181l59 137h110l-81 -137h-88z" />
    <glyph glyph-name="kcommaaccent" unicode="&#x137;" horiz-adv-x="500" 
d="M62 0l-0.000976562 666.999h124v-348h30c12 0 22.667 3.5 32 10.5s19 22.167 29 45.5l44 107h134l-58 -135c-13.333 -30 -32 -52.667 -56 -68c14.667 -7.33301 26.834 -16.166 36.501 -26.499s17.834 -23.5 24.501 -39.5l88 -213h-135l-55 130
c-12.667 30 -23.834 51 -33.501 63s-23.5 18 -41.5 18h-39v-211h-124zM154.999 -181.001l59 137h110l-81 -137h-88z" />
    <glyph glyph-name="kgreenlandic" unicode="&#x138;" horiz-adv-x="500" 
d="M62 0l-0.00195312 481.998h124v-193h30c12 0 22.667 3.5 32 10.5s19 22.167 29 45.5l56 137h134l-70 -165c-13.333 -30 -32 -52.667 -56 -68c14.667 -7.33301 26.834 -16.166 36.501 -26.499s17.834 -23.5 24.501 -39.5l77 -183h-139l-40 100
c-17.333 34.667 -26 52.667 -26 54c-4.66699 8.66699 -11.5 15.334 -20.5 20.001s-18.5 7 -28.5 7h-39v-181h-124z" />
    <glyph glyph-name="Lacute" unicode="&#x139;" horiz-adv-x="531" 
d="M73 0v667h128v-546h310v-121h-438zM56 704l-33 54l191 141l59 -83z" />
    <glyph glyph-name="lacute" unicode="&#x13a;" horiz-adv-x="308" 
d="M190 -11c-27.333 0 -49.5 4.16602 -66.5 12.499s-30.167 19 -39.5 32s-15.333 27.167 -18 42.5s-4 29 -4 41v550h124v-526c0 -17.333 3.5 -29.166 10.5 -35.499s16.833 -9.5 29.5 -9.5s26 3 40 9l22 -94c-2.66699 -2.66699 -14.667 -7 -36 -13c-20 -6 -40.667 -9 -62 -9z
M39 703.999l-33 54l191 141l59 -83z" />
    <glyph glyph-name="Lcommaaccent" unicode="&#x13b;" horiz-adv-x="531" 
d="M73 0v667h128v-546h310v-121h-438zM187 -181l59 137h110l-81 -137h-88z" />
    <glyph glyph-name="lcommaaccent" unicode="&#x13c;" horiz-adv-x="308" 
d="M190 -11c-27.333 0 -49.5 4.16602 -66.5 12.499s-30.167 19 -39.5 32s-15.333 27.167 -18 42.5s-4 29 -4 41v550h124v-526c0 -17.333 3.5 -29.166 10.5 -35.499s16.833 -9.5 29.5 -9.5s26 3 40 9l22 -94c-2.66699 -2.66699 -14.667 -7 -36 -13c-20 -6 -40.667 -9 -62 -9z
M67 -181.001l59 137h110l-81 -137h-88z" />
    <glyph glyph-name="Lcaron" unicode="&#x13d;" horiz-adv-x="531" 
d="M73 0v667h128v-546h310v-121h-438zM274 497v170h107l-34 -170h-73z" />
    <glyph glyph-name="lcaron" unicode="&#x13e;" horiz-adv-x="299" 
d="M190 -11c-27.333 0 -49.5 4.16602 -66.5 12.499s-30.167 19 -39.5 32s-15.333 27.167 -18 42.5s-4 29 -4 41v550h124v-526c0 -17.333 3.5 -29.166 10.5 -35.499s16.833 -9.5 29.5 -9.5s26 3 40 9l22 -94c-2.66699 -2.66699 -14.667 -7 -36 -13c-20 -6 -40.667 -9 -62 -9z
M242 496.999v170h107l-34 -170h-73z" />
    <glyph glyph-name="Ldot" unicode="&#x13f;" horiz-adv-x="531" 
d="M73 0v667h128v-546h310v-121h-438zM409 279c-20 0 -36.667 7.66699 -50 23s-20 33.333 -20 54s6.66699 38.667 20 54s30 23 50 23c20.667 0 37.667 -7.66699 51 -23s20 -33.333 20 -54s-6.66699 -38.667 -20 -54s-30.333 -23 -51 -23z" />
    <glyph glyph-name="ldot" unicode="&#x140;" horiz-adv-x="365" 
d="M190 -11c-27.333 0 -49.5 4.16602 -66.5 12.499s-30.167 19 -39.5 32s-15.333 27.167 -18 42.5s-4 29 -4 41v550h124v-526c0 -17.333 3.5 -29.166 10.5 -35.499s16.833 -9.5 29.5 -9.5s26 3 40 9l22 -94c-2.66699 -2.66699 -14.667 -7 -36 -13c-20 -6 -40.667 -9 -62 -9z
M308 278.999c-20 0 -36.667 7.66699 -50 23s-20 33.333 -20 54s6.66699 38.667 20 54s30 23 50 23c20.667 0 37.667 -7.66699 51 -23s20 -33.333 20 -54s-6.66699 -38.667 -20 -54s-30.333 -23 -51 -23z" />
    <glyph glyph-name="Lslash" unicode="&#x141;" horiz-adv-x="531" 
d="M73 0v251l-55 -32l-48 86l103 62v300h128v-230l92 59l55 -84l-147 -92v-199h310v-121h-438z" />
    <glyph glyph-name="lslash" unicode="&#x142;" horiz-adv-x="331" 
d="M213 -11c-27.333 0 -49.5 4.16602 -66.5 12.499s-30.167 19 -39.5 32s-15.333 27.167 -18 42.5s-4 29 -4 41v136l-58 -33l-42 79l100 59v309h124v-244l85 54l44 -78l-129 -80v-178c0 -17.333 3.5 -29.166 10.5 -35.499s16.833 -9.5 29.5 -9.5s26 3 40 9l22 -94
c-2.66699 -2.66699 -14.667 -7 -36 -13c-20 -6 -40.667 -9 -62 -9z" />
    <glyph glyph-name="Nacute" unicode="&#x143;" horiz-adv-x="660" 
d="M73 0v667h131l257 -416v416h126v-667h-112l-275 441v-441h-127zM234 704l-33 54l191 141l59 -83z" />
    <glyph glyph-name="nacute" unicode="&#x144;" horiz-adv-x="552" 
d="M62 0v482h113l6 -38c19.333 16 41.166 28.333 65.499 37s48.833 13 73.5 13c38.667 0 71.667 -8.66699 99 -26s46.5 -42.833 57.5 -76.5s16.5 -69.167 16.5 -106.5v-285h-124v275c0 36.667 -7.5 65 -22.5 85s-36.5 30 -64.5 30c-19.333 0 -37.166 -5 -53.499 -15
s-30.5 -21 -42.5 -33v-342h-124zM187 538l-33 54l191 141l59 -83z" />
    <glyph glyph-name="Ncommaaccent" unicode="&#x145;" horiz-adv-x="660" 
d="M73 0v667h131l257 -416v416h126v-667h-112l-275 441v-441h-127zM243 -181l59 137h110l-81 -137h-88z" />
    <glyph glyph-name="ncommaaccent" unicode="&#x146;" horiz-adv-x="552" 
d="M62 0v482h113l6 -38c19.333 16 41.166 28.333 65.499 37s48.833 13 73.5 13c38.667 0 71.667 -8.66699 99 -26s46.5 -42.833 57.5 -76.5s16.5 -69.167 16.5 -106.5v-285h-124v275c0 36.667 -7.5 65 -22.5 85s-36.5 30 -64.5 30c-19.333 0 -37.166 -5 -53.499 -15
s-30.5 -21 -42.5 -33v-342h-124zM175 -181l59 137h110l-81 -137h-88z" />
    <glyph glyph-name="Ncaron" unicode="&#x147;" horiz-adv-x="660" 
d="M73 0v667h131l257 -416v416h126v-667h-112l-275 441v-441h-127zM292 708l-115 126l68 48l92 -95l96 95l66 -41l-115 -133h-92z" />
    <glyph glyph-name="ncaron" unicode="&#x148;" horiz-adv-x="552" 
d="M62 0v482h113l6 -38c19.333 16 41.166 28.333 65.499 37s48.833 13 73.5 13c38.667 0 71.667 -8.66699 99 -26s46.5 -42.833 57.5 -76.5s16.5 -69.167 16.5 -106.5v-285h-124v275c0 36.667 -7.5 65 -22.5 85s-36.5 30 -64.5 30c-19.333 0 -37.166 -5 -53.499 -15
s-30.5 -21 -42.5 -33v-342h-124zM243 544l-115 126l68 48l92 -95l96 95l66 -41l-115 -133h-92z" />
    <glyph glyph-name="napostrophe" unicode="&#x149;" horiz-adv-x="552" 
d="M62 0v482h113l6 -38c19.333 16 41.166 28.333 65.499 37s48.833 13 73.5 13c38.667 0 71.667 -8.66699 99 -26s46.5 -42.833 57.5 -76.5s16.5 -69.167 16.5 -106.5v-285h-124v275c0 36.667 -7.5 65 -22.5 85s-36.5 30 -64.5 30c-19.333 0 -37.166 -5 -53.499 -15
s-30.5 -21 -42.5 -33v-342h-124zM-5 436l-33 45c11.333 9.33301 22 20.5 32 33.5s15.667 25.167 17 36.5c-16 1.33301 -30.167 8.83301 -42.5 22.5s-18.5 30.5 -18.5 50.5c0 18.667 6 35.167 18 49.5s29.333 21.5 52 21.5c23.333 0 41.333 -8.33301 54 -25s19 -38 19 -64
c0 -24.667 -7.33301 -52.167 -22 -82.5s-40 -59.5 -76 -87.5z" />
    <glyph glyph-name="Eng" unicode="&#x14a;" horiz-adv-x="660" 
d="M441 -203l-53.001 96c32.667 21.333 52.334 39.333 59.001 54c7.33301 16 13 39.667 17 71l-264 423v-441h-127v667h131l257 -416v416h126v-648c0 -47.333 -9 -86.5 -27 -117.5s-39.167 -54.333 -63.5 -70s-42.833 -27.167 -55.5 -34.5z" />
    <glyph glyph-name="eng" unicode="&#x14b;" horiz-adv-x="552" 
d="M348 -202l-54 94.001c28 17.333 47.5 33.666 58.5 48.999s16.5 35 16.5 59v275c0 36.667 -7.5 65 -22.5 85s-36.5 30 -64.5 30c-19.333 0 -37.166 -5 -53.499 -15s-30.5 -21 -42.5 -33v-342h-124v482h113l6 -38c19.333 16 41.166 28.333 65.499 37s48.833 13 73.5 13
c38.667 0 71.667 -8.66699 99 -26s46.5 -42.833 57.5 -76.5s16.5 -69.167 16.5 -106.5v-285c0 -47.333 -12.333 -86.333 -37 -117s-60.667 -59 -108 -85z" />
    <glyph glyph-name="Omacron" unicode="&#x14c;" horiz-adv-x="672" 
d="M334 -14c-48.667 0 -91.168 10.1641 -127.501 30.4971s-66.666 46.833 -90.999 79.5s-42.5 69.834 -54.5 111.501s-18 83.834 -18 126.501s6 84.834 18 126.501s30.167 78.834 54.5 111.501s54.666 59 90.999 79s78.833 30 127.5 30c68 0 125.667 -20 173 -60
s79.333 -87.333 96 -142c17.333 -57.333 26 -105.666 26 -144.999c0 -42.667 -6.16699 -84.834 -18.5 -126.501s-30.666 -78.834 -54.999 -111.501s-55 -59.167 -92 -79.5s-80.167 -30.5 -129.5 -30.5zM333.999 104.997c26.667 0 51.334 7.16602 74.001 21.499
s39.667 31.333 51 51s19.666 38.834 24.999 57.501c10 36.667 15 69.667 15 99c0 44 -8 85 -24 123c-15.333 38 -36 65.167 -62 81.5s-52.333 24.5 -79 24.5c-26 0 -49.167 -6.33301 -69.5 -19s-37.333 -29.667 -51 -51s-24 -45.833 -31 -73.5s-10.5 -56.167 -10.5 -85.5
s3.5 -57.833 10.5 -85.5s17.333 -52.167 31 -73.5s30.667 -38.333 51 -51s43.5 -19 69.5 -19zM163.999 743.996v89h345v-89h-345z" />
    <glyph glyph-name="omacron" unicode="&#x14d;" horiz-adv-x="528" 
d="M264 -11c-38.667 0 -72.501 7.33496 -101.501 22.002s-53 34 -72 58s-33.333 51.167 -43 81.5s-14.5 61.166 -14.5 92.499c0 48.667 10.667 93.667 32 135c22 41.333 51 71 87 89s73.333 27 112 27c54 0 99.667 -14.667 137 -44
c36.667 -28.667 61.334 -62.667 74.001 -102c13.333 -41.333 20 -76.333 20 -105c0 -48.667 -11 -94 -33 -136c-16.667 -32.667 -38.5 -58.334 -65.5 -77.001s-52.167 -30.167 -75.5 -34.5s-42.333 -6.5 -57 -6.5zM263.999 96.002c21.333 -1.33301 39.333 3.83496 54 15.502
s26.167 25.5 34.5 41.5s14.166 32.5 17.499 49.5s4.33301 30.5 3 40.5c0 36 -7.5 66.333 -22.5 91s-31 40.167 -48 46.5s-29.833 9.16602 -38.5 8.49902c-28 0 -51.333 -10 -70 -30c-15.333 -16.667 -25.666 -35.167 -30.999 -55.5s-8 -40.5 -8 -60.5
c0 -20.667 2.33301 -39.834 7 -57.501s11.5 -33.167 20.5 -46.5s20.333 -23.833 34 -31.5s29.5 -11.5 47.5 -11.5zM90.999 578.003v89h345v-89h-345z" />
    <glyph glyph-name="Obreve" unicode="&#x14e;" horiz-adv-x="672" 
d="M334 -14c-48.667 0 -91.168 10.1641 -127.501 30.4971s-66.666 46.833 -90.999 79.5s-42.5 69.834 -54.5 111.501s-18 83.834 -18 126.501s6 84.834 18 126.501s30.167 78.834 54.5 111.501s54.666 59 90.999 79s78.833 30 127.5 30c68 0 125.667 -20 173 -60
s79.333 -87.333 96 -142c17.333 -57.333 26 -105.666 26 -144.999c0 -42.667 -6.16699 -84.834 -18.5 -126.501s-30.666 -78.834 -54.999 -111.501s-55 -59.167 -92 -79.5s-80.167 -30.5 -129.5 -30.5zM333.999 104.997c26.667 0 51.334 7.16602 74.001 21.499
s39.667 31.333 51 51s19.666 38.834 24.999 57.501c10 36.667 15 69.667 15 99c0 44 -8 85 -24 123c-15.333 38 -36 65.167 -62 81.5s-52.333 24.5 -79 24.5c-26 0 -49.167 -6.33301 -69.5 -19s-37.333 -29.667 -51 -51s-24 -45.833 -31 -73.5s-10.5 -56.167 -10.5 -85.5
s3.5 -57.833 10.5 -85.5s17.333 -52.167 31 -73.5s30.667 -38.333 51 -51s43.5 -19 69.5 -19zM336.999 706.996c-24.667 0 -47.167 3.83496 -67.5 11.502s-37.5 18.167 -51.5 31.5s-24.333 28.666 -31 45.999s-10 34.666 -10 51.999h98c4 -18.667 11 -33.5 21 -44.5
s23.667 -16.5 41 -16.5s31.333 5.5 42 16.5s18 25.833 22 44.5h95c-0.666992 -22.667 -5.66699 -42.667 -15 -60s-21.5 -32 -36.5 -44s-31.833 -21.167 -50.5 -27.5s-37.667 -9.5 -57 -9.5z" />
    <glyph glyph-name="obreve" unicode="&#x14f;" horiz-adv-x="528" 
d="M264 -11c-38.667 0 -72.501 7.33496 -101.501 22.002s-53 34 -72 58s-33.333 51.167 -43 81.5s-14.5 61.166 -14.5 92.499c0 48.667 10.667 93.667 32 135c22 41.333 51 71 87 89s73.333 27 112 27c54 0 99.667 -14.667 137 -44
c36.667 -28.667 61.334 -62.667 74.001 -102c13.333 -41.333 20 -76.333 20 -105c0 -48.667 -11 -94 -33 -136c-16.667 -32.667 -38.5 -58.334 -65.5 -77.001s-52.167 -30.167 -75.5 -34.5s-42.333 -6.5 -57 -6.5zM263.999 96.002c21.333 -1.33301 39.333 3.83496 54 15.502
s26.167 25.5 34.5 41.5s14.166 32.5 17.499 49.5s4.33301 30.5 3 40.5c0 36 -7.5 66.333 -22.5 91s-31 40.167 -48 46.5s-29.833 9.16602 -38.5 8.49902c-28 0 -51.333 -10 -70 -30c-15.333 -16.667 -25.666 -35.167 -30.999 -55.5s-8 -40.5 -8 -60.5
c0 -20.667 2.33301 -39.834 7 -57.501s11.5 -33.167 20.5 -46.5s20.333 -23.833 34 -31.5s29.5 -11.5 47.5 -11.5zM263.999 539.003c-24.667 0 -47.167 3.83496 -67.5 11.502s-37.5 18.167 -51.5 31.5s-24.333 28.666 -31 45.999s-10 34.666 -10 51.999h98
c4 -18.667 11 -33.5 21 -44.5s23.667 -16.5 41 -16.5s31.333 5.5 42 16.5s18 25.833 22 44.5h95c-0.666992 -22.667 -5.66699 -42.667 -15 -60s-21.5 -32 -36.5 -44s-31.833 -21.167 -50.5 -27.5s-37.667 -9.5 -57 -9.5z" />
    <glyph glyph-name="Ohungarumlaut" unicode="&#x150;" horiz-adv-x="672" 
d="M334 -14c-48.667 0 -91.168 10.1641 -127.501 30.4971s-66.666 46.833 -90.999 79.5s-42.5 69.834 -54.5 111.501s-18 83.834 -18 126.501s6 84.834 18 126.501s30.167 78.834 54.5 111.501s54.666 59 90.999 79s78.833 30 127.5 30c68 0 125.667 -20 173 -60
s79.333 -87.333 96 -142c17.333 -57.333 26 -105.666 26 -144.999c0 -42.667 -6.16699 -84.834 -18.5 -126.501s-30.666 -78.834 -54.999 -111.501s-55 -59.167 -92 -79.5s-80.167 -30.5 -129.5 -30.5zM333.999 104.997c26.667 0 51.334 7.16602 74.001 21.499
s39.667 31.333 51 51s19.666 38.834 24.999 57.501c10 36.667 15 69.667 15 99c0 44 -8 85 -24 123c-15.333 38 -36 65.167 -62 81.5s-52.333 24.5 -79 24.5c-26 0 -49.167 -6.33301 -69.5 -19s-37.333 -29.667 -51 -51s-24 -45.833 -31 -73.5s-10.5 -56.167 -10.5 -85.5
s3.5 -57.833 10.5 -85.5s17.333 -52.167 31 -73.5s30.667 -38.333 51 -51s43.5 -19 69.5 -19zM201.999 706.996l-37 43l156 151l61 -72zM377.999 706.996l-38 43l155 151l63 -72z" />
    <glyph glyph-name="ohungarumlaut" unicode="&#x151;" horiz-adv-x="528" 
d="M264 -11c-38.667 0 -72.501 7.33496 -101.501 22.002s-53 34 -72 58s-33.333 51.167 -43 81.5s-14.5 61.166 -14.5 92.499c0 48.667 10.667 93.667 32 135c22 41.333 51 71 87 89s73.333 27 112 27c54 0 99.667 -14.667 137 -44
c36.667 -28.667 61.334 -62.667 74.001 -102c13.333 -41.333 20 -76.333 20 -105c0 -48.667 -11 -94 -33 -136c-16.667 -32.667 -38.5 -58.334 -65.5 -77.001s-52.167 -30.167 -75.5 -34.5s-42.333 -6.5 -57 -6.5zM263.999 96.002c21.333 -1.33301 39.333 3.83496 54 15.502
s26.167 25.5 34.5 41.5s14.166 32.5 17.499 49.5s4.33301 30.5 3 40.5c0 36 -7.5 66.333 -22.5 91s-31 40.167 -48 46.5s-29.833 9.16602 -38.5 8.49902c-28 0 -51.333 -10 -70 -30c-15.333 -16.667 -25.666 -35.167 -30.999 -55.5s-8 -40.5 -8 -60.5
c0 -20.667 2.33301 -39.834 7 -57.501s11.5 -33.167 20.5 -46.5s20.333 -23.833 34 -31.5s29.5 -11.5 47.5 -11.5zM133.999 541.003l-37 43l156 151l61 -72zM309.999 541.003l-38 43l155 151l63 -72z" />
    <glyph glyph-name="OE" unicode="&#x152;" horiz-adv-x="920" 
d="M370 0c-50 0 -95.333 7.83301 -136 23.5s-75.5 38 -104.5 67s-51.333 64 -67 105s-23.5 86.833 -23.5 137.5c0 52 8.33301 98.5 25 139.5s39.834 76 69.501 105s64.667 51.167 105 66.5s84.166 23 131.499 23h501v-121h-307v-152h254v-121h-254v-152h329v-121h-523z
M363 121h72.998v425h-73c-31.333 0.666992 -59.166 -5.5 -83.499 -18.5s-44.666 -29.667 -60.999 -50s-28.5 -43.333 -36.5 -69s-11.333 -50.5 -10 -74.5c0 -31.333 5 -60 15 -86s23.667 -48.5 41 -67.5s37.5 -33.667 60.5 -44s47.833 -15.5 74.5 -15.5z" />
    <glyph glyph-name="oe" unicode="&#x153;" horiz-adv-x="828" 
d="M258 -11c-37.333 0 -70.001 7.33496 -98.001 22.002s-51.5 34 -70.5 58s-33.167 51.167 -42.5 81.5s-14 61.166 -14 92.499c0 48.667 10.667 93.667 32 135c22 41.333 51 71 87 89s73.333 27 112 27c38 0 70.5 -7.33301 97.5 -22s49.167 -34.667 66.5 -60
c18.667 25.333 41 45.333 67 60s56 22 90 22c54 0 98 -15 132 -45c34.667 -30 57 -65.333 67 -106c10 -40 15 -77 15 -111v-22h-312c2.66699 -40.667 15.334 -70 38.001 -88s52 -27 88 -27c32 0 60 5 84 15s40.333 19.333 49 28l33 -101
c-14.667 -10.667 -28.667 -18.334 -42 -23.001c-8.66699 -4 -28.334 -9.33301 -59.001 -16c-29.333 -6 -56.666 -9 -81.999 -9c-36 0 -69.5 6.83301 -100.5 20.5s-54.833 33.5 -71.5 59.5c-16.667 -21.333 -38 -40 -64 -56s-60 -24 -102 -24zM263.999 96.002
c21.333 0 39.332 5.50195 53.999 16.502s26.167 24.5 34.5 40.5s13.833 32.5 16.5 49.5s4 30.5 4 40.5c0 36 -7.5 66.333 -22.5 91s-31 40.167 -48 46.5s-29.833 9.16602 -38.5 8.49902c-28 0 -51.333 -10 -70 -30c-15.333 -16.667 -25.666 -35.167 -30.999 -55.5
s-8 -40.5 -8 -60.5c0 -20.667 2.33301 -39.834 7 -57.501s11.5 -33.167 20.5 -46.5s20.333 -23.833 34 -31.5s29.5 -11.5 47.5 -11.5zM489.998 299.004l182.998 -0.000976562c-2 25.333 -9.33301 45.333 -22 60s-25.5 24.334 -38.5 29.001s-22.167 7 -27.5 7
c-21.333 0 -41.666 -8 -60.999 -24s-30.666 -40 -33.999 -72z" />
    <glyph glyph-name="Racute" unicode="&#x154;" horiz-adv-x="588" 
d="M73 0l0.00292969 667h233c49.333 0 93 -10.333 131 -31s63.333 -46.334 76 -77.001c11.333 -29.333 17 -59.333 17 -90c0 -34 -7.66699 -65.333 -23 -94s-39 -52.667 -71 -72c18.667 -9.33301 33.667 -22.666 45 -39.999s22.666 -44.333 33.999 -81l50 -182h-133l-50 167
c-8 22 -15.333 40 -22 54c-4.66699 10 -12.834 17.333 -24.501 22s-24.834 7 -39.501 7h-97v-250h-126zM199.003 365h90c76 0 114 30.333 114 91c0 32 -9 55.833 -27 71.5s-47 23.5 -87 23.5h-90v-186zM177.003 704l-33 54l191 141l59 -83z" />
    <glyph glyph-name="racute" unicode="&#x155;" horiz-adv-x="356" 
d="M62 0v482.001h113l8 -51c11.333 13.333 23.833 24.166 37.5 32.499s27.834 15.166 42.501 20.499s27.667 8 39 8c26 0 44 -2.33301 54 -7l-18 -108c-8.66699 2.66699 -22.667 4 -42 4c-23.333 0 -44.333 -6.16699 -63 -18.5s-34.334 -25.166 -47.001 -38.499v-324h-124z
M125 538.001l-33 54l191 141l59 -83z" />
    <glyph glyph-name="Rcommaaccent" unicode="&#x156;" horiz-adv-x="588" 
d="M73 0l0.00292969 667h233c49.333 0 93 -10.333 131 -31s63.333 -46.334 76 -77.001c11.333 -29.333 17 -59.333 17 -90c0 -34 -7.66699 -65.333 -23 -94s-39 -52.667 -71 -72c18.667 -9.33301 33.667 -22.666 45 -39.999s22.666 -44.333 33.999 -81l50 -182h-133l-50 167
c-8 22 -15.333 40 -22 54c-4.66699 10 -12.834 17.333 -24.501 22s-24.834 7 -39.501 7h-97v-250h-126zM199.003 365h90c76 0 114 30.333 114 91c0 32 -9 55.833 -27 71.5s-47 23.5 -87 23.5h-90v-186zM204.003 -181l59 137h110l-81 -137h-88z" />
    <glyph glyph-name="rcommaaccent" unicode="&#x157;" horiz-adv-x="356" 
d="M62 0v482.001h113l8 -51c11.333 13.333 23.833 24.166 37.5 32.499s27.834 15.166 42.501 20.499s27.667 8 39 8c26 0 44 -2.33301 54 -7l-18 -108c-8.66699 2.66699 -22.667 4 -42 4c-23.333 0 -44.333 -6.16699 -63 -18.5s-34.334 -25.166 -47.001 -38.499v-324h-124z
M19 -180.999l59 137h110l-81 -137h-88z" />
    <glyph glyph-name="Rcaron" unicode="&#x158;" horiz-adv-x="588" 
d="M73 0l0.00292969 667h233c49.333 0 93 -10.333 131 -31s63.333 -46.334 76 -77.001c11.333 -29.333 17 -59.333 17 -90c0 -34 -7.66699 -65.333 -23 -94s-39 -52.667 -71 -72c18.667 -9.33301 33.667 -22.666 45 -39.999s22.666 -44.333 33.999 -81l50 -182h-133l-50 167
c-8 22 -15.333 40 -22 54c-4.66699 10 -12.834 17.333 -24.501 22s-24.834 7 -39.501 7h-97v-250h-126zM199.003 365h90c76 0 114 30.333 114 91c0 32 -9 55.833 -27 71.5s-47 23.5 -87 23.5h-90v-186zM233.003 710l-115 126l68 48l92 -95l96 95l66 -41l-115 -133h-92z" />
    <glyph glyph-name="rcaron" unicode="&#x159;" horiz-adv-x="356" 
d="M62 0v482.001h113l8 -51c11.333 13.333 23.833 24.166 37.5 32.499s27.834 15.166 42.501 20.499s27.667 8 39 8c26 0 44 -2.33301 54 -7l-18 -108c-8.66699 2.66699 -22.667 4 -42 4c-23.333 0 -44.333 -6.16699 -63 -18.5s-34.334 -25.166 -47.001 -38.499v-324h-124z
M160 544.001l-115 126l68 48l92 -95l96 95l66 -41l-115 -133h-92z" />
    <glyph glyph-name="Sacute" unicode="&#x15a;" horiz-adv-x="521" 
d="M257 -14c-30 0 -57.6689 2.66699 -83.002 8s-47.666 11.5 -66.999 18.5s-35.5 14.167 -48.5 21.5s-22.5 13.333 -28.5 18l54 111c6 -5.33301 14.333 -11.666 25 -18.999s23.167 -14.333 37.5 -21s30.666 -12.167 48.999 -16.5s38.5 -6.5 60.5 -6.5c32 0 57.167 7 75.5 21
s27.5 32.667 27.5 56c0 28 -9 49.667 -27 65c-19.333 16 -58.666 34.333 -117.999 55c-49.333 14 -88.333 32.667 -117 56c-20 16.667 -34.833 34.667 -44.5 54s-14.834 36.166 -15.501 50.499s-0.666992 26.833 0 37.5c0 42 10.333 77.333 31 106
c20.667 30 48.667 50.833 84 62.5s71.333 17.5 108 17.5c36 0 69.167 -5 99.5 -15s55.833 -22.333 76.5 -37s36 -27.667 46 -39l-67 -89c-12.667 14 -31.667 27 -57 39s-46.666 20.167 -63.999 24.5s-30.333 6.16602 -39 5.49902c-34.667 0 -59 -6.83301 -73 -20.5
s-21 -30.167 -21 -49.5c0 -23.333 8 -41 24 -53c8.66699 -6 21.5 -13 38.5 -21s38.833 -16.667 65.5 -26c59.333 -20.667 103.666 -43.667 132.999 -69c29.333 -24.667 47 -49.667 53 -75c5.33301 -23.333 9 -48 11 -74c0 -45.333 -13.667 -84.666 -41 -117.999
c-27.333 -32 -58.666 -53 -93.999 -63s-66.666 -15 -93.999 -15zM170.998 704l-33 54l191 141l59 -83z" />
    <glyph glyph-name="sacute" unicode="&#x15b;" horiz-adv-x="461" 
d="M238 -11c-17.333 0 -34.8359 1.16602 -52.5029 3.49902s-35.834 5.83301 -54.501 10.5c-36 9.33301 -61.333 18.666 -76 27.999s-23.667 16.666 -27 21.999l45 95c12.667 -13.333 30.667 -25.666 54 -36.999c23.333 -10 44.5 -16.667 63.5 -20s34.833 -5 47.5 -5
c30 0 50.833 4.33301 62.5 13s17.5 20.334 17.5 35.001c0 12.667 -7.66699 24 -23 34s-45 20.667 -89 32c-31.333 6.66699 -57.166 15 -77.499 25s-36.5 21.333 -48.5 34s-20.167 26.667 -24.5 42s-6.16602 31.666 -5.49902 48.999c0 42.667 15.833 77.334 47.5 104.001
s79.834 40 144.501 40c42 0 79.667 -6 113 -18c34 -11.333 57.667 -22.666 71 -33.999l-42 -90c-12.667 10 -31.334 20.333 -56.001 31s-53 16 -85 16c-29.333 0 -49.166 -4.66699 -59.499 -14s-15.5 -20.666 -15.5 -33.999c0 -16 6 -27.333 18 -34
c12.667 -6.66699 39.334 -14 80.001 -22c49.333 -8.66699 87 -23.334 113 -44.001s41.667 -41 47 -61s8 -36.667 8 -50c0 -40 -12.333 -72.333 -37 -97c-25.333 -24 -53.5 -39 -84.5 -45s-55.833 -9 -74.5 -9zM161.997 537.999l-33 54l191 141l59 -83z" />
    <glyph glyph-name="Scircumflex" unicode="&#x15c;" horiz-adv-x="521" 
d="M257 -14c-30 0 -57.6689 2.66699 -83.002 8s-47.666 11.5 -66.999 18.5s-35.5 14.167 -48.5 21.5s-22.5 13.333 -28.5 18l54 111c6 -5.33301 14.333 -11.666 25 -18.999s23.167 -14.333 37.5 -21s30.666 -12.167 48.999 -16.5s38.5 -6.5 60.5 -6.5c32 0 57.167 7 75.5 21
s27.5 32.667 27.5 56c0 28 -9 49.667 -27 65c-19.333 16 -58.666 34.333 -117.999 55c-49.333 14 -88.333 32.667 -117 56c-20 16.667 -34.833 34.667 -44.5 54s-14.834 36.166 -15.501 50.499s-0.666992 26.833 0 37.5c0 42 10.333 77.333 31 106
c20.667 30 48.667 50.833 84 62.5s71.333 17.5 108 17.5c36 0 69.167 -5 99.5 -15s55.833 -22.333 76.5 -37s36 -27.667 46 -39l-67 -89c-12.667 14 -31.667 27 -57 39s-46.666 20.167 -63.999 24.5s-30.333 6.16602 -39 5.49902c-34.667 0 -59 -6.83301 -73 -20.5
s-21 -30.167 -21 -49.5c0 -23.333 8 -41 24 -53c8.66699 -6 21.5 -13 38.5 -21s38.833 -16.667 65.5 -26c59.333 -20.667 103.666 -43.667 132.999 -69c29.333 -24.667 47 -49.667 53 -75c5.33301 -23.333 9 -48 11 -74c0 -45.333 -13.667 -84.666 -41 -117.999
c-27.333 -32 -58.666 -53 -93.999 -63s-66.666 -15 -93.999 -15zM167.998 711l-64 45l115 130h92l113 -129l-64 -45l-96 96z" />
    <glyph glyph-name="scircumflex" unicode="&#x15d;" horiz-adv-x="461" 
d="M238 -11c-17.333 0 -34.8359 1.16602 -52.5029 3.49902s-35.834 5.83301 -54.501 10.5c-36 9.33301 -61.333 18.666 -76 27.999s-23.667 16.666 -27 21.999l45 95c12.667 -13.333 30.667 -25.666 54 -36.999c23.333 -10 44.5 -16.667 63.5 -20s34.833 -5 47.5 -5
c30 0 50.833 4.33301 62.5 13s17.5 20.334 17.5 35.001c0 12.667 -7.66699 24 -23 34s-45 20.667 -89 32c-31.333 6.66699 -57.166 15 -77.499 25s-36.5 21.333 -48.5 34s-20.167 26.667 -24.5 42s-6.16602 31.666 -5.49902 48.999c0 42.667 15.833 77.334 47.5 104.001
s79.834 40 144.501 40c42 0 79.667 -6 113 -18c34 -11.333 57.667 -22.666 71 -33.999l-42 -90c-12.667 10 -31.334 20.333 -56.001 31s-53 16 -85 16c-29.333 0 -49.166 -4.66699 -59.499 -14s-15.5 -20.666 -15.5 -33.999c0 -16 6 -27.333 18 -34
c12.667 -6.66699 39.334 -14 80.001 -22c49.333 -8.66699 87 -23.334 113 -44.001s41.667 -41 47 -61s8 -36.667 8 -50c0 -40 -12.333 -72.333 -37 -97c-25.333 -24 -53.5 -39 -84.5 -45s-55.833 -9 -74.5 -9zM151.997 543.999l-64 45l115 130h92l113 -129l-64 -45l-96 96z
" />
    <glyph glyph-name="Scedilla" unicode="&#x15e;" horiz-adv-x="521" 
d="M257 -14c-30 0 -57.6689 2.66699 -83.002 8s-47.666 11.5 -66.999 18.5s-35.5 14.167 -48.5 21.5s-22.5 13.333 -28.5 18l54 111c6 -5.33301 14.333 -11.666 25 -18.999s23.167 -14.333 37.5 -21s30.666 -12.167 48.999 -16.5s38.5 -6.5 60.5 -6.5c32 0 57.167 7 75.5 21
s27.5 32.667 27.5 56c0 28 -9 49.667 -27 65c-19.333 16 -58.666 34.333 -117.999 55c-49.333 14 -88.333 32.667 -117 56c-20 16.667 -34.833 34.667 -44.5 54s-14.834 36.166 -15.501 50.499s-0.666992 26.833 0 37.5c0 42 10.333 77.333 31 106
c20.667 30 48.667 50.833 84 62.5s71.333 17.5 108 17.5c36 0 69.167 -5 99.5 -15s55.833 -22.333 76.5 -37s36 -27.667 46 -39l-67 -89c-12.667 14 -31.667 27 -57 39s-46.666 20.167 -63.999 24.5s-30.333 6.16602 -39 5.49902c-34.667 0 -59 -6.83301 -73 -20.5
s-21 -30.167 -21 -49.5c0 -23.333 8 -41 24 -53c8.66699 -6 21.5 -13 38.5 -21s38.833 -16.667 65.5 -26c59.333 -20.667 103.666 -43.667 132.999 -69c29.333 -24.667 47 -49.667 53 -75c5.33301 -23.333 9 -48 11 -74c0 -45.333 -13.667 -84.666 -41 -117.999
c-27.333 -32 -58.666 -53 -93.999 -63s-66.666 -15 -93.999 -15zM147.998 -181l59 137h110l-81 -137h-88z" />
    <glyph glyph-name="scedilla" unicode="&#x15f;" horiz-adv-x="461" 
d="M238 -11c-17.333 0 -34.8359 1.16602 -52.5029 3.49902s-35.834 5.83301 -54.501 10.5c-36 9.33301 -61.333 18.666 -76 27.999s-23.667 16.666 -27 21.999l45 95c12.667 -13.333 30.667 -25.666 54 -36.999c23.333 -10 44.5 -16.667 63.5 -20s34.833 -5 47.5 -5
c30 0 50.833 4.33301 62.5 13s17.5 20.334 17.5 35.001c0 12.667 -7.66699 24 -23 34s-45 20.667 -89 32c-31.333 6.66699 -57.166 15 -77.499 25s-36.5 21.333 -48.5 34s-20.167 26.667 -24.5 42s-6.16602 31.666 -5.49902 48.999c0 42.667 15.833 77.334 47.5 104.001
s79.834 40 144.501 40c42 0 79.667 -6 113 -18c34 -11.333 57.667 -22.666 71 -33.999l-42 -90c-12.667 10 -31.334 20.333 -56.001 31s-53 16 -85 16c-29.333 0 -49.166 -4.66699 -59.499 -14s-15.5 -20.666 -15.5 -33.999c0 -16 6 -27.333 18 -34
c12.667 -6.66699 39.334 -14 80.001 -22c49.333 -8.66699 87 -23.334 113 -44.001s41.667 -41 47 -61s8 -36.667 8 -50c0 -40 -12.333 -72.333 -37 -97c-25.333 -24 -53.5 -39 -84.5 -45s-55.833 -9 -74.5 -9zM122.997 -181.001l59 137h110l-81 -137h-88z" />
    <glyph glyph-name="Scaron" unicode="&#x160;" horiz-adv-x="521" 
d="M257 -14c-30 0 -57.6689 2.66699 -83.002 8s-47.666 11.5 -66.999 18.5s-35.5 14.167 -48.5 21.5s-22.5 13.333 -28.5 18l54 111c6 -5.33301 14.333 -11.666 25 -18.999s23.167 -14.333 37.5 -21s30.666 -12.167 48.999 -16.5s38.5 -6.5 60.5 -6.5c32 0 57.167 7 75.5 21
s27.5 32.667 27.5 56c0 28 -9 49.667 -27 65c-19.333 16 -58.666 34.333 -117.999 55c-49.333 14 -88.333 32.667 -117 56c-20 16.667 -34.833 34.667 -44.5 54s-14.834 36.166 -15.501 50.499s-0.666992 26.833 0 37.5c0 42 10.333 77.333 31 106
c20.667 30 48.667 50.833 84 62.5s71.333 17.5 108 17.5c36 0 69.167 -5 99.5 -15s55.833 -22.333 76.5 -37s36 -27.667 46 -39l-67 -89c-12.667 14 -31.667 27 -57 39s-46.666 20.167 -63.999 24.5s-30.333 6.16602 -39 5.49902c-34.667 0 -59 -6.83301 -73 -20.5
s-21 -30.167 -21 -49.5c0 -23.333 8 -41 24 -53c8.66699 -6 21.5 -13 38.5 -21s38.833 -16.667 65.5 -26c59.333 -20.667 103.666 -43.667 132.999 -69c29.333 -24.667 47 -49.667 53 -75c5.33301 -23.333 9 -48 11 -74c0 -45.333 -13.667 -84.666 -41 -117.999
c-27.333 -32 -58.666 -53 -93.999 -63s-66.666 -15 -93.999 -15zM223.998 710l-115 126l68 48l92 -95l96 95l66 -41l-115 -133h-92z" />
    <glyph glyph-name="scaron" unicode="&#x161;" horiz-adv-x="461" 
d="M238 -11c-17.333 0 -34.8359 1.16602 -52.5029 3.49902s-35.834 5.83301 -54.501 10.5c-36 9.33301 -61.333 18.666 -76 27.999s-23.667 16.666 -27 21.999l45 95c12.667 -13.333 30.667 -25.666 54 -36.999c23.333 -10 44.5 -16.667 63.5 -20s34.833 -5 47.5 -5
c30 0 50.833 4.33301 62.5 13s17.5 20.334 17.5 35.001c0 12.667 -7.66699 24 -23 34s-45 20.667 -89 32c-31.333 6.66699 -57.166 15 -77.499 25s-36.5 21.333 -48.5 34s-20.167 26.667 -24.5 42s-6.16602 31.666 -5.49902 48.999c0 42.667 15.833 77.334 47.5 104.001
s79.834 40 144.501 40c42 0 79.667 -6 113 -18c34 -11.333 57.667 -22.666 71 -33.999l-42 -90c-12.667 10 -31.334 20.333 -56.001 31s-53 16 -85 16c-29.333 0 -49.166 -4.66699 -59.499 -14s-15.5 -20.666 -15.5 -33.999c0 -16 6 -27.333 18 -34
c12.667 -6.66699 39.334 -14 80.001 -22c49.333 -8.66699 87 -23.334 113 -44.001s41.667 -41 47 -61s8 -36.667 8 -50c0 -40 -12.333 -72.333 -37 -97c-25.333 -24 -53.5 -39 -84.5 -45s-55.833 -9 -74.5 -9zM199.997 543.999l-115 126l68 48l92 -95l96 95l66 -41
l-115 -133h-92z" />
    <glyph glyph-name="Tcommaaccent" unicode="&#x162;" horiz-adv-x="516" 
d="M194 0v546h-189v121h506v-121h-189v-546h-128zM140 -181l59 137h110l-81 -137h-88z" />
    <glyph glyph-name="tcommaaccent" unicode="&#x163;" horiz-adv-x="350" 
d="M208 -11c-42.667 0 -74.333 11.999 -95 35.999s-31 53 -31 87v270h-68v100h68v125h123v-125h111v-100h-111v-245c0 -15.333 3.66699 -26 11 -32s16 -9 26 -9c24.667 0 46 7 64 21l32 -89c-15.333 -11.333 -34.5 -20.666 -57.5 -27.999s-47.167 -11 -72.5 -11z
M98.001 -181.001l59 137h110l-81 -137h-88z" />
    <glyph glyph-name="Tcaron" unicode="&#x164;" horiz-adv-x="516" 
d="M194 0v546h-189v121h506v-121h-189v-546h-128zM214 710l-115 126l68 48l92 -95l96 95l66 -41l-115 -133h-92z" />
    <glyph glyph-name="tcaron" unicode="&#x165;" horiz-adv-x="350" 
d="M208 -11c-42.667 0 -74.333 11.999 -95 35.999s-31 53 -31 87v270h-68v100h68v125h123v-125h111v-100h-111v-245c0 -15.333 3.66699 -26 11 -32s16 -9 26 -9c24.667 0 46 7 64 21l32 -89c-15.333 -11.333 -34.5 -20.666 -57.5 -27.999s-47.167 -11 -72.5 -11z
M265.001 537.999v170h107l-34 -170h-73z" />
    <glyph glyph-name="Tbar" unicode="&#x166;" horiz-adv-x="516" 
d="M194 0v276h-146v97h146v173h-189v121h506v-121h-188v-173h143v-97h-143v-276h-129z" />
    <glyph glyph-name="tbar" unicode="&#x167;" horiz-adv-x="350" 
d="M208 -11c-22 0 -41.001 3.33105 -57.001 9.99805s-29 15.834 -39 27.501s-17.5 25.334 -22.5 41.001s-7.5 32.167 -7.5 49.5v90h-68v101h68v74h-68v100h68v125h123v-125h111v-100h-111v-74h111v-101h-111v-71c0 -15.333 3.83301 -25.833 11.5 -31.5
s15.834 -8.5 24.501 -8.5c24 0 45.667 7 65 21l32 -90c-18 -11.333 -37.5 -20.5 -58.5 -27.5s-44.833 -10.5 -71.5 -10.5z" />
    <glyph glyph-name="Utilde" unicode="&#x168;" horiz-adv-x="653" 
d="M326 -14c-56.667 0 -105.335 12.333 -146.002 37c-41.333 25.333 -70.166 56.5 -86.499 93.5s-24.5 74.5 -24.5 112.5v438h128v-425c0 -40 11.167 -72.833 33.5 -98.5s54.5 -38.5 96.5 -38.5s73.833 12.833 95.5 38.5s32.5 58.5 32.5 98.5v425h128v-438
c0 -38 -6.66699 -72 -20 -102s-31.666 -55.5 -54.999 -76.5s-50.5 -37 -81.5 -48s-64.5 -16.5 -100.5 -16.5zM204.999 706l-68 38c12 34 28.5 61.333 49.5 82s45.5 31 73.5 31c17.333 0 41.666 -9.66699 72.999 -29c26.667 -18.667 45.334 -28 56.001 -28
c6 0 14.667 3.83301 26 11.5s22.333 24.834 33 51.501l69 -37c-9.33301 -34 -25.333 -61.5 -48 -82.5s-48.334 -31.5 -77.001 -31.5c-18.667 0 -43.334 10 -74.001 30c-27.333 18 -45.666 27 -54.999 27c-7.33301 0 -16.166 -3.83301 -26.499 -11.5
s-20.833 -24.834 -31.5 -51.501z" />
    <glyph glyph-name="utilde" unicode="&#x169;" horiz-adv-x="550" 
d="M232 -10c-56.667 0 -99.666 17 -128.999 51s-44 85.333 -44 154v287h124v-274c0 -33.333 6 -60.333 18 -81s32.667 -31 62 -31c24 0 44.333 4.83301 61 14.5s30 18.834 40 27.501v344h124v-482h-114l-4 38c-22 -18.667 -44.833 -31.334 -68.5 -38.001
s-46.834 -10 -69.501 -10zM152.001 540l-68 38c12 34 28.5 61.333 49.5 82s45.5 31 73.5 31c17.333 0 41.666 -9.66699 72.999 -29c26.667 -18.667 45.334 -28 56.001 -28c6 0 14.667 3.83301 26 11.5s22.333 24.834 33 51.501l69 -37c-9.33301 -34 -25.333 -61.5 -48 -82.5
s-48.334 -31.5 -77.001 -31.5c-18.667 0 -43.334 10 -74.001 30c-27.333 18 -45.666 27 -54.999 27c-7.33301 0 -16.166 -3.83301 -26.499 -11.5s-20.833 -24.834 -31.5 -51.501z" />
    <glyph glyph-name="Umacron" unicode="&#x16a;" horiz-adv-x="653" 
d="M326 -14c-56.667 0 -105.335 12.333 -146.002 37c-41.333 25.333 -70.166 56.5 -86.499 93.5s-24.5 74.5 -24.5 112.5v438h128v-425c0 -40 11.167 -72.833 33.5 -98.5s54.5 -38.5 96.5 -38.5s73.833 12.833 95.5 38.5s32.5 58.5 32.5 98.5v425h128v-438
c0 -38 -6.66699 -72 -20 -102s-31.666 -55.5 -54.999 -76.5s-50.5 -37 -81.5 -48s-64.5 -16.5 -100.5 -16.5zM154.999 744v89h345v-89h-345z" />
    <glyph glyph-name="umacron" unicode="&#x16b;" horiz-adv-x="550" 
d="M232 -10c-56.667 0 -99.666 17 -128.999 51s-44 85.333 -44 154v287h124v-274c0 -33.333 6 -60.333 18 -81s32.667 -31 62 -31c24 0 44.333 4.83301 61 14.5s30 18.834 40 27.501v344h124v-482h-114l-4 38c-22 -18.667 -44.833 -31.334 -68.5 -38.001
s-46.834 -10 -69.501 -10zM103.001 578v89h345v-89h-345z" />
    <glyph glyph-name="Ubreve" unicode="&#x16c;" horiz-adv-x="653" 
d="M326 -14c-56.667 0 -105.335 12.333 -146.002 37c-41.333 25.333 -70.166 56.5 -86.499 93.5s-24.5 74.5 -24.5 112.5v438h128v-425c0 -40 11.167 -72.833 33.5 -98.5s54.5 -38.5 96.5 -38.5s73.833 12.833 95.5 38.5s32.5 58.5 32.5 98.5v425h128v-438
c0 -38 -6.66699 -72 -20 -102s-31.666 -55.5 -54.999 -76.5s-50.5 -37 -81.5 -48s-64.5 -16.5 -100.5 -16.5zM334.999 705c-24.667 0 -47.167 3.83496 -67.5 11.502s-37.5 18.167 -51.5 31.5s-24.333 28.666 -31 45.999s-10 34.666 -10 51.999h98
c4 -18.667 11 -33.5 21 -44.5s23.667 -16.5 41 -16.5s31.333 5.5 42 16.5s18 25.833 22 44.5h95c-0.666992 -22.667 -5.66699 -42.667 -15 -60s-21.5 -32 -36.5 -44s-31.833 -21.167 -50.5 -27.5s-37.667 -9.5 -57 -9.5z" />
    <glyph glyph-name="ubreve" unicode="&#x16d;" horiz-adv-x="550" 
d="M232 -10c-56.667 0 -99.666 17 -128.999 51s-44 85.333 -44 154v287h124v-274c0 -33.333 6 -60.333 18 -81s32.667 -31 62 -31c24 0 44.333 4.83301 61 14.5s30 18.834 40 27.501v344h124v-482h-114l-4 38c-22 -18.667 -44.833 -31.334 -68.5 -38.001
s-46.834 -10 -69.501 -10zM281.001 539c-24.667 0 -47.167 3.83496 -67.5 11.502s-37.5 18.167 -51.5 31.5s-24.333 28.666 -31 45.999s-10 34.666 -10 51.999h98c4 -18.667 11 -33.5 21 -44.5s23.667 -16.5 41 -16.5s31.333 5.5 42 16.5s18 25.833 22 44.5h95
c-0.666992 -22.667 -5.66699 -42.667 -15 -60s-21.5 -32 -36.5 -44s-31.833 -21.167 -50.5 -27.5s-37.667 -9.5 -57 -9.5z" />
    <glyph glyph-name="Uring" unicode="&#x16e;" horiz-adv-x="653" 
d="M326 -14c-56.667 0 -105.335 12.333 -146.002 37c-41.333 25.333 -70.166 56.5 -86.499 93.5s-24.5 74.5 -24.5 112.5v438h128v-425c0 -40 11.167 -72.833 33.5 -98.5s54.5 -38.5 96.5 -38.5s73.833 12.833 95.5 38.5s32.5 58.5 32.5 98.5v425h128v-438
c0 -38 -6.66699 -72 -20 -102s-31.666 -55.5 -54.999 -76.5s-50.5 -37 -81.5 -48s-64.5 -16.5 -100.5 -16.5zM331.999 695c-30 0 -54.832 10.001 -74.499 30.001s-29.5 46 -29.5 78c0 17.333 3.16699 32.833 9.5 46.5s14.666 25.167 24.999 34.5s21.833 16.333 34.5 21
s25.667 7 39 7c29.333 0 53.5 -10.333 72.5 -31s28.5 -46.334 28.5 -77.001c0 -14.667 -2.5 -28.667 -7.5 -42s-12.167 -25 -21.5 -35s-20.5 -17.833 -33.5 -23.5s-27.167 -8.5 -42.5 -8.5zM332 758.001c12.667 0 22.5 4.33301 29.5 13s10.5 19.667 10.5 33
s-3.5 24.333 -10.5 33s-16.833 13 -29.5 13c-12 0 -21.5 -4.33301 -28.5 -13s-10.5 -19.667 -10.5 -33s3.5 -24.333 10.5 -33s16.5 -13 28.5 -13z" />
    <glyph glyph-name="uring" unicode="&#x16f;" horiz-adv-x="550" 
d="M232 -10c-56.667 0 -99.666 17 -128.999 51s-44 85.333 -44 154v287h124v-274c0 -33.333 6 -60.333 18 -81s32.667 -31 62 -31c24 0 44.333 4.83301 61 14.5s30 18.834 40 27.501v344h124v-482h-114l-4 38c-22 -18.667 -44.833 -31.334 -68.5 -38.001
s-46.834 -10 -69.501 -10zM281.001 529c-30 0 -54.832 10.001 -74.499 30.001s-29.5 46 -29.5 78c0 17.333 3.16699 32.833 9.5 46.5s14.666 25.167 24.999 34.5s21.833 16.333 34.5 21s25.667 7 39 7c29.333 0 53.5 -10.333 72.5 -31s28.5 -46.334 28.5 -77.001
c0 -14.667 -2.5 -28.667 -7.5 -42s-12.167 -25 -21.5 -35s-20.5 -17.833 -33.5 -23.5s-27.167 -8.5 -42.5 -8.5zM281.002 592.001c12.667 0 22.5 4.33301 29.5 13s10.5 19.667 10.5 33s-3.5 24.333 -10.5 33s-16.833 13 -29.5 13c-12 0 -21.5 -4.33301 -28.5 -13
s-10.5 -19.667 -10.5 -33s3.5 -24.333 10.5 -33s16.5 -13 28.5 -13z" />
    <glyph glyph-name="Uhungarumlaut" unicode="&#x170;" horiz-adv-x="653" 
d="M326 -14c-56.667 0 -105.335 12.333 -146.002 37c-41.333 25.333 -70.166 56.5 -86.499 93.5s-24.5 74.5 -24.5 112.5v438h128v-425c0 -40 11.167 -72.833 33.5 -98.5s54.5 -38.5 96.5 -38.5s73.833 12.833 95.5 38.5s32.5 58.5 32.5 98.5v425h128v-438
c0 -38 -6.66699 -72 -20 -102s-31.666 -55.5 -54.999 -76.5s-50.5 -37 -81.5 -48s-64.5 -16.5 -100.5 -16.5zM198.999 707l-37 43l156 151l61 -72zM374.999 707l-38 43l155 151l63 -72z" />
    <glyph glyph-name="uhungarumlaut" unicode="&#x171;" horiz-adv-x="550" 
d="M232 -10c-56.667 0 -99.666 17 -128.999 51s-44 85.333 -44 154v287h124v-274c0 -33.333 6 -60.333 18 -81s32.667 -31 62 -31c24 0 44.333 4.83301 61 14.5s30 18.834 40 27.501v344h124v-482h-114l-4 38c-22 -18.667 -44.833 -31.334 -68.5 -38.001
s-46.834 -10 -69.501 -10zM140.001 541l-37 43l156 151l61 -72zM316.001 541l-38 43l155 151l63 -72z" />
    <glyph glyph-name="Uogonek" unicode="&#x172;" horiz-adv-x="653" 
d="M326 -14c-56.667 0 -105.335 12.333 -146.002 37c-41.333 25.333 -70.166 56.5 -86.499 93.5s-24.5 74.5 -24.5 112.5v438h128v-425c0 -40 11.167 -72.833 33.5 -98.5s54.5 -38.5 96.5 -38.5s73.833 12.833 95.5 38.5s32.5 58.5 32.5 98.5v425h128v-438
c0 -38 -6.66699 -72 -20 -102s-31.666 -55.5 -54.999 -76.5s-50.5 -37 -81.5 -48s-64.5 -16.5 -100.5 -16.5zM375.999 -198c-34 0 -59.3311 8.16699 -75.998 24.5s-25 37.166 -25 62.499c0 18 3.83301 34.5 11.5 49.5s17.167 28.333 28.5 40s22.666 21.167 33.999 28.5
s19.666 12.333 24.999 15l72 -12c-19.333 -13.333 -36.833 -28 -52.5 -44s-23.5 -32 -23.5 -48c0 -8.66699 2.16699 -15.667 6.5 -21s11.5 -8 21.5 -8c12 0 23 3 33 9l23 -75c-12.667 -7.33301 -25.5 -12.666 -38.5 -15.999s-26.167 -5 -39.5 -5z" />
    <glyph glyph-name="uogonek" unicode="&#x173;" horiz-adv-x="550" 
d="M232 -10c-56.667 0 -99.666 17 -128.999 51s-44 85.333 -44 154v287h124v-274c0 -33.333 6 -60.333 18 -81s32.667 -31 62 -31c24 0 44.333 4.83301 61 14.5s30 18.834 40 27.501v344h124v-482h-114l-4 38c-22 -18.667 -44.833 -31.334 -68.5 -38.001
s-46.834 -10 -69.501 -10zM410.001 -198c-34 0 -59.3311 8.16699 -75.998 24.5s-25 37.166 -25 62.499c0 18 3.83301 34.5 11.5 49.5s17.167 28.333 28.5 40s22.666 21.167 33.999 28.5s19.666 12.333 24.999 15l72 -12c-19.333 -13.333 -36.833 -28 -52.5 -44
s-23.5 -32 -23.5 -48c0 -8.66699 2.16699 -15.667 6.5 -21s11.5 -8 21.5 -8c12 0 23 3 33 9l23 -75c-12.667 -7.33301 -25.5 -12.666 -38.5 -15.999s-26.167 -5 -39.5 -5z" />
    <glyph glyph-name="Wcircumflex" unicode="&#x174;" horiz-adv-x="759" 
d="M136 0l-126 667h127l76 -450l108 450h117l113 -450l75 450h123l-127 -667h-127l-118 480l-113 -480h-128zM283 710l-64 45l115 130h92l113 -129l-64 -45l-96 96z" />
    <glyph glyph-name="wcircumflex" unicode="&#x175;" horiz-adv-x="681" 
d="M158 0l-158 482h129l83 -305l78 305h100l79 -305l83 305h129l-158 -482h-100l-83 314l-81 -314h-101zM246 544l-64 45l115 130h92l113 -129l-64 -45l-96 96z" />
    <glyph glyph-name="Ycircumflex" unicode="&#x176;" horiz-adv-x="552" 
d="M214 0v268l-214 399h143l137 -265l131 265h141l-210 -399v-268h-128zM186 710l-64 45l115 130h92l113 -129l-64 -45l-96 96z" />
    <glyph glyph-name="ycircumflex" unicode="&#x177;" horiz-adv-x="503" 
d="M37 -191l-10.9971 111.001c36 0 68.167 4.33301 96.5 13s50.166 22.667 65.499 42c2.66699 3.33301 5 7 7 11s4.33301 8 7 12l-198 484h133l134 -370c28.667 76 48 133 58 171c25.333 93.333 42.666 159.666 51.999 198.999h122
c-24.667 -98 -50.834 -186.667 -78.501 -266s-55.5 -147.333 -83.5 -204c-26.667 -50.667 -50.667 -90 -72 -118c-21.333 -26 -52.333 -46.5 -93 -61.5s-87 -22.833 -139 -23.5zM175.003 544.001l-64 45l115 130h92l113 -129l-64 -45l-96 96z" />
    <glyph glyph-name="Ydieresis" unicode="&#x178;" horiz-adv-x="552" 
d="M214 0v268l-214 399h143l137 -265l131 265h141l-210 -399v-268h-128zM189 726c-23.333 0 -40.833 6.83301 -52.5 20.5s-17.5 28.834 -17.5 45.501c0 16 5.83301 30.833 17.5 44.5s29.167 20.5 52.5 20.5c22.667 0 39.667 -6.83301 51 -20.5s17 -28.5 17 -44.5
c0 -16.667 -5.66699 -31.834 -17 -45.501s-28.333 -20.5 -51 -20.5zM397 726c-23.333 0 -40.833 6.83301 -52.5 20.5s-17.5 28.834 -17.5 45.501c0 16 5.83301 30.833 17.5 44.5s29.167 20.5 52.5 20.5c22.667 0 39.667 -6.83301 51 -20.5s17 -28.5 17 -44.5
c0 -16.667 -5.66699 -31.834 -17 -45.501s-28.333 -20.5 -51 -20.5z" />
    <glyph glyph-name="Zacute" unicode="&#x179;" horiz-adv-x="538" 
d="M25 0v110l323 436h-296v121h453v-114l-320 -432h326v-121h-486zM203 704l-33 54l191 141l59 -83z" />
    <glyph glyph-name="zacute" unicode="&#x17a;" horiz-adv-x="483" 
d="M34 0v89l262 293h-251v100h394v-94l-258 -289h266v-99h-413zM174 538l-33 54l191 141l59 -83z" />
    <glyph glyph-name="Zdotaccent" unicode="&#x17b;" horiz-adv-x="538" 
d="M25 0v110l323 436h-296v121h453v-114l-320 -432h326v-121h-486zM288 720c-20 0 -36.667 7.66699 -50 23s-20 33.333 -20 54s6.66699 38.667 20 54s30 23 50 23c20.667 0 37.667 -7.66699 51 -23s20 -33.333 20 -54s-6.66699 -38.667 -20 -54s-30.333 -23 -51 -23z" />
    <glyph glyph-name="zdotaccent" unicode="&#x17c;" horiz-adv-x="483" 
d="M34 0v89l262 293h-251v100h394v-94l-258 -289h266v-99h-413zM250 554c-20 0 -36.667 7.66699 -50 23s-20 33.333 -20 54s6.66699 38.667 20 54s30 23 50 23c20.667 0 37.667 -7.66699 51 -23s20 -33.333 20 -54s-6.66699 -38.667 -20 -54s-30.333 -23 -51 -23z" />
    <glyph glyph-name="Zcaron" unicode="&#x17d;" horiz-adv-x="538" 
d="M25 0v110l323 436h-296v121h453v-114l-320 -432h326v-121h-486zM240 710l-115 126l68 48l92 -95l96 95l66 -41l-115 -133h-92z" />
    <glyph glyph-name="zcaron" unicode="&#x17e;" horiz-adv-x="483" 
d="M34 0v89l262 293h-251v100h394v-94l-258 -289h266v-99h-413zM207 544l-115 126l68 48l92 -95l96 95l66 -41l-115 -133h-92z" />
    <glyph glyph-name="longs" unicode="&#x17f;" horiz-adv-x="318" 
d="M78 0l-0.000976562 507.999c0 46.667 10 83.667 30 111c15.333 22 34.333 37.667 57 47s47 14 73 14c30 0 54.833 -2.83301 74.5 -8.5s31.167 -9.5 34.5 -11.5l-14 -103c-4 2 -11.833 4.83301 -23.5 8.5s-27.167 5.5 -46.5 5.5c-17.333 0 -31.666 -5.16699 -42.999 -15.5
s-17 -27.166 -17 -50.499v-505h-125z" />
    <glyph glyph-name="florin" unicode="&#x192;" 
d="M-20 -149l-0.000976562 116c34 1.33301 62.833 10.166 86.5 26.499s39.834 43.5 48.501 81.5l57 249h-77v114h102c12 64.667 33 114 63 148s62.667 55 98 63c36 8 68 12 96 12v-115c-44.667 0 -75.667 -8.66699 -93 -26c-16 -16 -29.667 -43.333 -41 -82h134v-114h-161
l-51 -236c-12.667 -59.333 -31 -106.666 -55 -141.999c-16.667 -26 -39.334 -46.5 -68.001 -61.5s-55.667 -24.333 -81 -28s-44.666 -5.5 -57.999 -5.5z" />
    <glyph glyph-name="Scommaaccent" unicode="&#x218;" horiz-adv-x="521" 
d="M257 -14c-30 0 -57.6689 2.66699 -83.002 8s-47.666 11.5 -66.999 18.5s-35.5 14.167 -48.5 21.5s-22.5 13.333 -28.5 18l54 111c6 -5.33301 14.333 -11.666 25 -18.999s23.167 -14.333 37.5 -21s30.666 -12.167 48.999 -16.5s38.5 -6.5 60.5 -6.5c32 0 57.167 7 75.5 21
s27.5 32.667 27.5 56c0 28 -9 49.667 -27 65c-19.333 16 -58.666 34.333 -117.999 55c-49.333 14 -88.333 32.667 -117 56c-20 16.667 -34.833 34.667 -44.5 54s-14.834 36.166 -15.501 50.499s-0.666992 26.833 0 37.5c0 42 10.333 77.333 31 106
c20.667 30 48.667 50.833 84 62.5s71.333 17.5 108 17.5c36 0 69.167 -5 99.5 -15s55.833 -22.333 76.5 -37s36 -27.667 46 -39l-67 -89c-12.667 14 -31.667 27 -57 39s-46.666 20.167 -63.999 24.5s-30.333 6.16602 -39 5.49902c-34.667 0 -59 -6.83301 -73 -20.5
s-21 -30.167 -21 -49.5c0 -23.333 8 -41 24 -53c8.66699 -6 21.5 -13 38.5 -21s38.833 -16.667 65.5 -26c59.333 -20.667 103.666 -43.667 132.999 -69c29.333 -24.667 47 -49.667 53 -75c5.33301 -23.333 9 -48 11 -74c0 -45.333 -13.667 -84.666 -41 -117.999
c-27.333 -32 -58.666 -53 -93.999 -63s-66.666 -15 -93.999 -15zM147.998 -181l59 137h110l-81 -137h-88z" />
    <glyph glyph-name="scommaaccent" unicode="&#x219;" horiz-adv-x="461" 
d="M238 -11c-17.333 0 -34.8359 1.16602 -52.5029 3.49902s-35.834 5.83301 -54.501 10.5c-36 9.33301 -61.333 18.666 -76 27.999s-23.667 16.666 -27 21.999l45 95c12.667 -13.333 30.667 -25.666 54 -36.999c23.333 -10 44.5 -16.667 63.5 -20s34.833 -5 47.5 -5
c30 0 50.833 4.33301 62.5 13s17.5 20.334 17.5 35.001c0 12.667 -7.66699 24 -23 34s-45 20.667 -89 32c-31.333 6.66699 -57.166 15 -77.499 25s-36.5 21.333 -48.5 34s-20.167 26.667 -24.5 42s-6.16602 31.666 -5.49902 48.999c0 42.667 15.833 77.334 47.5 104.001
s79.834 40 144.501 40c42 0 79.667 -6 113 -18c34 -11.333 57.667 -22.666 71 -33.999l-42 -90c-12.667 10 -31.334 20.333 -56.001 31s-53 16 -85 16c-29.333 0 -49.166 -4.66699 -59.499 -14s-15.5 -20.666 -15.5 -33.999c0 -16 6 -27.333 18 -34
c12.667 -6.66699 39.334 -14 80.001 -22c49.333 -8.66699 87 -23.334 113 -44.001s41.667 -41 47 -61s8 -36.667 8 -50c0 -40 -12.333 -72.333 -37 -97c-25.333 -24 -53.5 -39 -84.5 -45s-55.833 -9 -74.5 -9zM122.997 -181.001l59 137h110l-81 -137h-88z" />
    <glyph glyph-name="uni021A" unicode="&#x21a;" horiz-adv-x="516" 
d="M194 0v546h-189v121h506v-121h-189v-546h-128zM140 -181l59 137h110l-81 -137h-88z" />
    <glyph glyph-name="uni021B" unicode="&#x21b;" horiz-adv-x="350" 
d="M208 -11c-42.667 0 -74.333 11.999 -95 35.999s-31 53 -31 87v270h-68v100h68v125h123v-125h111v-100h-111v-245c0 -15.333 3.66699 -26 11 -32s16 -9 26 -9c24.667 0 46 7 64 21l32 -89c-15.333 -11.333 -34.5 -20.666 -57.5 -27.999s-47.167 -11 -72.5 -11z
M98.001 -181.001l59 137h110l-81 -137h-88z" />
    <glyph glyph-name="dotlessj" unicode="&#x237;" horiz-adv-x="257" 
d="M51 -203l-55 97c28 18.667 47.5 37.667 58.5 57s16.5 42 16.5 68v463h124v-463c0 -55.333 -11.5 -100.333 -34.5 -135s-59.5 -63.667 -109.5 -87z" />
    <glyph glyph-name="circumflex" unicode="&#x2c6;" horiz-adv-x="442" 
d="M113 544l-64 45l115 130h92l113 -129l-64 -45l-96 96z" />
    <glyph glyph-name="caron" unicode="&#x2c7;" horiz-adv-x="442" 
d="M164 544l-115 126l68 48l92 -95l96 95l66 -41l-115 -133h-92z" />
    <glyph glyph-name="uni02C9" unicode="&#x2c9;" horiz-adv-x="442" 
d="M38 578v89h345v-89h-345z" />
    <glyph glyph-name="breve" unicode="&#x2d8;" horiz-adv-x="442" 
d="M210 539c-24.667 0 -47.167 3.83496 -67.5 11.502s-37.5 18.167 -51.5 31.5s-24.333 28.666 -31 45.999s-10 34.666 -10 51.999h98c4 -18.667 11 -33.5 21 -44.5s23.667 -16.5 41 -16.5s31.333 5.5 42 16.5s18 25.833 22 44.5h95
c-0.666992 -22.667 -5.66699 -42.667 -15 -60s-21.5 -32 -36.5 -44s-31.833 -21.167 -50.5 -27.5s-37.667 -9.5 -57 -9.5z" />
    <glyph glyph-name="dotaccent" unicode="&#x2d9;" horiz-adv-x="442" 
d="M221 554c-20 0 -36.667 7.66699 -50 23s-20 33.333 -20 54s6.66699 38.667 20 54s30 23 50 23c20.667 0 37.667 -7.66699 51 -23s20 -33.333 20 -54s-6.66699 -38.667 -20 -54s-30.333 -23 -51 -23z" />
    <glyph glyph-name="ring" unicode="&#x2da;" horiz-adv-x="442" 
d="M221 529c-30 0 -54.832 10.001 -74.499 30.001s-29.5 46 -29.5 78c0 17.333 3.16699 32.833 9.5 46.5s14.666 25.167 24.999 34.5s21.833 16.333 34.5 21s25.667 7 39 7c29.333 0 53.5 -10.333 72.5 -31s28.5 -46.334 28.5 -77.001c0 -14.667 -2.5 -28.667 -7.5 -42
s-12.167 -25 -21.5 -35s-20.5 -17.833 -33.5 -23.5s-27.167 -8.5 -42.5 -8.5zM221.001 592.001c12.667 0 22.5 4.33301 29.5 13s10.5 19.667 10.5 33s-3.5 24.333 -10.5 33s-16.833 13 -29.5 13c-12 0 -21.5 -4.33301 -28.5 -13s-10.5 -19.667 -10.5 -33
s3.5 -24.333 10.5 -33s16.5 -13 28.5 -13z" />
    <glyph glyph-name="ogonek" unicode="&#x2db;" horiz-adv-x="442" 
d="M186 -198c-34 0 -59.3311 8.16699 -75.998 24.5s-25 37.166 -25 62.499c0 18 3.83301 34.5 11.5 49.5s17.167 28.333 28.5 40s22.666 21.167 33.999 28.5s19.666 12.333 24.999 15l72 -12c-19.333 -13.333 -36.833 -28 -52.5 -44s-23.5 -32 -23.5 -48
c0 -8.66699 2.16699 -15.667 6.5 -21s11.5 -8 21.5 -8c12 0 23 3 33 9l23 -75c-12.667 -7.33301 -25.5 -12.666 -38.5 -15.999s-26.167 -5 -39.5 -5z" />
    <glyph glyph-name="tilde" unicode="&#x2dc;" horiz-adv-x="442" 
d="M89 540l-68 38c12 34 28.5 61.333 49.5 82s45.5 31 73.5 31c17.333 0 41.666 -9.66699 72.999 -29c26.667 -18.667 45.334 -28 56.001 -28c6 0 14.667 3.83301 26 11.5s22.333 24.834 33 51.501l69 -37c-9.33301 -34 -25.333 -61.5 -48 -82.5
s-48.334 -31.5 -77.001 -31.5c-18.667 0 -43.334 10 -74.001 30c-27.333 18 -45.666 27 -54.999 27c-7.33301 0 -16.166 -3.83301 -26.499 -11.5s-20.833 -24.834 -31.5 -51.501z" />
    <glyph glyph-name="hungarumlaut" unicode="&#x2dd;" horiz-adv-x="442" 
d="M51 541l-37 43l156 151l61 -72zM227 541l-38 43l155 151l63 -72z" />
    <glyph glyph-name="tonos" unicode="&#x384;" horiz-adv-x="442" 
d="M207 523l-68 34l101 228l103 -47z" />
    <glyph glyph-name="dieresistonos" unicode="&#x385;" horiz-adv-x="442" 
d="M206 540l-59 28l100 225l96 -39zM57 560c-19.333 0 -35 7.16699 -47 21.5s-18 30.833 -18 49.5c0 19.333 6 36 18 50s27.667 21 47 21c18.667 0 34.167 -7 46.5 -21s18.5 -30.667 18.5 -50c0 -18.667 -6.16699 -35.167 -18.5 -49.5s-27.833 -21.5 -46.5 -21.5zM393 560
c-18.667 0 -34.167 7.16699 -46.5 21.5s-18.5 30.833 -18.5 49.5c0 19.333 6.16699 36 18.5 50s27.833 21 46.5 21c19.333 0 35 -7 47 -21s18 -30.667 18 -50c0 -18.667 -6 -35.167 -18 -49.5s-27.667 -21.5 -47 -21.5z" />
    <glyph glyph-name="Alphatonos" unicode="&#x386;" horiz-adv-x="608" 
d="M55 403l-74 24l64 241l110 -32zM0 0l240 667h127l241 -667h-131l-46 134h-255l-45 -134h-131zM215 247h178l-89 263z" />
    <glyph glyph-name="Epsilontonos" unicode="&#x388;" horiz-adv-x="625" 
d="M16 403l-74 24l64 241l110 -32zM141 0v667h435v-121h-307v-152h254v-121h-254v-152h329v-121h-457z" />
    <glyph glyph-name="Etatonos" unicode="&#x389;" horiz-adv-x="739" 
d="M14 403l-74 24l64 241l110 -32zM157 0v667h128v-264h252v264h128v-667h-128v282h-252v-282h-128z" />
    <glyph glyph-name="Iotatonos" unicode="&#x38a;" horiz-adv-x="349" 
d="M15 403l-74 24l64 241l110 -32zM147 0v667h128v-667h-128z" />
    <glyph glyph-name="Omicrontonos" unicode="&#x38c;" horiz-adv-x="724" 
d="M15 403l-74 24l64 241l110 -32zM386 -14c-48.667 0 -91.168 10.1641 -127.501 30.4971s-66.666 46.833 -90.999 79.5s-42.5 69.834 -54.5 111.501s-18 83.834 -18 126.501s6 84.834 18 126.501s30.167 78.834 54.5 111.501s54.666 59 90.999 79s78.833 30 127.5 30
c68 0 125.667 -20 173 -60s79.333 -87.333 96 -142c17.333 -57.333 26 -105.666 26 -144.999c0 -42.667 -6.16699 -84.834 -18.5 -126.501s-30.666 -78.834 -54.999 -111.501s-55 -59.167 -92 -79.5s-80.167 -30.5 -129.5 -30.5zM385.999 104.997
c26.667 0 51.334 7.16602 74.001 21.499s39.667 31.333 51 51s19.666 38.834 24.999 57.501c10 36.667 15 69.667 15 99c0 44 -8 85 -24 123c-15.333 38 -36 65.167 -62 81.5s-52.333 24.5 -79 24.5c-26 0 -49.167 -6.33301 -69.5 -19s-37.333 -29.667 -51 -51
s-24 -45.833 -31 -73.5s-10.5 -56.167 -10.5 -85.5s3.5 -57.833 10.5 -85.5s17.333 -52.167 31 -73.5s30.667 -38.333 51 -51s43.5 -19 69.5 -19z" />
    <glyph glyph-name="Upsilontonos" unicode="&#x38e;" horiz-adv-x="701" 
d="M17 403l-74 24l64 241l110 -32zM349 0l-0.00292969 156c0 28.667 -1.66699 55.667 -5 81c-4 28.667 -13 59 -27 91s-31.333 63.5 -52 94.5s-43.334 60 -68.001 87s-50 50.167 -76 69.5l84 94c34.667 -24.667 67.834 -56.167 99.501 -94.5s56.834 -76 75.501 -113
s30.667 -66.833 36 -89.5c10.667 39.333 30 81.666 58 126.999c28.667 46 56 82.5 82 109.5s49.333 47.5 70 61.5l75 -86c-22.667 -18.667 -43.5 -39.167 -62.5 -61.5s-39.167 -48.5 -60.5 -78.5c-21.333 -29.333 -39.333 -59.333 -54 -90
c-15.333 -30 -26.666 -55.667 -33.999 -77s-11.666 -40.333 -12.999 -57c-3.33301 -35.333 -5 -66.666 -5 -93.999v-130h-123z" />
    <glyph glyph-name="Omegatonos" unicode="&#x38f;" horiz-adv-x="718" 
d="M17 403l-74 24l64 241l110 -32zM109 0l0.000976562 120h86c-26 25.333 -48.333 58.833 -67 100.5s-28 91.834 -28 150.501c0 68 14.667 126.667 44 176c30.667 50 68 84.667 112 104c44.667 20 88.667 30 132 30c66 0 121 -16 165 -48c44 -30 74.667 -69.667 92 -119
c17.333 -48.667 26 -95.334 26 -140.001c0 -42 -7.16699 -83 -21.5 -123s-29.333 -70.333 -45 -91s-27.834 -34 -36.501 -40h94v-120h-226v114c36 28.667 63.5 63 82.5 103s28.5 85 28.5 135c0 68.667 -14.833 121 -44.5 157s-68.5 54 -116.5 54
c-48.667 0 -87.667 -18 -117 -54s-44 -88.333 -44 -157c0 -30 3.5 -57.5 10.5 -82.5s16 -47.167 27 -66.5s23 -36.5 36 -51.5s25.167 -27.5 36.5 -37.5v-114h-226z" />
    <glyph glyph-name="iotadieresistonos" unicode="&#x390;" horiz-adv-x="293" 
d="M183 -11c-38 0 -67.667 10.333 -89 31s-32 52 -32 94v368h123v-336c0 -22 3.33301 -36.667 10 -44s16 -11 28 -11c16 0 33 4.33301 51 13l14 -95c-11.333 -5.33301 -27.333 -10 -48 -14s-39.667 -6 -57 -6zM123 540l-59 28l100 225l96 -39zM-26 560
c-19.333 0 -35 7.16699 -47 21.5s-18 30.833 -18 49.5c0 19.333 6 36 18 50s27.667 21 47 21c18.667 0 34.167 -7 46.5 -21s18.5 -30.667 18.5 -50c0 -18.667 -6.16699 -35.167 -18.5 -49.5s-27.833 -21.5 -46.5 -21.5zM310 560c-18.667 0 -34.167 7.16699 -46.5 21.5
s-18.5 30.833 -18.5 49.5c0 19.333 6.16699 36 18.5 50s27.833 21 46.5 21c19.333 0 35 -7 47 -21s18 -30.667 18 -50c0 -18.667 -6 -35.167 -18 -49.5s-27.667 -21.5 -47 -21.5z" />
    <glyph glyph-name="Alpha" unicode="&#x391;" horiz-adv-x="608" 
d="M0 0l240 667h127l241 -667h-131l-46 134h-255l-45 -134h-131zM215 247h178l-89 263z" />
    <glyph glyph-name="Beta" unicode="&#x392;" horiz-adv-x="568" 
d="M73 0v667.001h226c48.667 0 90.667 -11 126 -33c34 -21.333 56.667 -46.333 68 -75c10 -27.333 15 -51.333 15 -72c0 -30 -6.66699 -56 -20 -78s-32.333 -40.667 -57 -56c34 -12.667 61.333 -32.834 82 -60.501s31 -62.5 31 -104.5c0 -35.333 -9.5 -69 -28.5 -101
s-47.833 -55.667 -86.5 -71c-14 -5.33301 -29.5 -9.33301 -46.5 -12s-33.5 -4 -49.5 -4h-260zM200 114.001h90.999c22 0 39.333 1 52 3s23 5.33301 31 10c14 8 24.167 17.833 30.5 29.5s9.5 23.834 9.5 36.501c0 14.667 -4 29 -12 43s-19.667 25.333 -35 34
c-10 5.33301 -21.667 9.16602 -35 11.499s-27.666 3.5 -42.999 3.5h-89v-171zM199.999 394.001l62 -0.000976562c36 0 59.667 3 71 9c16 8 27.667 18.167 35 30.5s11 25.166 11 38.499c0 16 -5 30.833 -15 44.5s-24.667 23.834 -44 30.501c-1.33301 0 -4.5 0.333008 -9.5 1
s-10.833 1.33398 -17.5 2.00098l-21 2c-7.33301 0.666992 -14 1 -20 1h-52v-159z" />
    <glyph glyph-name="Gamma" unicode="&#x393;" horiz-adv-x="484" 
d="M73 0v667h406v-118h-278v-549h-128z" />
    <glyph glyph-name="uni0394" unicode="&#x394;" horiz-adv-x="594" 
d="M0 0l236 667h118l240 -667h-594zM163 107h262l-132 407z" />
    <glyph glyph-name="Epsilon" unicode="&#x395;" horiz-adv-x="557" 
d="M73 0v667h435v-121h-307v-152h254v-121h-254v-152h329v-121h-457z" />
    <glyph glyph-name="Zeta" unicode="&#x396;" horiz-adv-x="538" 
d="M25 0v110l323 436h-296v121h453v-114l-320 -432h326v-121h-486z" />
    <glyph glyph-name="Eta" unicode="&#x397;" horiz-adv-x="655" 
d="M73 0v667h128v-264h252v264h128v-667h-128v282h-252v-282h-128z" />
    <glyph glyph-name="Theta" unicode="&#x398;" horiz-adv-x="672" 
d="M334 -14c-48.667 0 -91.168 10.1641 -127.501 30.4971s-66.666 46.833 -90.999 79.5s-42.5 69.834 -54.5 111.501s-18 83.834 -18 126.501s6 84.834 18 126.501s30.167 78.834 54.5 111.501s54.666 59 90.999 79s78.833 30 127.5 30c68 0 125.667 -20 173 -60
s79.333 -87.333 96 -142c17.333 -57.333 26 -105.666 26 -144.999c0 -42.667 -6.16699 -84.834 -18.5 -126.501s-30.666 -78.834 -54.999 -111.501s-55 -59.167 -92 -79.5s-80.167 -30.5 -129.5 -30.5zM333.999 104.997c26.667 0 51.334 7.16602 74.001 21.499
s39.667 31.333 51 51s19.666 38.834 24.999 57.501c10 36.667 15 69.667 15 99c0 44 -8 85 -24 123c-15.333 38 -36 65.167 -62 81.5s-52.333 24.5 -79 24.5c-26 0 -49.167 -6.33301 -69.5 -19s-37.333 -29.667 -51 -51s-24 -45.833 -31 -73.5s-10.5 -56.167 -10.5 -85.5
s3.5 -57.833 10.5 -85.5s17.333 -52.167 31 -73.5s30.667 -38.333 51 -51s43.5 -19 69.5 -19zM216.999 275.996v115h235v-115h-235z" />
    <glyph glyph-name="Iota" unicode="&#x399;" horiz-adv-x="275" 
d="M73 0v667h128v-667h-128z" />
    <glyph glyph-name="Kappa" unicode="&#x39a;" horiz-adv-x="609" 
d="M73 0v667h128v-255l244 255h152l-249 -260l261 -407h-144l-205 316l-59 -62v-254h-128z" />
    <glyph glyph-name="Lambda" unicode="&#x39b;" horiz-adv-x="600" 
d="M0 0l244 667h108l248 -667h-131l-171 491l-167 -491h-131z" />
    <glyph glyph-name="Mu" unicode="&#x39c;" horiz-adv-x="750" 
d="M340 -4l-138 401l-18 -397h-127l32 667h131l163 -474l146 474h132l32 -667h-127l-18 393l-123 -397h-85z" />
    <glyph glyph-name="Nu" unicode="&#x39d;" horiz-adv-x="660" 
d="M73 0v667h131l257 -416v416h126v-667h-112l-275 441v-441h-127z" />
    <glyph glyph-name="Xi" unicode="&#x39e;" horiz-adv-x="531" 
d="M55 0v118h421v-118h-421zM107 285v117h316v-117h-316zM60 549v118h411v-118h-411z" />
    <glyph glyph-name="Omicron" unicode="&#x39f;" horiz-adv-x="672" 
d="M334 -14c-48.667 0 -91.168 10.1641 -127.501 30.4971s-66.666 46.833 -90.999 79.5s-42.5 69.834 -54.5 111.501s-18 83.834 -18 126.501s6 84.834 18 126.501s30.167 78.834 54.5 111.501s54.666 59 90.999 79s78.833 30 127.5 30c68 0 125.667 -20 173 -60
s79.333 -87.333 96 -142c17.333 -57.333 26 -105.666 26 -144.999c0 -42.667 -6.16699 -84.834 -18.5 -126.501s-30.666 -78.834 -54.999 -111.501s-55 -59.167 -92 -79.5s-80.167 -30.5 -129.5 -30.5zM333.999 104.997c26.667 0 51.334 7.16602 74.001 21.499
s39.667 31.333 51 51s19.666 38.834 24.999 57.501c10 36.667 15 69.667 15 99c0 44 -8 85 -24 123c-15.333 38 -36 65.167 -62 81.5s-52.333 24.5 -79 24.5c-26 0 -49.167 -6.33301 -69.5 -19s-37.333 -29.667 -51 -51s-24 -45.833 -31 -73.5s-10.5 -56.167 -10.5 -85.5
s3.5 -57.833 10.5 -85.5s17.333 -52.167 31 -73.5s30.667 -38.333 51 -51s43.5 -19 69.5 -19z" />
    <glyph glyph-name="Pi" unicode="&#x3a0;" horiz-adv-x="643" 
d="M73 0v667h497v-667h-128v549h-241v-549h-128z" />
    <glyph glyph-name="Rho" unicode="&#x3a1;" horiz-adv-x="549" 
d="M73 0l0.00292969 666.999h200c32 0 61.667 -2.16699 89 -6.5s53.666 -12.833 78.999 -25.5c32 -16 55.667 -39.833 71 -71.5s23 -65.5 23 -101.5c0 -35.333 -7.66699 -69.166 -23 -101.499s-31.833 -55.833 -49.5 -70.5s-30.834 -23 -39.501 -25
c-22.667 -9.33301 -45.334 -15.833 -68.001 -19.5s-45.667 -5.5 -69 -5.5h-87v-240h-126zM199.003 354.999l71 0.000976562c18 0 34.5 1 49.5 3s27.833 5.66699 38.5 11c18 8.66699 31 20.667 39 36s12 31.666 12 48.999c0 18.667 -4.5 36 -13.5 52s-22.5 27.333 -40.5 34
c-23.333 8 -50 12 -80 12h-76v-197z" />
    <glyph glyph-name="Sigma" unicode="&#x3a3;" horiz-adv-x="511" 
d="M39 0v108l213 227l-214 223v109h441v-118h-270l199 -213l-204 -218h279v-118h-444z" />
    <glyph glyph-name="Tau" unicode="&#x3a4;" horiz-adv-x="516" 
d="M194 0v546h-189v121h506v-121h-189v-546h-128z" />
    <glyph glyph-name="Upsilon" unicode="&#x3a5;" horiz-adv-x="580" 
d="M228 0l-0.00292969 156c0 28.667 -1.66699 55.667 -5 81c-4 28.667 -13 59 -27 91s-31.333 63.5 -52 94.5s-43.334 60 -68.001 87s-50 50.167 -76 69.5l84 94c34.667 -24.667 67.834 -56.167 99.501 -94.5s56.834 -76 75.501 -113s30.667 -66.833 36 -89.5
c10.667 39.333 30 81.666 58 126.999c28.667 46 56 82.5 82 109.5s49.333 47.5 70 61.5l75 -86c-22.667 -18.667 -43.5 -39.167 -62.5 -61.5s-39.167 -48.5 -60.5 -78.5c-21.333 -29.333 -39.333 -59.333 -54 -90c-15.333 -30 -26.666 -55.667 -33.999 -77
s-11.666 -40.333 -12.999 -57c-3.33301 -35.333 -5 -66.666 -5 -93.999v-130h-123z" />
    <glyph glyph-name="Phi" unicode="&#x3a6;" horiz-adv-x="710" 
d="M291 -12v91c-84 6 -148.667 31.333 -194 76s-68 104.334 -68 179.001s22.667 134.334 68 179.001s110 70 194 76v91h128v-91c83.333 -6 147.666 -31.333 192.999 -76s68 -104.334 68 -179.001s-22.667 -134.334 -68 -179.001s-109.666 -70 -192.999 -76v-91h-128z
M291 185v297c-42 -3.33301 -74.667 -17.333 -98 -42s-35 -60 -35 -106s11.667 -81.5 35 -106.5s56 -39.167 98 -42.5zM419 185c42 3.33301 74.667 17.5 98 42.5s35 60.5 35 106.5s-11.667 81.333 -35 106s-56 38.667 -98 42v-297z" />
    <glyph glyph-name="Chi" unicode="&#x3a7;" horiz-adv-x="550" 
d="M0 0l206 347l-192 320h145l116 -203l115 203h145l-191 -320l206 -347h-143l-132 230l-132 -230h-143z" />
    <glyph glyph-name="Psi" unicode="&#x3a8;" horiz-adv-x="732" 
d="M304 0l-0.000976562 196.001c-86 3.33301 -150.167 26.333 -192.5 69s-63.5 107.334 -63.5 194.001v208h129v-190c0 -28.667 2 -53.334 6 -74.001s10.833 -37.834 20.5 -51.501s22.667 -23.667 39 -30s36.833 -9.5 61.5 -9.5v355h128v-355
c28.667 -0.666992 51.334 3 68.001 11s29.167 19.333 37.5 34s13.833 32 16.5 52s4 41.333 4 64v194h126v-214c0 -76.667 -20.5 -137.5 -61.5 -182.5s-104.5 -69.833 -190.5 -74.5v-196h-128z" />
    <glyph glyph-name="uni03A9" unicode="&#x3a9;" horiz-adv-x="665" 
d="M56 0l0.000976562 120h86c-26 25.333 -48.333 58.833 -67 100.5s-28 91.834 -28 150.501c0 68 14.667 126.667 44 176c30.667 50 68 84.667 112 104c44.667 20 88.667 30 132 30c66 0 121 -16 165 -48c44 -30 74.667 -69.667 92 -119
c17.333 -48.667 26 -95.334 26 -140.001c0 -42 -7.16699 -83 -21.5 -123s-29.333 -70.333 -45 -91s-27.834 -34 -36.501 -40h94v-120h-226v114c36 28.667 63.5 63 82.5 103s28.5 85 28.5 135c0 68.667 -14.833 121 -44.5 157s-68.5 54 -116.5 54
c-48.667 0 -87.667 -18 -117 -54s-44 -88.333 -44 -157c0 -30 3.5 -57.5 10.5 -82.5s16 -47.167 27 -66.5s23 -36.5 36 -51.5s25.167 -27.5 36.5 -37.5v-114h-226z" />
    <glyph glyph-name="Iotadieresis" unicode="&#x3aa;" horiz-adv-x="275" 
d="M73 0v667h128v-667h-128zM46 726c-23.333 0 -40.833 6.83301 -52.5 20.5s-17.5 28.834 -17.5 45.501c0 16 5.83301 30.833 17.5 44.5s29.167 20.5 52.5 20.5c22.667 0 39.667 -6.83301 51 -20.5s17 -28.5 17 -44.5c0 -16.667 -5.66699 -31.834 -17 -45.501
s-28.333 -20.5 -51 -20.5zM254 726c-23.333 0 -40.833 6.83301 -52.5 20.5s-17.5 28.834 -17.5 45.501c0 16 5.83301 30.833 17.5 44.5s29.167 20.5 52.5 20.5c22.667 0 39.667 -6.83301 51 -20.5s17 -28.5 17 -44.5c0 -16.667 -5.66699 -31.834 -17 -45.501
s-28.333 -20.5 -51 -20.5z" />
    <glyph glyph-name="Upsilondieresis" unicode="&#x3ab;" horiz-adv-x="580" 
d="M228 0l-0.00292969 156c0 28.667 -1.66699 55.667 -5 81c-4 28.667 -13 59 -27 91s-31.333 63.5 -52 94.5s-43.334 60 -68.001 87s-50 50.167 -76 69.5l84 94c34.667 -24.667 67.834 -56.167 99.501 -94.5s56.834 -76 75.501 -113s30.667 -66.833 36 -89.5
c10.667 39.333 30 81.666 58 126.999c28.667 46 56 82.5 82 109.5s49.333 47.5 70 61.5l75 -86c-22.667 -18.667 -43.5 -39.167 -62.5 -61.5s-39.167 -48.5 -60.5 -78.5c-21.333 -29.333 -39.333 -59.333 -54 -90c-15.333 -30 -26.666 -55.667 -33.999 -77
s-11.666 -40.333 -12.999 -57c-3.33301 -35.333 -5 -66.666 -5 -93.999v-130h-123zM193.997 726c-23.333 0 -40.833 6.83301 -52.5 20.5s-17.5 28.834 -17.5 45.501c0 16 5.83301 30.833 17.5 44.5s29.167 20.5 52.5 20.5c22.667 0 39.667 -6.83301 51 -20.5
s17 -28.5 17 -44.5c0 -16.667 -5.66699 -31.834 -17 -45.501s-28.333 -20.5 -51 -20.5zM401.997 726c-23.333 0 -40.833 6.83301 -52.5 20.5s-17.5 28.834 -17.5 45.501c0 16 5.83301 30.833 17.5 44.5s29.167 20.5 52.5 20.5c22.667 0 39.667 -6.83301 51 -20.5
s17 -28.5 17 -44.5c0 -16.667 -5.66699 -31.834 -17 -45.501s-28.333 -20.5 -51 -20.5z" />
    <glyph glyph-name="alphatonos" unicode="&#x3ac;" horiz-adv-x="585" 
d="M251 -11c-29.333 0 -56.668 4.99805 -82.001 14.998s-47.333 25 -66 45s-33.334 45.333 -44.001 76s-16 66.667 -16 108c0 52 10.667 100 32 144c14 28.667 32.333 52.167 55 70.5s45.167 30.666 67.5 36.999s42.5 9.5 60.5 9.5c34 0 61.333 -6.16699 82 -18.5
s39 -28.166 55 -47.499c4 26 13.667 51.667 29 77l108 -30c-15.333 -37.333 -27.5 -75.166 -36.5 -113.499s-13.5 -84.166 -13.5 -137.499c0 -46 3.33301 -81 10 -105s23 -36 49 -36c8.66699 0 18.667 1.66699 30 5l7 -88c-16 -5.33301 -37.667 -9 -65 -11
c-33.333 0 -58.166 6 -74.499 18s-29.166 30.667 -38.499 56c-20 -28 -43.167 -47.167 -69.5 -57.5s-52.833 -15.833 -79.5 -16.5zM260.998 93.998c32 0 57.333 12.167 76 36.5s28 62.5 28 114.5c0 47.333 -9 83 -27 107s-42 36 -72 36c-24.667 0 -45.5 -8.5 -62.5 -25.5
s-27.5 -36.5 -31.5 -58.5s-6 -43 -6 -63c0 -46 7.66699 -82 23 -108s39.333 -39 72 -39zM320.998 522.998l-68 34l101 228l103 -47z" />
    <glyph glyph-name="epsilontonos" unicode="&#x3ad;" horiz-adv-x="459" 
d="M243 -11c-64.667 0 -114.17 11.833 -148.503 35.5s-51.5 58.5 -51.5 104.5c0 30.667 8 56.5 24 77.5s39 35.833 69 44.5c-25.333 10.667 -45.166 25.5 -59.499 44.5s-21.5 41.167 -21.5 66.5c0 42 16.833 74.5 50.5 97.5s79.834 34.5 138.501 34.5
c34 0 68.833 -4.33301 104.5 -13s63.167 -18.334 82.5 -29.001l-45 -90c-20.667 10 -42.167 17.833 -64.5 23.5s-43.5 8.5 -63.5 8.5c-20.667 0 -39 -3.33301 -55 -10s-24 -19 -24 -37c0 -13.333 3.33301 -23.666 10 -30.999s15.5 -13 26.5 -17s23.5 -6.5 37.5 -7.5
s28.667 -1.5 44 -1.5h70v-95h-31.5c-11 0 -21.667 -0.166992 -32 -0.5s-19.666 -0.5 -27.999 -0.5h-18.5c-60.667 0 -91 -17 -91 -51c0 -18.667 9.83301 -32.167 29.5 -40.5s43.5 -12.5 71.5 -12.5c23.333 0 47.5 2.83301 72.5 8.5s48.5 14.167 70.5 25.5l27 -97
c-18 -10.667 -46.333 -19.667 -85 -27s-75 -11 -109 -11zM270.997 523l-68 34l101 228l103 -47z" />
    <glyph glyph-name="etatonos" unicode="&#x3ae;" horiz-adv-x="584" 
d="M399 -189l-0.00488281 452.001c0 25.333 -1 43.666 -3 54.999c-5.33301 50 -33.666 75 -84.999 75c-25.333 0 -46.666 -6.33301 -63.999 -19s-29.666 -28.667 -36.999 -48c-4.66699 -12 -7 -32.333 -7 -61v-265h-123v345c0 15.333 -1.66699 27 -5 35s-10.333 12 -21 12
c-9.33301 0 -19 -2 -29 -6l-15 89c8 3.33301 20.167 6.5 36.5 9.5s30.833 4.5 43.5 4.5c44 0 71.667 -21.667 83 -65c14.667 21.333 35.834 38.333 63.501 51s58.834 19 93.501 19c46 0 84 -9.16699 114 -27.5s50 -39.5 60 -63.5s15.667 -44 17 -60
c1.33301 -10.667 2 -31.667 2 -63v-469h-124zM334.995 523.001l-68 34l101 228l103 -47z" />
    <glyph glyph-name="iotatonos" unicode="&#x3af;" horiz-adv-x="293" 
d="M183 -11c-38 0 -67.667 10.333 -89 31s-32 52 -32 94v368h123v-336c0 -22 3.33301 -36.667 10 -44s16 -11 28 -11c16 0 33 4.33301 51 13l14 -95c-11.333 -5.33301 -27.333 -10 -48 -14s-39.667 -6 -57 -6zM127 523l-68 34l101 228l103 -47z" />
    <glyph glyph-name="upsilondieresistonos" unicode="&#x3b0;" horiz-adv-x="561" 
d="M284 -11c-60 0 -107.999 16.1689 -143.999 48.502s-54 83.166 -54 152.499v131c0 22 -1.66699 38.5 -5 49.5s-11.666 16.5 -24.999 16.5c-10 0 -21.667 -2.33301 -35 -7l-16 91c7.33301 3.33301 19.666 7 36.999 11s36 6 56 6c25.333 0 47.666 -7 66.999 -21
s32 -35 38 -63c4 -16 6 -39.333 6 -70v-113c0 -47.333 7.5 -80 22.5 -98s35.5 -27 61.5 -27c28.667 0 48.834 7.66699 60.501 23s20.167 39 25.5 71c3.33301 31.333 5 60 5 86c0 48.667 -7 114.667 -21 198l124 16c6 -32 10.833 -66 14.5 -102s5.5 -72 5.5 -108
c0 -45.333 -1.66699 -80.333 -5 -105c-9.33301 -60.667 -32.833 -106.834 -70.5 -138.501s-86.834 -47.5 -147.501 -47.5zM271.001 540.002l-59 28l100 225l96 -39zM122.001 560.002c-19.333 0 -35 7.16699 -47 21.5s-18 30.833 -18 49.5c0 19.333 6 36 18 50
s27.667 21 47 21c18.667 0 34.167 -7 46.5 -21s18.5 -30.667 18.5 -50c0 -18.667 -6.16699 -35.167 -18.5 -49.5s-27.833 -21.5 -46.5 -21.5zM458.001 560.002c-18.667 0 -34.167 7.16699 -46.5 21.5s-18.5 30.833 -18.5 49.5c0 19.333 6.16699 36 18.5 50
s27.833 21 46.5 21c19.333 0 35 -7 47 -21s18 -30.667 18 -50c0 -18.667 -6 -35.167 -18 -49.5s-27.667 -21.5 -47 -21.5z" />
    </font>
</defs>
</svg>
